LondrinaBlack-Regular_ik.ufo
<glyph name="exclam" format="1">
  <advance width="217"/>
  <unicode hex="0021"/>
  <outline>
    <contour>
      <point x="126" y="-3" type="line"/>
      <point x="146" y="-3" type="line"/>
      <point x="155" y="-3" type="line"/>
      <point x="158" y="-3"/>
      <point x="162" y="-4"/>
      <point x="166" y="-4" type="curve"/>
      <point x="188" y="-4" type="line"/>
      <point x="188" y="23"/>
      <point x="189" y="59"/>
      <point x="190" y="87" type="curve" smooth="yes"/>
      <point x="190" y="93"/>
      <point x="191" y="99"/>
      <point x="191" y="105" type="curve"/>
      <point x="191" y="126" type="line"/>
      <point x="179" y="126"/>
      <point x="151" y="127"/>
      <point x="138" y="128" type="curve" smooth="yes"/>
      <point x="124" y="129"/>
      <point x="109" y="130"/>
      <point x="95" y="130" type="curve" smooth="yes"/>
      <point x="78" y="130"/>
      <point x="61" y="129"/>
      <point x="39" y="120" type="curve"/>
      <point x="39" y="105"/>
      <point x="38" y="84"/>
      <point x="36" y="65" type="curve" smooth="yes"/>
      <point x="35" y="52"/>
      <point x="34" y="39"/>
      <point x="34" y="28" type="curve" smooth="yes"/>
      <point x="34" y="9"/>
      <point x="37" y="-4"/>
      <point x="51" y="-4" type="curve"/>
    </contour>
    <contour>
      <point x="28" y="710" type="line"/>
      <point x="24" y="647"/>
      <point x="23" y="580"/>
      <point x="23" y="518" type="curve"/>
      <point x="23" y="448" type="line"/>
      <point x="23" y="425"/>
      <point x="24" y="401"/>
      <point x="24" y="378" type="curve" smooth="yes"/>
      <point x="25" y="330"/>
      <point x="25" y="281"/>
      <point x="25" y="233" type="curve"/>
      <point x="30" y="165" type="line"/>
      <point x="55" y="165" type="line"/>
      <point x="62" y="165"/>
      <point x="70" y="166"/>
      <point x="75" y="166" type="curve" smooth="yes"/>
      <point x="82" y="166"/>
      <point x="88" y="167"/>
      <point x="95" y="167" type="curve" smooth="yes"/>
      <point x="122" y="168"/>
      <point x="153" y="168"/>
      <point x="190" y="171" type="curve"/>
      <point x="186" y="248"/>
      <point x="185" y="333"/>
      <point x="185" y="413" type="curve" smooth="yes"/>
      <point x="185" y="501"/>
      <point x="186" y="589"/>
      <point x="188" y="674" type="curve"/>
      <point x="188" y="688" type="line"/>
      <point x="188" y="692"/>
      <point x="189" y="701"/>
      <point x="189" y="706" type="curve"/>
      <point x="167" y="713"/>
      <point x="149" y="714"/>
      <point x="131" y="714" type="curve" smooth="yes"/>
      <point x="110" y="714"/>
      <point x="91" y="712"/>
      <point x="73" y="710" type="curve"/>
      <point x="59" y="710" type="line"/>
      <point x="45" y="710" type="line"/>
    </contour>
  </outline>
</glyph>
<glyph name="percent" format="1">
  <advance width="604"/>
  <unicode hex="0025"/>
  <outline>
    <contour>
      <point x="310" y="149" type="line"/>
      <point x="315" y="162"/>
      <point x="319" y="173"/>
      <point x="324" y="186" type="curve" smooth="yes"/>
      <point x="326" y="192"/>
      <point x="330" y="203"/>
      <point x="332" y="209" type="curve" smooth="yes"/>
      <point x="345" y="244"/>
      <point x="357" y="280"/>
      <point x="369" y="315" type="curve" smooth="yes"/>
      <point x="373" y="326"/>
      <point x="377" y="339"/>
      <point x="381" y="350" type="curve" smooth="yes"/>
      <point x="383" y="355"/>
      <point x="383" y="359"/>
      <point x="385" y="364" type="curve" smooth="yes"/>
      <point x="391" y="384"/>
      <point x="399" y="406"/>
      <point x="406" y="426" type="curve" smooth="yes"/>
      <point x="413" y="447"/>
      <point x="422" y="472"/>
      <point x="430" y="494" type="curve"/>
      <point x="445" y="536" type="line"/>
      <point x="448" y="545"/>
      <point x="450" y="553"/>
      <point x="453" y="561" type="curve" smooth="yes"/>
      <point x="457" y="572"/>
      <point x="461" y="586"/>
      <point x="464" y="596" type="curve" smooth="yes"/>
      <point x="479" y="644"/>
      <point x="486" y="668"/>
      <point x="490" y="682" type="curve"/>
      <point x="490" y="683"/>
      <point x="491" y="684"/>
      <point x="491" y="685" type="curve" smooth="yes"/>
      <point x="492" y="690"/>
      <point x="488" y="694"/>
      <point x="487" y="693" type="curve" smooth="yes"/>
      <point x="488" y="696"/>
      <point x="495" y="701"/>
      <point x="495" y="701" type="curve"/>
      <point x="467" y="715"/>
      <point x="437" y="714"/>
      <point x="407" y="713" type="curve" smooth="yes"/>
      <point x="387" y="712"/>
      <point x="367" y="711"/>
      <point x="336" y="717" type="curve"/>
      <point x="316" y="638"/>
      <point x="288" y="559"/>
      <point x="285" y="554" type="curve"/>
      <point x="280" y="540"/>
      <point x="276" y="527"/>
      <point x="272" y="513" type="curve"/>
      <point x="272" y="506"/>
      <point x="268" y="498"/>
      <point x="266" y="491" type="curve" smooth="yes"/>
      <point x="261" y="476"/>
      <point x="255" y="459"/>
      <point x="248" y="440" type="curve" smooth="yes"/>
      <point x="166" y="220"/>
      <point x="156" y="191"/>
      <point x="153" y="180" type="curve"/>
      <point x="139" y="145"/>
      <point x="128" y="113"/>
      <point x="120" y="88" type="curve"/>
      <point x="120" y="86" type="line"/>
      <point x="121" y="86" type="line"/>
      <point x="116" y="77"/>
      <point x="115" y="73"/>
      <point x="114" y="70" type="curve" smooth="yes"/>
      <point x="102" y="40"/>
      <point x="87" y="-6"/>
      <point x="110" y="-6" type="curve" smooth="yes"/>
      <point x="156" y="-5"/>
      <point x="184" y="-5"/>
      <point x="202" y="-5" type="curve" smooth="yes"/>
      <point x="221" y="-5"/>
      <point x="229" y="-5"/>
      <point x="249" y="0" type="curve"/>
      <point x="252" y="3" type="line"/>
    </contour>
    <contour>
      <point x="4" y="488" type="line"/>
      <point x="4" y="486"/>
      <point x="5" y="484"/>
      <point x="5" y="482" type="curve" smooth="yes"/>
      <point x="7" y="472"/>
      <point x="8" y="462"/>
      <point x="9" y="453" type="curve" smooth="yes"/>
      <point x="10" y="445"/>
      <point x="11" y="436"/>
      <point x="12" y="427" type="curve"/>
      <point x="19" y="397"/>
      <point x="30" y="377"/>
      <point x="64" y="354" type="curve"/>
      <point x="85" y="343"/>
      <point x="105" y="338"/>
      <point x="123" y="337" type="curve" smooth="yes"/>
      <point x="227" y="332"/>
      <point x="261" y="444"/>
      <point x="258" y="521" type="curve"/>
      <point x="259" y="541"/>
      <point x="257" y="559"/>
      <point x="254" y="580" type="curve"/>
      <point x="243" y="635"/>
      <point x="204" y="691"/>
      <point x="126" y="688" type="curve" smooth="yes"/>
      <point x="89" y="687"/>
      <point x="60" y="671"/>
      <point x="40" y="648" type="curve" smooth="yes"/>
      <point x="16" y="621"/>
      <point x="11" y="589"/>
      <point x="7" y="558" type="curve" smooth="yes"/>
      <point x="6" y="555"/>
      <point x="6" y="550"/>
      <point x="6" y="547" type="curve" smooth="yes"/>
      <point x="6" y="544"/>
      <point x="5" y="541"/>
      <point x="5" y="538" type="curve"/>
      <point x="3" y="513" type="line"/>
    </contour>
    <contour>
      <point x="112" y="552" type="line"/>
      <point x="111" y="566"/>
      <point x="112" y="584"/>
      <point x="115" y="590" type="curve"/>
      <point x="115" y="589" type="line"/>
      <point x="117" y="591"/>
      <point x="124" y="598"/>
      <point x="126" y="601" type="curve"/>
      <point x="130" y="602"/>
      <point x="132" y="601"/>
      <point x="134" y="598" type="curve"/>
      <point x="128" y="592"/>
      <point x="128" y="589"/>
      <point x="140" y="589" type="curve"/>
      <point x="146" y="563"/>
      <point x="147" y="537"/>
      <point x="147" y="509" type="curve" smooth="yes"/>
      <point x="147" y="497"/>
      <point x="147" y="485"/>
      <point x="146" y="473" type="curve"/>
      <point x="146" y="472"/>
      <point x="145" y="471"/>
      <point x="145" y="470" type="curve"/>
      <point x="145" y="462" type="line"/>
      <point x="145" y="461"/>
      <point x="144" y="460"/>
      <point x="144" y="459" type="curve"/>
      <point x="144" y="460" type="line"/>
      <point x="141" y="444"/>
      <point x="139" y="429"/>
      <point x="131" y="427" type="curve" smooth="yes"/>
      <point x="125" y="425"/>
      <point x="119" y="432"/>
      <point x="119" y="442" type="curve"/>
      <point x="118" y="448"/>
      <point x="118" y="454"/>
      <point x="118" y="460" type="curve"/>
      <point x="118" y="469" type="line"/>
      <point x="118" y="472"/>
      <point x="117" y="475"/>
      <point x="117" y="479" type="curve"/>
    </contour>
    <contour>
      <point x="347" y="171" type="line"/>
      <point x="347" y="169"/>
      <point x="348" y="167"/>
      <point x="348" y="165" type="curve" smooth="yes"/>
      <point x="350" y="155"/>
      <point x="351" y="145"/>
      <point x="352" y="136" type="curve" smooth="yes"/>
      <point x="353" y="128"/>
      <point x="354" y="119"/>
      <point x="355" y="110" type="curve"/>
      <point x="362" y="80"/>
      <point x="373" y="60"/>
      <point x="407" y="37" type="curve"/>
      <point x="428" y="26"/>
      <point x="448" y="21"/>
      <point x="466" y="20" type="curve" smooth="yes"/>
      <point x="570" y="15"/>
      <point x="604" y="127"/>
      <point x="601" y="204" type="curve"/>
      <point x="602" y="224"/>
      <point x="600" y="242"/>
      <point x="597" y="263" type="curve"/>
      <point x="586" y="318"/>
      <point x="547" y="374"/>
      <point x="469" y="371" type="curve" smooth="yes"/>
      <point x="432" y="370"/>
      <point x="403" y="354"/>
      <point x="383" y="331" type="curve" smooth="yes"/>
      <point x="359" y="304"/>
      <point x="354" y="272"/>
      <point x="350" y="241" type="curve" smooth="yes"/>
      <point x="349" y="238"/>
      <point x="349" y="233"/>
      <point x="349" y="230" type="curve" smooth="yes"/>
      <point x="349" y="227"/>
      <point x="348" y="224"/>
      <point x="348" y="221" type="curve"/>
      <point x="346" y="196" type="line"/>
    </contour>
    <contour>
      <point x="455" y="235" type="line"/>
      <point x="454" y="249"/>
      <point x="455" y="267"/>
      <point x="458" y="273" type="curve"/>
      <point x="458" y="272" type="line"/>
      <point x="460" y="274"/>
      <point x="467" y="281"/>
      <point x="469" y="284" type="curve"/>
      <point x="473" y="285"/>
      <point x="475" y="284"/>
      <point x="477" y="281" type="curve"/>
      <point x="471" y="275"/>
      <point x="471" y="272"/>
      <point x="483" y="272" type="curve"/>
      <point x="489" y="246"/>
      <point x="490" y="220"/>
      <point x="490" y="192" type="curve" smooth="yes"/>
      <point x="490" y="180"/>
      <point x="490" y="168"/>
      <point x="489" y="156" type="curve"/>
      <point x="489" y="155"/>
      <point x="488" y="154"/>
      <point x="488" y="153" type="curve"/>
      <point x="488" y="145" type="line"/>
      <point x="488" y="144"/>
      <point x="487" y="143"/>
      <point x="487" y="142" type="curve"/>
      <point x="487" y="143" type="line"/>
      <point x="484" y="127"/>
      <point x="482" y="112"/>
      <point x="474" y="110" type="curve" smooth="yes"/>
      <point x="468" y="108"/>
      <point x="462" y="115"/>
      <point x="462" y="125" type="curve"/>
      <point x="461" y="131"/>
      <point x="461" y="137"/>
      <point x="461" y="143" type="curve"/>
      <point x="461" y="152" type="line"/>
      <point x="461" y="155"/>
      <point x="460" y="158"/>
      <point x="460" y="162" type="curve"/>
    </contour>
  </outline>
</glyph>
<glyph name="ampersand" format="1">
  <advance width="565"/>
  <unicode hex="0026"/>
  <outline>
    <contour>
      <point x="568" y="33" type="line"/>
      <point x="568" y="44" type="line"/>
      <point x="562" y="74"/>
      <point x="540" y="102"/>
      <point x="520" y="126" type="curve"/>
      <point x="518" y="128" type="line"/>
      <point x="515" y="131"/>
      <point x="515" y="132"/>
      <point x="514" y="133" type="curve"/>
      <point x="508" y="139" type="line"/>
      <point x="506" y="141"/>
      <point x="505" y="144"/>
      <point x="503" y="146" type="curve"/>
      <point x="503" y="145" type="line"/>
      <point x="496" y="153"/>
      <point x="492" y="159"/>
      <point x="492" y="165" type="curve" smooth="yes"/>
      <point x="492" y="168"/>
      <point x="496" y="178"/>
      <point x="500" y="187" type="curve" smooth="yes"/>
      <point x="501" y="188"/>
      <point x="500" y="189"/>
      <point x="501" y="190" type="curve"/>
      <point x="536" y="248"/>
      <point x="556" y="313"/>
      <point x="556" y="351" type="curve" smooth="yes"/>
      <point x="556" y="386"/>
      <point x="536" y="393"/>
      <point x="504" y="393" type="curve"/>
      <point x="433" y="393" type="line"/>
      <point x="378" y="393"/>
      <point x="363" y="370"/>
      <point x="360" y="343" type="curve"/>
      <point x="360" y="330" type="line"/>
      <point x="337" y="369"/>
      <point x="337" y="392"/>
      <point x="338" y="401" type="curve" smooth="yes"/>
      <point x="338" y="406"/>
      <point x="340" y="411"/>
      <point x="344" y="417" type="curve" smooth="yes"/>
      <point x="348" y="425"/>
      <point x="353" y="433"/>
      <point x="358" y="439" type="curve"/>
      <point x="358" y="440"/>
      <point x="359" y="442"/>
      <point x="361" y="445" type="curve" smooth="yes"/>
      <point x="362" y="447"/>
      <point x="364" y="448"/>
      <point x="365" y="450" type="curve"/>
      <point x="365" y="449" type="line"/>
      <point x="371" y="458" type="line"/>
      <point x="395" y="497"/>
      <point x="421" y="535"/>
      <point x="421" y="579" type="curve" smooth="yes"/>
      <point x="421" y="662"/>
      <point x="345" y="736"/>
      <point x="234" y="736" type="curve" smooth="yes"/>
      <point x="131" y="736"/>
      <point x="26" y="668"/>
      <point x="26" y="580" type="curve" smooth="yes"/>
      <point x="26" y="524"/>
      <point x="70" y="455"/>
      <point x="103" y="410" type="curve"/>
      <point x="52" y="360"/>
      <point x="3" y="288"/>
      <point x="3" y="220" type="curve" smooth="yes"/>
      <point x="3" y="111"/>
      <point x="77" y="-6"/>
      <point x="219" y="-6" type="curve"/>
      <point x="272" y="-3"/>
      <point x="320" y="4"/>
      <point x="359" y="27" type="curve"/>
      <point x="395" y="-5"/>
      <point x="421" y="-6"/>
      <point x="471" y="-6" type="curve"/>
      <point x="476" y="-6" type="line"/>
      <point x="514" y="-6"/>
      <point x="558" y="-5"/>
      <point x="567" y="28" type="curve"/>
    </contour>
    <contour>
      <point x="234" y="613" type="curve"/>
      <point x="237" y="613"/>
      <point x="239" y="606"/>
      <point x="239" y="597" type="curve" smooth="yes"/>
      <point x="239" y="550"/>
      <point x="234" y="508"/>
      <point x="219" y="506" type="curve" smooth="yes"/>
      <point x="214" y="505"/>
      <point x="206" y="554"/>
      <point x="206" y="577" type="curve" smooth="yes"/>
      <point x="206" y="601"/>
      <point x="216" y="613"/>
    </contour>
    <contour>
      <point x="254" y="146" type="line"/>
      <point x="248" y="145"/>
      <point x="241" y="144"/>
      <point x="235" y="144" type="curve" smooth="yes"/>
      <point x="198" y="144"/>
      <point x="188" y="175"/>
      <point x="185" y="201" type="curve"/>
      <point x="180" y="230"/>
      <point x="190" y="280"/>
      <point x="209" y="282" type="curve"/>
      <point x="263" y="290"/>
      <point x="276" y="245"/>
      <point x="277" y="209" type="curve"/>
      <point x="277" y="209"/>
      <point x="274" y="180"/>
      <point x="273" y="166" type="curve"/>
      <point x="272" y="162"/>
      <point x="272" y="156"/>
      <point x="272" y="154" type="curve" smooth="yes"/>
      <point x="272" y="153"/>
      <point x="261" y="149"/>
      <point x="256" y="147" type="curve"/>
      <point x="258" y="147" type="line"/>
    </contour>
  </outline>
</glyph>
<glyph name="quotesingle" format="1">
  <advance width="185"/>
  <unicode hex="0027"/>
  <outline>
    <contour>
      <point x="24" y="709" type="line"/>
      <point x="22" y="659"/>
      <point x="21" y="623"/>
      <point x="21" y="588" type="curve"/>
      <point x="21" y="551" type="line"/>
      <point x="21" y="515" type="line"/>
      <point x="21" y="499"/>
      <point x="22" y="478"/>
      <point x="22" y="457" type="curve"/>
      <point x="37" y="454"/>
      <point x="53" y="454"/>
      <point x="68" y="454" type="curve" smooth="yes"/>
      <point x="81" y="454"/>
      <point x="100" y="454"/>
      <point x="112" y="455" type="curve"/>
      <point x="165" y="455" type="line"/>
      <point x="165" y="474" type="line"/>
      <point x="165" y="489"/>
      <point x="164" y="513"/>
      <point x="164" y="541" type="curve" smooth="yes"/>
      <point x="163" y="602"/>
      <point x="163" y="678"/>
      <point x="163" y="705" type="curve"/>
      <point x="158" y="713"/>
      <point x="144" y="716"/>
      <point x="127" y="716" type="curve" smooth="yes"/>
      <point x="109" y="716"/>
      <point x="85" y="714"/>
      <point x="68" y="712" type="curve" smooth="yes"/>
      <point x="64" y="712"/>
      <point x="62" y="711"/>
      <point x="58" y="711" type="curve"/>
      <point x="40" y="709" type="line"/>
    </contour>
  </outline>
</glyph>
<glyph name="parenleft" format="1">
  <advance width="314"/>
  <unicode hex="0028"/>
  <outline>
    <contour>
      <point x="99" y="37" type="curve"/>
      <point x="115" y="24"/>
      <point x="135" y="14"/>
      <point x="158" y="6" type="curve" smooth="yes"/>
      <point x="180" y="-1"/>
      <point x="204" y="-4"/>
      <point x="228" y="-5" type="curve"/>
      <point x="274" y="-5"/>
      <point x="291" y="-7"/>
      <point x="304" y="-1" type="curve"/>
      <point x="305" y="15"/>
      <point x="303" y="46"/>
      <point x="303" y="66" type="curve" smooth="yes"/>
      <point x="303" y="85"/>
      <point x="303" y="105"/>
      <point x="305" y="123" type="curve"/>
      <point x="305" y="134" type="line"/>
      <point x="262" y="135"/>
      <point x="218" y="164"/>
      <point x="200" y="205" type="curve"/>
      <point x="200" y="204" type="line"/>
      <point x="192" y="234"/>
      <point x="190" y="267"/>
      <point x="190" y="298" type="curve"/>
      <point x="193" y="411"/>
      <point x="196" y="441"/>
      <point x="203" y="474" type="curve" smooth="yes"/>
      <point x="212" y="527"/>
      <point x="241" y="568"/>
      <point x="301" y="579" type="curve"/>
      <point x="301" y="596" type="line"/>
      <point x="301" y="600"/>
      <point x="302" y="606"/>
      <point x="302" y="610" type="curve" smooth="yes"/>
      <point x="303" y="627"/>
      <point x="303" y="644"/>
      <point x="303" y="661" type="curve" smooth="yes"/>
      <point x="303" y="677"/>
      <point x="303" y="693"/>
      <point x="301" y="707" type="curve"/>
      <point x="270" y="713"/>
      <point x="238" y="715"/>
      <point x="212" y="716" type="curve"/>
      <point x="148" y="715"/>
      <point x="84" y="683"/>
      <point x="49" y="623" type="curve"/>
      <point x="26" y="580"/>
      <point x="24" y="531"/>
      <point x="24" y="488" type="curve" smooth="yes"/>
      <point x="24" y="473"/>
      <point x="24" y="458"/>
      <point x="23" y="444" type="curve"/>
      <point x="23" y="420" type="line"/>
      <point x="24" y="361"/>
      <point x="21" y="294"/>
      <point x="18" y="231" type="curve" smooth="yes"/>
      <point x="18" y="176"/>
      <point x="30" y="128"/>
      <point x="55" y="81" type="curve"/>
      <point x="54" y="85"/>
      <point x="71" y="56"/>
    </contour>
  </outline>
</glyph>
<glyph name="parenright" format="1">
  <advance width="313"/>
  <unicode hex="0029"/>
  <outline>
    <contour>
      <point x="215" y="37" type="curve"/>
      <point x="199" y="24"/>
      <point x="179" y="14"/>
      <point x="156" y="6" type="curve" smooth="yes"/>
      <point x="134" y="-1"/>
      <point x="110" y="-4"/>
      <point x="86" y="-5" type="curve"/>
      <point x="40" y="-5"/>
      <point x="23" y="-7"/>
      <point x="10" y="-1" type="curve"/>
      <point x="9" y="15"/>
      <point x="11" y="46"/>
      <point x="11" y="66" type="curve" smooth="yes"/>
      <point x="11" y="85"/>
      <point x="11" y="105"/>
      <point x="9" y="123" type="curve"/>
      <point x="9" y="134" type="line"/>
      <point x="52" y="135"/>
      <point x="96" y="164"/>
      <point x="114" y="205" type="curve"/>
      <point x="114" y="204" type="line"/>
      <point x="122" y="234"/>
      <point x="124" y="267"/>
      <point x="124" y="298" type="curve"/>
      <point x="121" y="411"/>
      <point x="118" y="441"/>
      <point x="111" y="474" type="curve"/>
      <point x="102" y="527"/>
      <point x="73" y="568"/>
      <point x="13" y="579" type="curve"/>
      <point x="13" y="596" type="line" smooth="yes"/>
      <point x="13" y="600"/>
      <point x="12" y="606"/>
      <point x="12" y="610" type="curve" smooth="yes"/>
      <point x="11" y="627"/>
      <point x="11" y="644"/>
      <point x="11" y="661" type="curve" smooth="yes"/>
      <point x="11" y="677"/>
      <point x="11" y="693"/>
      <point x="13" y="707" type="curve"/>
      <point x="44" y="713"/>
      <point x="76" y="715"/>
      <point x="102" y="716" type="curve"/>
      <point x="166" y="715"/>
      <point x="230" y="683"/>
      <point x="265" y="623" type="curve"/>
      <point x="288" y="580"/>
      <point x="290" y="531"/>
      <point x="290" y="488" type="curve" smooth="yes"/>
      <point x="290" y="473"/>
      <point x="290" y="458"/>
      <point x="291" y="444" type="curve"/>
      <point x="291" y="420" type="line" smooth="yes"/>
      <point x="290" y="361"/>
      <point x="293" y="294"/>
      <point x="296" y="231" type="curve"/>
      <point x="296" y="176"/>
      <point x="284" y="128"/>
      <point x="259" y="81" type="curve"/>
      <point x="260" y="85"/>
      <point x="243" y="56"/>
    </contour>
  </outline>
</glyph>
<glyph name="asterisk" format="1">
  <advance width="367"/>
  <unicode hex="002A"/>
  <outline>
    <contour>
      <point x="337" y="417" type="line"/>
      <point x="368" y="448" type="line"/>
      <point x="364" y="450"/>
      <point x="347" y="467"/>
      <point x="333" y="484" type="curve" smooth="yes"/>
      <point x="330" y="488"/>
      <point x="325" y="495"/>
      <point x="322" y="498" type="curve" smooth="yes"/>
      <point x="309" y="515"/>
      <point x="293" y="531"/>
      <point x="281" y="534" type="curve"/>
      <point x="280" y="524" type="line"/>
      <point x="291" y="524" type="line"/>
      <point x="297" y="538"/>
      <point x="307" y="551"/>
      <point x="318" y="561" type="curve" smooth="yes"/>
      <point x="337" y="579"/>
      <point x="357" y="598"/>
      <point x="359" y="610" type="curve"/>
      <point x="344" y="626" type="line"/>
      <point x="323" y="647"/>
      <point x="272" y="699"/>
      <point x="272" y="699" type="curve"/>
      <point x="272" y="692" type="line"/>
      <point x="281" y="704"/>
      <point x="215" y="662"/>
      <point x="187" y="640" type="curve"/>
      <point x="185" y="642"/>
      <point x="181" y="645"/>
      <point x="177" y="648" type="curve"/>
      <point x="178" y="648" type="line"/>
      <point x="175" y="651"/>
      <point x="169" y="655"/>
      <point x="164" y="660" type="curve" smooth="yes"/>
      <point x="144" y="679"/>
      <point x="119" y="701"/>
      <point x="102" y="704" type="curve"/>
      <point x="86" y="692"/>
      <point x="68" y="674"/>
      <point x="52" y="658" type="curve" smooth="yes"/>
      <point x="44" y="649"/>
      <point x="17" y="622"/>
      <point x="14" y="618" type="curve"/>
      <point x="8" y="614" type="line"/>
      <point x="12" y="605"/>
      <point x="28" y="582"/>
      <point x="40" y="569" type="curve" smooth="yes"/>
      <point x="43" y="566"/>
      <point x="45" y="562"/>
      <point x="48" y="559" type="curve"/>
      <point x="48" y="560" type="line"/>
      <point x="59" y="548"/>
      <point x="71" y="533"/>
      <point x="71" y="533" type="curve"/>
      <point x="76" y="526"/>
      <point x="77" y="525"/>
      <point x="78" y="526" type="curve" smooth="yes"/>
      <point x="70" y="517"/>
      <point x="59" y="505"/>
      <point x="49" y="495" type="curve" smooth="yes"/>
      <point x="30" y="475"/>
      <point x="11" y="455"/>
      <point x="6" y="445" type="curve"/>
      <point x="28" y="426"/>
      <point x="51" y="406"/>
      <point x="74" y="384" type="curve"/>
      <point x="73" y="384" type="line"/>
      <point x="80" y="377" type="line"/>
      <point x="84" y="374"/>
      <point x="90" y="368"/>
      <point x="96" y="362" type="curve"/>
      <point x="119" y="362"/>
      <point x="120" y="363"/>
      <point x="124" y="367" type="curve"/>
      <point x="123" y="367" type="line"/>
      <point x="138" y="379"/>
      <point x="147" y="387"/>
      <point x="153" y="393" type="curve" smooth="yes"/>
      <point x="155" y="395"/>
      <point x="158" y="397"/>
      <point x="160" y="399" type="curve"/>
      <point x="179" y="418" type="line"/>
      <point x="174" y="424"/>
      <point x="198" y="400"/>
      <point x="209" y="389" type="curve"/>
      <point x="217" y="381" type="line"/>
      <point x="220" y="380"/>
      <point x="241" y="355"/>
      <point x="247" y="348" type="curve"/>
    </contour>
  </outline>
</glyph>
<glyph name="hyphen" format="1">
  <advance width="521"/>
  <unicode hex="002D"/>
  <outline>
    <contour>
      <point x="36" y="197" type="line"/>
      <point x="46" y="197"/>
      <point x="153" y="195"/>
      <point x="260" y="193" type="curve" smooth="yes"/>
      <point x="367" y="191"/>
      <point x="489" y="190"/>
      <point x="500" y="190" type="curve"/>
      <point x="496" y="218"/>
      <point x="495" y="242"/>
      <point x="495" y="264" type="curve"/>
      <point x="495" y="284" type="line"/>
      <point x="495" y="290"/>
      <point x="496" y="301"/>
      <point x="496" y="306" type="curve" smooth="yes"/>
      <point x="497" y="325"/>
      <point x="497" y="348"/>
      <point x="497" y="367" type="curve"/>
      <point x="24" y="367" type="line"/>
      <point x="24" y="356" type="line"/>
      <point x="24" y="350"/>
      <point x="23" y="332"/>
      <point x="23" y="323" type="curve" smooth="yes"/>
      <point x="22" y="282"/>
      <point x="21" y="218"/>
      <point x="21" y="197" type="curve"/>
    </contour>
  </outline>
</glyph>
<glyph name="period" format="1">
  <advance width="189"/>
  <unicode hex="002E"/>
  <outline>
    <contour>
      <point x="164" y="-5" type="line"/>
      <point x="165" y="5"/>
      <point x="168" y="42"/>
      <point x="170" y="70" type="curve" smooth="yes"/>
      <point x="171" y="82"/>
      <point x="171" y="93"/>
      <point x="172" y="102" type="curve" smooth="yes"/>
      <point x="173" y="113"/>
      <point x="169" y="123"/>
      <point x="169" y="123" type="curve"/>
      <point x="159" y="128"/>
      <point x="131" y="130"/>
      <point x="101" y="130" type="curve" smooth="yes"/>
      <point x="71" y="130"/>
      <point x="38" y="127"/>
      <point x="18" y="118" type="curve"/>
      <point x="18" y="108" type="line"/>
      <point x="18" y="105"/>
      <point x="17" y="101"/>
      <point x="17" y="96" type="curve"/>
      <point x="17" y="76" type="line"/>
      <point x="17" y="68"/>
      <point x="16" y="60"/>
      <point x="16" y="52" type="curve" smooth="yes"/>
      <point x="16" y="34"/>
      <point x="17" y="14"/>
      <point x="20" y="-4" type="curve"/>
    </contour>
  </outline>
</glyph>
<glyph name="one" format="1">
  <advance width="366"/>
  <unicode hex="0031"/>
  <outline>
    <contour>
      <point x="329" y="18" type="curve"/>
      <point x="328" y="41"/>
      <point x="328" y="65"/>
      <point x="328" y="88" type="curve" smooth="yes"/>
      <point x="328" y="164"/>
      <point x="330" y="240"/>
      <point x="333" y="315" type="curve" smooth="yes"/>
      <point x="336" y="390"/>
      <point x="339" y="465"/>
      <point x="339" y="542" type="curve" smooth="yes"/>
      <point x="339" y="598"/>
      <point x="338" y="657"/>
      <point x="334" y="714" type="curve"/>
      <point x="289" y="718"/>
      <point x="251" y="719"/>
      <point x="214" y="719" type="curve" smooth="yes"/>
      <point x="190" y="719"/>
      <point x="153" y="718"/>
      <point x="128" y="717" type="curve"/>
      <point x="116" y="717" type="line"/>
      <point x="107" y="708"/>
      <point x="-9" y="532"/>
      <point x="-13" y="489" type="curve"/>
      <point x="-13" y="475"/>
      <point x="110" y="447"/>
      <point x="123" y="447" type="curve" smooth="yes"/>
      <point x="135" y="447"/>
      <point x="145" y="455"/>
      <point x="152" y="464" type="curve"/>
      <point x="152" y="402"/>
      <point x="149" y="358"/>
      <point x="146" y="297" type="curve" smooth="yes"/>
      <point x="143" y="233"/>
      <point x="140" y="169"/>
      <point x="140" y="105" type="curve"/>
      <point x="140" y="5" type="line"/>
      <point x="173" y="-1"/>
      <point x="219" y="-5"/>
      <point x="253" y="-5" type="curve" smooth="yes"/>
      <point x="284" y="-5"/>
      <point x="329" y="-2"/>
    </contour>
  </outline>
</glyph>
<glyph name="three" format="1">
  <advance width="492"/>
  <unicode hex="0033"/>
  <outline>
    <contour>
      <point x="59" y="40" type="curve"/>
      <point x="62" y="37"/>
      <point x="78" y="24"/>
      <point x="113" y="13" type="curve"/>
      <point x="112" y="13" type="line"/>
      <point x="115" y="12"/>
      <point x="117" y="11"/>
      <point x="120" y="10" type="curve" smooth="yes"/>
      <point x="123" y="9"/>
      <point x="126" y="9"/>
      <point x="129" y="8" type="curve" smooth="yes"/>
      <point x="140" y="4"/>
      <point x="154" y="1"/>
      <point x="169" y="-1" type="curve" smooth="yes"/>
      <point x="191" y="-4"/>
      <point x="216" y="-6"/>
      <point x="242" y="-6" type="curve" smooth="yes"/>
      <point x="277" y="-6"/>
      <point x="312" y="-3"/>
      <point x="340" y="6" type="curve" smooth="yes"/>
      <point x="392" y="23"/>
      <point x="430" y="60"/>
      <point x="449" y="102" type="curve" smooth="yes"/>
      <point x="463" y="133"/>
      <point x="465" y="164"/>
      <point x="466" y="193" type="curve" smooth="yes"/>
      <point x="466" y="201"/>
      <point x="466" y="210"/>
      <point x="467" y="219" type="curve"/>
      <point x="469" y="284"/>
      <point x="471" y="352"/>
      <point x="471" y="419" type="curve" smooth="yes"/>
      <point x="471" y="455"/>
      <point x="470" y="512"/>
      <point x="469" y="551" type="curve" smooth="yes"/>
      <point x="468" y="571"/>
      <point x="463" y="608"/>
      <point x="453" y="626" type="curve"/>
      <point x="418" y="679"/>
      <point x="333" y="714"/>
      <point x="248" y="714" type="curve" smooth="yes"/>
      <point x="147" y="714"/>
      <point x="44" y="673"/>
      <point x="17" y="583" type="curve"/>
      <point x="17" y="584" type="line"/>
      <point x="11" y="564"/>
      <point x="12" y="546"/>
      <point x="12" y="526" type="curve"/>
      <point x="13" y="503"/>
      <point x="13" y="493"/>
      <point x="13" y="484" type="curve"/>
      <point x="79" y="482" type="line"/>
      <point x="112" y="482"/>
      <point x="151" y="482"/>
      <point x="174" y="486" type="curve"/>
      <point x="186" y="517"/>
      <point x="224" y="543"/>
      <point x="253" y="543" type="curve" smooth="yes"/>
      <point x="272" y="543"/>
      <point x="288" y="529"/>
      <point x="289" y="495" type="curve"/>
      <point x="293" y="441"/>
      <point x="252" y="440"/>
      <point x="215" y="439" type="curve" smooth="yes"/>
      <point x="192" y="439"/>
      <point x="170" y="438"/>
      <point x="149" y="429" type="curve"/>
      <point x="153" y="397"/>
      <point x="147" y="366"/>
      <point x="147" y="336" type="curve" smooth="yes"/>
      <point x="147" y="318"/>
      <point x="150" y="300"/>
      <point x="160" y="281" type="curve"/>
      <point x="180" y="286"/>
      <point x="200" y="289"/>
      <point x="213" y="289" type="curve" smooth="yes"/>
      <point x="231" y="289"/>
      <point x="255" y="281"/>
      <point x="271" y="272" type="curve"/>
      <point x="281" y="262"/>
      <point x="290" y="243"/>
      <point x="290" y="224" type="curve" smooth="yes"/>
      <point x="290" y="212"/>
      <point x="287" y="199"/>
      <point x="283" y="191" type="curve"/>
      <point x="283" y="192" type="line"/>
      <point x="272" y="176"/>
      <point x="260" y="169"/>
      <point x="248" y="169" type="curve" smooth="yes"/>
      <point x="218" y="169"/>
      <point x="186" y="200"/>
      <point x="175" y="231" type="curve"/>
      <point x="163" y="232"/>
      <point x="154" y="233"/>
      <point x="139" y="233" type="curve" smooth="yes"/>
      <point x="121" y="233"/>
      <point x="105" y="231"/>
      <point x="92" y="229" type="curve" smooth="yes"/>
      <point x="66" y="229"/>
      <point x="41" y="223"/>
      <point x="15" y="225" type="curve"/>
      <point x="15" y="209"/>
      <point x="16" y="180"/>
      <point x="17" y="165" type="curve"/>
      <point x="17" y="161" type="line"/>
      <point x="18" y="147"/>
      <point x="19" y="128"/>
      <point x="22" y="114" type="curve"/>
      <point x="25" y="89"/>
      <point x="36" y="63"/>
    </contour>
  </outline>
</glyph>
<glyph name="four" format="1">
  <advance width="469"/>
  <unicode hex="0034"/>
  <outline>
    <contour>
      <point x="399" y="361" type="line"/>
      <point x="399" y="438"/>
      <point x="404" y="625"/>
      <point x="406" y="685" type="curve" smooth="yes"/>
      <point x="406" y="693"/>
      <point x="407" y="702"/>
      <point x="407" y="705" type="curve"/>
      <point x="389" y="710"/>
      <point x="378" y="710"/>
      <point x="361" y="710" type="curve" smooth="yes"/>
      <point x="311" y="710"/>
      <point x="271" y="707"/>
      <point x="222" y="707" type="curve"/>
      <point x="93" y="516"/>
      <point x="65" y="450"/>
      <point x="-1" y="338" type="curve"/>
      <point x="-3" y="292"/>
      <point x="-5" y="239"/>
      <point x="9" y="196" type="curve"/>
      <point x="16" y="186"/>
      <point x="76" y="186"/>
      <point x="135" y="186" type="curve" smooth="yes"/>
      <point x="181" y="186"/>
      <point x="223" y="190"/>
      <point x="223" y="189" type="curve"/>
      <point x="221" y="143"/>
      <point x="207" y="3"/>
      <point x="217" y="-8" type="curve"/>
      <point x="287" y="-8" type="line"/>
      <point x="345" y="-8"/>
      <point x="375" y="-8"/>
      <point x="387" y="5" type="curve"/>
      <point x="389" y="12"/>
      <point x="396" y="115"/>
      <point x="399" y="160" type="curve" smooth="yes"/>
      <point x="400" y="173"/>
      <point x="397" y="176"/>
      <point x="397" y="175" type="curve"/>
      <point x="453" y="176"/>
      <point x="415" y="173"/>
      <point x="462" y="173" type="curve"/>
      <point x="467" y="333" type="line"/>
      <point x="436" y="333"/>
      <point x="416" y="339"/>
      <point x="399" y="336" type="curve"/>
    </contour>
    <contour>
      <point x="246" y="331" type="line"/>
      <point x="206" y="331"/>
      <point x="151" y="334"/>
      <point x="151" y="334" type="curve"/>
      <point x="167" y="332"/>
      <point x="229" y="483"/>
      <point x="253" y="524" type="curve"/>
    </contour>
  </outline>
</glyph>
<glyph name="five" format="1">
  <advance width="503"/>
  <unicode hex="0035"/>
  <outline>
    <contour>
      <point x="29" y="221" type="line"/>
      <point x="24" y="194"/>
      <point x="22" y="172"/>
      <point x="22" y="156" type="curve" smooth="yes"/>
      <point x="20" y="40"/>
      <point x="127" y="-14"/>
      <point x="239" y="-14" type="curve" smooth="yes"/>
      <point x="349" y="-14"/>
      <point x="464" y="38"/>
      <point x="485" y="133" type="curve"/>
      <point x="489" y="162"/>
      <point x="491" y="191"/>
      <point x="491" y="222" type="curve" smooth="yes"/>
      <point x="491" y="354"/>
      <point x="437" y="486"/>
      <point x="303" y="512" type="curve" smooth="yes"/>
      <point x="290" y="514"/>
      <point x="271" y="515"/>
      <point x="256" y="516" type="curve" smooth="yes"/>
      <point x="204" y="520"/>
      <point x="197" y="502"/>
      <point x="202" y="547" type="curve"/>
      <point x="243" y="542"/>
      <point x="440" y="545"/>
      <point x="475" y="551" type="curve"/>
      <point x="475" y="564" type="line"/>
      <point x="475" y="572"/>
      <point x="475" y="583"/>
      <point x="476" y="596" type="curve" smooth="yes"/>
      <point x="478" y="638"/>
      <point x="482" y="698"/>
      <point x="476" y="704" type="curve"/>
      <point x="460" y="708"/>
      <point x="448" y="708"/>
      <point x="428" y="708" type="curve" smooth="yes"/>
      <point x="351" y="708"/>
      <point x="171" y="704"/>
      <point x="85" y="702" type="curve" smooth="yes"/>
      <point x="58" y="701"/>
      <point x="25" y="701"/>
      <point x="22" y="701" type="curve"/>
      <point x="22" y="656" type="line"/>
      <point x="22" y="581" type="line"/>
      <point x="22" y="529" type="line"/>
      <point x="23" y="474"/>
      <point x="23" y="416"/>
      <point x="23" y="348" type="curve"/>
      <point x="47" y="344"/>
      <point x="59" y="344"/>
      <point x="71" y="344" type="curve" smooth="yes"/>
      <point x="85" y="344"/>
      <point x="112" y="345"/>
      <point x="129" y="346" type="curve" smooth="yes"/>
      <point x="137" y="346"/>
      <point x="145" y="347"/>
      <point x="153" y="347" type="curve" smooth="yes"/>
      <point x="169" y="348"/>
      <point x="186" y="349"/>
      <point x="202" y="349" type="curve" smooth="yes"/>
      <point x="219" y="349"/>
      <point x="236" y="348"/>
      <point x="253" y="345" type="curve"/>
      <point x="252" y="345" type="line"/>
      <point x="283" y="334"/>
      <point x="302" y="293"/>
      <point x="302" y="251" type="curve" smooth="yes"/>
      <point x="302" y="210"/>
      <point x="284" y="170"/>
      <point x="246" y="163" type="curve"/>
      <point x="225" y="158"/>
      <point x="206" y="173"/>
      <point x="201" y="217" type="curve"/>
      <point x="201" y="216" type="line"/>
      <point x="200" y="225" type="line"/>
    </contour>
  </outline>
</glyph>
<glyph name="six" format="1">
  <advance width="503"/>
  <unicode hex="0036"/>
  <outline>
    <contour>
      <point x="494" y="227" type="line"/>
      <point x="490" y="256"/>
      <point x="476" y="293"/>
      <point x="456" y="314" type="curve" smooth="yes"/>
      <point x="439" y="332"/>
      <point x="410" y="350"/>
      <point x="380" y="359" type="curve" smooth="yes"/>
      <point x="367" y="363"/>
      <point x="353" y="364"/>
      <point x="336" y="364" type="curve" smooth="yes"/>
      <point x="304" y="364"/>
      <point x="275" y="358"/>
      <point x="251" y="352" type="curve" smooth="yes"/>
      <point x="239" y="349"/>
      <point x="228" y="346"/>
      <point x="219" y="342" type="curve"/>
      <point x="220" y="360"/>
      <point x="219" y="378"/>
      <point x="217" y="394" type="curve"/>
      <point x="217" y="400"/>
      <point x="216" y="406"/>
      <point x="216" y="412" type="curve" smooth="yes"/>
      <point x="215" y="425"/>
      <point x="214" y="437"/>
      <point x="214" y="450" type="curve" smooth="yes"/>
      <point x="214" y="491"/>
      <point x="220" y="527"/>
      <point x="245" y="548" type="curve" smooth="yes"/>
      <point x="251" y="554"/>
      <point x="260" y="558"/>
      <point x="269" y="558" type="curve" smooth="yes"/>
      <point x="276" y="558"/>
      <point x="284" y="554"/>
      <point x="292" y="545" type="curve" smooth="yes"/>
      <point x="305" y="531"/>
      <point x="310" y="499"/>
      <point x="311" y="474" type="curve"/>
      <point x="321" y="474"/>
      <point x="338" y="475"/>
      <point x="350" y="475" type="curve"/>
      <point x="380" y="475" type="line"/>
      <point x="410" y="475"/>
      <point x="438" y="476"/>
      <point x="474" y="482" type="curve"/>
      <point x="479" y="501"/>
      <point x="481" y="517"/>
      <point x="481" y="532" type="curve" smooth="yes"/>
      <point x="481" y="627"/>
      <point x="406" y="716"/>
      <point x="289" y="713" type="curve"/>
      <point x="190" y="713"/>
      <point x="77" y="665"/>
      <point x="38" y="587" type="curve" smooth="yes"/>
      <point x="34" y="579"/>
      <point x="31" y="574"/>
      <point x="31" y="572" type="curve" smooth="yes"/>
      <point x="27" y="557"/>
      <point x="26" y="543"/>
      <point x="25" y="527" type="curve"/>
      <point x="25" y="518" type="line"/>
      <point x="25" y="509"/>
      <point x="24" y="500"/>
      <point x="23" y="491" type="curve" smooth="yes"/>
      <point x="20" y="442"/>
      <point x="17" y="391"/>
      <point x="17" y="341" type="curve" smooth="yes"/>
      <point x="17" y="179"/>
      <point x="47" y="20"/>
      <point x="194" y="-6" type="curve"/>
      <point x="209" y="-8"/>
      <point x="225" y="-8"/>
      <point x="242" y="-8" type="curve" smooth="yes"/>
      <point x="379" y="-8"/>
      <point x="506" y="61"/>
      <point x="496" y="203" type="curve"/>
    </contour>
    <contour>
      <point x="347" y="204" type="curve"/>
      <point x="347" y="192" type="line"/>
      <point x="343" y="179"/>
      <point x="335" y="167"/>
      <point x="325" y="162" type="curve" smooth="yes"/>
      <point x="310" y="153"/>
      <point x="289" y="154"/>
      <point x="278" y="159" type="curve"/>
      <point x="264" y="169"/>
      <point x="252" y="195"/>
      <point x="267" y="216" type="curve" smooth="yes"/>
      <point x="282" y="237"/>
      <point x="308" y="246"/>
      <point x="327" y="244" type="curve"/>
      <point x="336" y="242"/>
      <point x="343" y="234"/>
      <point x="345" y="223" type="curve" smooth="yes"/>
      <point x="347" y="217"/>
      <point x="347" y="211"/>
    </contour>
  </outline>
</glyph>
<glyph name="eight" format="1">
  <advance width="490"/>
  <unicode hex="0038"/>
  <outline>
    <contour>
      <point x="478" y="495" type="curve"/>
      <point x="479" y="579"/>
      <point x="446" y="658"/>
      <point x="400" y="683" type="curve"/>
      <point x="390" y="689" type="line"/>
      <point x="356" y="709"/>
      <point x="321" y="714"/>
      <point x="263" y="714" type="curve" smooth="yes"/>
      <point x="245" y="714"/>
      <point x="224" y="714"/>
      <point x="200" y="713" type="curve" smooth="yes"/>
      <point x="84" y="708"/>
      <point x="18" y="601"/>
      <point x="18" y="498" type="curve" smooth="yes"/>
      <point x="18" y="448"/>
      <point x="39" y="392"/>
      <point x="73" y="352" type="curve"/>
      <point x="32" y="308"/>
      <point x="9" y="250"/>
      <point x="9" y="196" type="curve" smooth="yes"/>
      <point x="9" y="146"/>
      <point x="27" y="93"/>
      <point x="58" y="54" type="curve" smooth="yes"/>
      <point x="94" y="9"/>
      <point x="170" y="-17"/>
      <point x="246" y="-17" type="curve" smooth="yes"/>
      <point x="314" y="-17"/>
      <point x="384" y="5"/>
      <point x="418" y="42" type="curve" smooth="yes"/>
      <point x="454" y="83"/>
      <point x="475" y="140"/>
      <point x="475" y="192" type="curve" smooth="yes"/>
      <point x="475" y="245"/>
      <point x="446" y="305"/>
      <point x="400" y="345" type="curve"/>
      <point x="442" y="382"/>
      <point x="463" y="420"/>
      <point x="474" y="463" type="curve" smooth="yes"/>
      <point x="477" y="474"/>
      <point x="478" y="485"/>
    </contour>
    <contour>
      <point x="210" y="503" type="curve" smooth="yes"/>
      <point x="227" y="542"/>
      <point x="276" y="522"/>
      <point x="276" y="486" type="curve" smooth="yes"/>
      <point x="276" y="464"/>
      <point x="264" y="441"/>
      <point x="243" y="442" type="curve"/>
      <point x="216" y="445"/>
      <point x="203" y="479"/>
    </contour>
    <contour>
      <point x="260" y="179" type="curve" smooth="yes"/>
      <point x="247" y="178"/>
      <point x="232" y="177"/>
      <point x="218" y="183" type="curve" smooth="yes"/>
      <point x="206" y="188"/>
      <point x="201" y="201"/>
      <point x="201" y="218" type="curve" smooth="yes"/>
      <point x="201" y="241"/>
      <point x="212" y="264"/>
      <point x="228" y="271" type="curve"/>
      <point x="240" y="276"/>
      <point x="261" y="270"/>
      <point x="274" y="259" type="curve" smooth="yes"/>
      <point x="279" y="255"/>
      <point x="286" y="240"/>
      <point x="286" y="228" type="curve" smooth="yes"/>
      <point x="287" y="200"/>
      <point x="274" y="180"/>
    </contour>
  </outline>
</glyph>
<glyph name="colon" format="1">
  <advance width="205"/>
  <unicode hex="003A"/>
  <outline>
    <contour>
      <point x="172" y="-5" type="line"/>
      <point x="173" y="5"/>
      <point x="176" y="42"/>
      <point x="178" y="70" type="curve" smooth="yes"/>
      <point x="179" y="82"/>
      <point x="179" y="93"/>
      <point x="180" y="102" type="curve" smooth="yes"/>
      <point x="181" y="113"/>
      <point x="177" y="123"/>
      <point x="177" y="123" type="curve"/>
      <point x="167" y="128"/>
      <point x="139" y="130"/>
      <point x="109" y="130" type="curve" smooth="yes"/>
      <point x="79" y="130"/>
      <point x="46" y="127"/>
      <point x="26" y="118" type="curve"/>
      <point x="26" y="108" type="line"/>
      <point x="26" y="105"/>
      <point x="25" y="101"/>
      <point x="25" y="96" type="curve"/>
      <point x="25" y="76" type="line"/>
      <point x="25" y="68"/>
      <point x="24" y="60"/>
      <point x="24" y="52" type="curve" smooth="yes"/>
      <point x="24" y="34"/>
      <point x="25" y="14"/>
      <point x="28" y="-4" type="curve"/>
    </contour>
    <contour>
      <point x="172" y="331" type="line"/>
      <point x="173" y="341"/>
      <point x="176" y="378"/>
      <point x="178" y="406" type="curve" smooth="yes"/>
      <point x="179" y="418"/>
      <point x="179" y="429"/>
      <point x="180" y="438" type="curve" smooth="yes"/>
      <point x="181" y="449"/>
      <point x="177" y="459"/>
      <point x="177" y="459" type="curve"/>
      <point x="167" y="464"/>
      <point x="139" y="466"/>
      <point x="109" y="466" type="curve" smooth="yes"/>
      <point x="79" y="466"/>
      <point x="46" y="463"/>
      <point x="26" y="454" type="curve"/>
      <point x="26" y="444" type="line"/>
      <point x="26" y="441"/>
      <point x="25" y="437"/>
      <point x="25" y="432" type="curve"/>
      <point x="25" y="412" type="line"/>
      <point x="25" y="404"/>
      <point x="24" y="396"/>
      <point x="24" y="388" type="curve" smooth="yes"/>
      <point x="24" y="370"/>
      <point x="25" y="350"/>
      <point x="28" y="332" type="curve"/>
    </contour>
  </outline>
</glyph>
<glyph name="less" format="1">
  <advance width="363"/>
  <unicode hex="003C"/>
  <outline>
    <contour>
      <point x="358" y="93" type="line"/>
      <point x="328" y="118"/>
      <point x="294" y="150"/>
      <point x="265" y="178" type="curve"/>
      <point x="266" y="178" type="line"/>
      <point x="252" y="192" type="line"/>
      <point x="226" y="218"/>
      <point x="199" y="244"/>
      <point x="172" y="268" type="curve"/>
      <point x="203" y="306"/>
      <point x="233" y="336"/>
      <point x="265" y="369" type="curve" smooth="yes"/>
      <point x="297" y="402"/>
      <point x="329" y="435"/>
      <point x="348" y="459" type="curve"/>
      <point x="336" y="467"/>
      <point x="323" y="481"/>
      <point x="309" y="496" type="curve"/>
      <point x="297" y="507"/>
      <point x="286" y="519"/>
      <point x="253" y="538" type="curve"/>
      <point x="237" y="522"/>
      <point x="212" y="495"/>
      <point x="195" y="477" type="curve"/>
      <point x="195" y="478" type="line"/>
      <point x="190" y="472" type="line"/>
      <point x="171" y="452"/>
      <point x="151" y="433"/>
      <point x="130" y="412" type="curve"/>
      <point x="114" y="395" type="line"/>
      <point x="71" y="351"/>
      <point x="29" y="308"/>
      <point x="-1" y="270" type="curve"/>
      <point x="45" y="206"/>
      <point x="99" y="158"/>
      <point x="152" y="110" type="curve" smooth="yes"/>
      <point x="156" y="107"/>
      <point x="160" y="103"/>
      <point x="164" y="100" type="curve"/>
      <point x="163" y="100" type="line"/>
      <point x="167" y="96"/>
      <point x="172" y="92"/>
      <point x="176" y="88" type="curve" smooth="yes"/>
      <point x="203" y="64"/>
      <point x="234" y="35"/>
      <point x="262" y="7" type="curve"/>
      <point x="318" y="53"/>
      <point x="321" y="56"/>
      <point x="324" y="59" type="curve"/>
      <point x="325" y="62"/>
      <point x="326" y="62"/>
      <point x="327" y="63" type="curve"/>
      <point x="343" y="79" type="line"/>
    </contour>
  </outline>
</glyph>
<glyph name="question" format="1">
  <advance width="451"/>
  <unicode hex="003F"/>
  <outline>
    <contour>
      <point x="127" y="199" type="line"/>
      <point x="127" y="189"/>
      <point x="127" y="181"/>
      <point x="136" y="172" type="curve"/>
      <point x="202" y="172" type="line"/>
      <point x="222" y="171"/>
      <point x="261" y="172"/>
      <point x="287" y="176" type="curve"/>
      <point x="282" y="191"/>
      <point x="285" y="201"/>
      <point x="288" y="210" type="curve"/>
      <point x="288" y="211"/>
      <point x="289" y="212"/>
      <point x="289" y="213" type="curve" smooth="yes"/>
      <point x="299" y="259"/>
      <point x="311" y="299"/>
      <point x="335" y="333" type="curve" smooth="yes"/>
      <point x="345" y="346"/>
      <point x="354" y="356"/>
      <point x="363" y="365" type="curve" smooth="yes"/>
      <point x="374" y="377"/>
      <point x="389" y="395"/>
      <point x="395" y="402" type="curve" smooth="yes"/>
      <point x="420" y="433"/>
      <point x="440" y="469"/>
      <point x="445" y="510" type="curve" smooth="yes"/>
      <point x="459" y="631"/>
      <point x="342" y="721"/>
      <point x="212" y="712" type="curve"/>
      <point x="95" y="702"/>
      <point x="6" y="598"/>
      <point x="1" y="496" type="curve"/>
      <point x="7" y="495"/>
      <point x="19" y="494"/>
      <point x="28" y="493" type="curve" smooth="yes"/>
      <point x="34" y="492"/>
      <point x="46" y="491"/>
      <point x="52" y="491" type="curve" smooth="yes"/>
      <point x="67" y="490"/>
      <point x="83" y="489"/>
      <point x="99" y="489" type="curve" smooth="yes"/>
      <point x="112" y="489"/>
      <point x="133" y="490"/>
      <point x="146" y="491" type="curve"/>
      <point x="162" y="496"/>
      <point x="169" y="509"/>
      <point x="177" y="520" type="curve" smooth="yes"/>
      <point x="190" y="539"/>
      <point x="200" y="556"/>
      <point x="227" y="546" type="curve" smooth="yes"/>
      <point x="248" y="538"/>
      <point x="256" y="524"/>
      <point x="256" y="507" type="curve" smooth="yes"/>
      <point x="256" y="475"/>
      <point x="229" y="440"/>
      <point x="204" y="407" type="curve" smooth="yes"/>
      <point x="202" y="404"/>
      <point x="199" y="401"/>
      <point x="197" y="398" type="curve" smooth="yes"/>
      <point x="183" y="380"/>
      <point x="171" y="362"/>
      <point x="169" y="358" type="curve"/>
      <point x="170" y="359" type="line"/>
      <point x="143" y="316"/>
      <point x="136" y="279"/>
      <point x="129" y="238" type="curve"/>
    </contour>
    <contour>
      <point x="273" y="-5" type="line"/>
      <point x="274" y="5"/>
      <point x="277" y="42"/>
      <point x="279" y="70" type="curve" smooth="yes"/>
      <point x="280" y="82"/>
      <point x="280" y="93"/>
      <point x="281" y="102" type="curve" smooth="yes"/>
      <point x="282" y="113"/>
      <point x="278" y="123"/>
      <point x="278" y="123" type="curve"/>
      <point x="268" y="128"/>
      <point x="240" y="130"/>
      <point x="210" y="130" type="curve" smooth="yes"/>
      <point x="180" y="130"/>
      <point x="147" y="127"/>
      <point x="127" y="118" type="curve"/>
      <point x="127" y="108" type="line"/>
      <point x="127" y="105"/>
      <point x="126" y="101"/>
      <point x="126" y="96" type="curve"/>
      <point x="126" y="76" type="line"/>
      <point x="126" y="68"/>
      <point x="125" y="60"/>
      <point x="125" y="52" type="curve" smooth="yes"/>
      <point x="125" y="34"/>
      <point x="126" y="14"/>
      <point x="129" y="-4" type="curve"/>
    </contour>
  </outline>
</glyph>
<glyph name="B" format="1">
  <advance width="477"/>
  <unicode hex="0042"/>
  <outline>
    <contour>
      <point x="407" y="335" type="line"/>
      <point x="401" y="341"/>
      <point x="400" y="344"/>
      <point x="403" y="350" type="curve"/>
      <point x="403" y="349" type="line"/>
      <point x="431" y="396"/>
      <point x="454" y="453"/>
      <point x="454" y="508" type="curve" smooth="yes"/>
      <point x="454" y="670"/>
      <point x="329" y="720"/>
      <point x="196" y="720" type="curve" smooth="yes"/>
      <point x="140" y="720"/>
      <point x="80" y="710"/>
      <point x="27" y="695" type="curve"/>
      <point x="27" y="565" type="line"/>
      <point x="25" y="158"/>
      <point x="26" y="80"/>
      <point x="29" y="2" type="curve"/>
      <point x="97" y="-3"/>
      <point x="195" y="-10"/>
      <point x="223" y="-10" type="curve" smooth="yes"/>
      <point x="341" y="-10"/>
      <point x="455" y="14"/>
      <point x="478" y="144" type="curve" smooth="yes"/>
      <point x="480" y="157"/>
      <point x="481" y="169"/>
      <point x="481" y="181" type="curve" smooth="yes"/>
      <point x="481" y="245"/>
      <point x="444" y="288"/>
      <point x="407" y="334" type="curve"/>
    </contour>
    <contour>
      <point x="289" y="168" type="curve"/>
      <point x="268" y="143"/>
      <point x="234" y="144"/>
      <point x="198" y="145" type="curve"/>
      <point x="191" y="158"/>
      <point x="187" y="181"/>
      <point x="187" y="201" type="curve" smooth="yes"/>
      <point x="187" y="225"/>
      <point x="192" y="253"/>
      <point x="197" y="274" type="curve"/>
      <point x="203" y="273"/>
      <point x="204" y="274"/>
      <point x="211" y="274" type="curve" smooth="yes"/>
      <point x="225" y="273"/>
      <point x="241" y="272"/>
      <point x="258" y="268" type="curve" smooth="yes"/>
      <point x="270" y="265"/>
      <point x="283" y="252"/>
      <point x="290" y="237" type="curve"/>
      <point x="290" y="238" type="line"/>
      <point x="293" y="228"/>
      <point x="296" y="215"/>
      <point x="296" y="201" type="curve" smooth="yes"/>
      <point x="296" y="187"/>
      <point x="294" y="175"/>
    </contour>
    <contour>
      <point x="287" y="452" type="curve"/>
      <point x="274" y="427"/>
      <point x="250" y="422"/>
      <point x="227" y="422" type="curve" smooth="yes"/>
      <point x="198" y="422" type="line"/>
      <point x="195" y="470"/>
      <point x="200" y="511"/>
      <point x="194" y="549" type="curve"/>
      <point x="216" y="544"/>
      <point x="238" y="545"/>
      <point x="258" y="542" type="curve"/>
      <point x="273" y="538"/>
      <point x="285" y="529"/>
      <point x="296" y="508" type="curve" smooth="yes"/>
      <point x="306" y="489"/>
      <point x="296" y="467"/>
    </contour>
  </outline>
</glyph>
<glyph name="C" format="1">
  <advance width="488"/>
  <unicode hex="0043"/>
  <outline>
    <contour>
      <point x="237" y="552" type="curve" smooth="yes"/>
      <point x="236" y="552" type="line"/>
      <point x="240" y="552"/>
      <point x="242" y="553"/>
      <point x="243" y="553" type="curve" smooth="yes"/>
      <point x="290" y="555"/>
      <point x="293" y="507"/>
      <point x="295" y="461" type="curve" smooth="yes"/>
      <point x="296" y="450"/>
      <point x="298" y="423"/>
      <point x="298" y="423" type="curve"/>
      <point x="339" y="415"/>
      <point x="375" y="410"/>
      <point x="403" y="410" type="curve" smooth="yes"/>
      <point x="421" y="410"/>
      <point x="445" y="413"/>
      <point x="473" y="419" type="curve"/>
      <point x="483" y="446"/>
      <point x="487" y="471"/>
      <point x="487" y="495" type="curve" smooth="yes"/>
      <point x="487" y="626"/>
      <point x="365" y="731"/>
      <point x="227" y="731" type="curve" smooth="yes"/>
      <point x="199" y="731"/>
      <point x="172" y="727"/>
      <point x="146" y="719" type="curve" smooth="yes"/>
      <point x="126" y="713"/>
      <point x="103" y="705"/>
      <point x="84" y="690" type="curve"/>
      <point x="61" y="669"/>
      <point x="41" y="635"/>
      <point x="30" y="606" type="curve" smooth="yes"/>
      <point x="22" y="587"/>
      <point x="16" y="557"/>
      <point x="18" y="537" type="curve"/>
      <point x="18" y="525"/>
      <point x="17" y="503"/>
      <point x="17" y="492" type="curve" smooth="yes"/>
      <point x="16" y="431"/>
      <point x="16" y="381"/>
      <point x="16" y="336" type="curve" smooth="yes"/>
      <point x="16" y="245"/>
      <point x="18" y="181"/>
      <point x="21" y="121" type="curve"/>
      <point x="31" y="21"/>
      <point x="131" y="-19"/>
      <point x="224" y="-19" type="curve" smooth="yes"/>
      <point x="237" y="-19"/>
      <point x="254" y="-18"/>
      <point x="266" y="-16" type="curve"/>
      <point x="392" y="-11"/>
      <point x="484" y="94"/>
      <point x="484" y="209" type="curve" smooth="yes"/>
      <point x="484" y="233"/>
      <point x="481" y="256"/>
      <point x="472" y="282" type="curve"/>
      <point x="439" y="291"/>
      <point x="408" y="291"/>
      <point x="379" y="290" type="curve" smooth="yes"/>
      <point x="359" y="289"/>
      <point x="338" y="289"/>
      <point x="310" y="293" type="curve"/>
      <point x="306" y="276"/>
      <point x="306" y="260"/>
      <point x="306" y="246" type="curve" smooth="yes"/>
      <point x="306" y="226"/>
      <point x="305" y="206"/>
      <point x="297" y="189" type="curve"/>
      <point x="298" y="189" type="line"/>
      <point x="286" y="166"/>
      <point x="267" y="156"/>
      <point x="245" y="157" type="curve"/>
      <point x="220" y="170"/>
      <point x="202" y="210"/>
      <point x="198" y="244" type="curve"/>
      <point x="196" y="272"/>
      <point x="195" y="310"/>
      <point x="195" y="348" type="curve" smooth="yes"/>
      <point x="195" y="434"/>
      <point x="200" y="526"/>
      <point x="203" y="531" type="curve"/>
      <point x="206" y="545"/>
      <point x="225" y="550"/>
    </contour>
  </outline>
</glyph>
<glyph name="D" format="1">
  <advance width="482"/>
  <unicode hex="0044"/>
  <outline>
    <contour>
      <point x="411" y="612" type="line"/>
      <point x="385" y="655"/>
      <point x="336" y="693"/>
      <point x="286" y="706" type="curve"/>
      <point x="273" y="705"/>
      <point x="259" y="705"/>
      <point x="246" y="705" type="curve" smooth="yes"/>
      <point x="233" y="705"/>
      <point x="219" y="705"/>
      <point x="206" y="706" type="curve"/>
      <point x="179" y="706" type="line"/>
      <point x="170" y="706"/>
      <point x="162" y="707"/>
      <point x="153" y="707" type="curve" smooth="yes"/>
      <point x="113" y="707"/>
      <point x="75" y="705"/>
      <point x="30" y="693" type="curve"/>
      <point x="23" y="692" type="line"/>
      <point x="24" y="660"/>
      <point x="26" y="623"/>
      <point x="26" y="590" type="curve" smooth="yes"/>
      <point x="26" y="550"/>
      <point x="26" y="495"/>
      <point x="25" y="456" type="curve" smooth="yes"/>
      <point x="24" y="413"/>
      <point x="24" y="369"/>
      <point x="24" y="326" type="curve" smooth="yes"/>
      <point x="24" y="214"/>
      <point x="27" y="105"/>
      <point x="42" y="-4" type="curve"/>
      <point x="65" y="-4"/>
      <point x="94" y="-3"/>
      <point x="120" y="-3" type="curve" smooth="yes"/>
      <point x="189" y="-2"/>
      <point x="266" y="-2"/>
      <point x="330" y="0" type="curve"/>
      <point x="383" y="66"/>
      <point x="434" y="139"/>
      <point x="462" y="220" type="curve"/>
      <point x="471" y="264"/>
      <point x="472" y="304"/>
      <point x="474" y="346" type="curve" smooth="yes"/>
      <point x="474" y="351"/>
      <point x="475" y="357"/>
      <point x="475" y="362" type="curve" smooth="yes"/>
      <point x="475" y="377"/>
      <point x="476" y="392"/>
      <point x="477" y="407" type="curve"/>
      <point x="476" y="427"/>
      <point x="475" y="447"/>
      <point x="467" y="472" type="curve"/>
      <point x="467" y="471" type="line"/>
      <point x="457" y="522"/>
      <point x="437" y="570"/>
      <point x="405" y="620" type="curve"/>
    </contour>
    <contour>
      <point x="289" y="257" type="curve"/>
      <point x="282" y="246"/>
      <point x="268" y="225"/>
      <point x="253" y="221" type="curve" smooth="yes"/>
      <point x="242" y="217"/>
      <point x="230" y="218"/>
      <point x="217" y="218" type="curve" smooth="yes"/>
      <point x="212" y="218"/>
      <point x="201" y="222"/>
      <point x="196" y="224" type="curve"/>
      <point x="197" y="247"/>
      <point x="197" y="268"/>
      <point x="197" y="291" type="curve" smooth="yes"/>
      <point x="197" y="314"/>
      <point x="197" y="337"/>
      <point x="198" y="360" type="curve" smooth="yes"/>
      <point x="198" y="369"/>
      <point x="199" y="378"/>
      <point x="199" y="387" type="curve"/>
      <point x="199" y="413" type="line"/>
      <point x="199" y="433"/>
      <point x="198" y="463"/>
      <point x="197" y="481" type="curve"/>
      <point x="200" y="482"/>
      <point x="212" y="483"/>
      <point x="223" y="483" type="curve" smooth="yes"/>
      <point x="235" y="483"/>
      <point x="247" y="482"/>
      <point x="259" y="481" type="curve"/>
      <point x="257" y="481" type="line"/>
      <point x="291" y="469"/>
      <point x="302" y="419"/>
      <point x="310" y="378" type="curve" smooth="yes"/>
      <point x="313" y="365"/>
      <point x="314" y="354"/>
      <point x="314" y="343" type="curve" smooth="yes"/>
      <point x="314" y="309"/>
      <point x="304" y="280"/>
    </contour>
  </outline>
</glyph>
<glyph name="G" format="1">
  <advance width="481"/>
  <unicode hex="0047"/>
  <outline>
    <contour>
      <point x="225" y="352" type="curve"/>
      <point x="229" y="316"/>
      <point x="227" y="313"/>
      <point x="227" y="302" type="curve"/>
      <point x="227" y="291" type="line"/>
      <point x="227" y="275"/>
      <point x="227" y="260"/>
      <point x="229" y="239" type="curve"/>
      <point x="244" y="233"/>
      <point x="267" y="232"/>
      <point x="286" y="233" type="curve"/>
      <point x="310" y="233" type="line"/>
      <point x="312" y="227"/>
      <point x="305" y="189"/>
      <point x="302" y="179" type="curve" smooth="yes"/>
      <point x="298" y="161"/>
      <point x="289" y="151"/>
      <point x="280" y="147" type="curve" smooth="yes"/>
      <point x="265" y="141"/>
      <point x="242" y="136"/>
      <point x="226" y="138" type="curve" smooth="yes"/>
      <point x="222" y="139"/>
      <point x="216" y="142"/>
      <point x="210" y="146" type="curve"/>
      <point x="193" y="161"/>
      <point x="186" y="202"/>
      <point x="183" y="231" type="curve" smooth="yes"/>
      <point x="180" y="261"/>
      <point x="179" y="300"/>
      <point x="179" y="332" type="curve" smooth="yes"/>
      <point x="179" y="404"/>
      <point x="185" y="475"/>
      <point x="198" y="518" type="curve" smooth="yes"/>
      <point x="201" y="529"/>
      <point x="204" y="541"/>
      <point x="205" y="542" type="curve" smooth="yes"/>
      <point x="221" y="558"/>
      <point x="237" y="553"/>
      <point x="255" y="552" type="curve"/>
      <point x="282" y="552"/>
      <point x="301" y="497"/>
      <point x="309" y="470" type="curve"/>
      <point x="344" y="466"/>
      <point x="361" y="466"/>
      <point x="382" y="466" type="curve"/>
      <point x="392" y="466" type="line"/>
      <point x="430" y="466" type="line"/>
      <point x="450" y="466"/>
      <point x="455" y="465"/>
      <point x="465" y="467" type="curve"/>
      <point x="465" y="468"/>
      <point x="465" y="480"/>
      <point x="465" y="481" type="curve" smooth="yes"/>
      <point x="466" y="490"/>
      <point x="467" y="505"/>
      <point x="467" y="513" type="curve" smooth="yes"/>
      <point x="467" y="641"/>
      <point x="367" y="707"/>
      <point x="239" y="707" type="curve" smooth="yes"/>
      <point x="222" y="707"/>
      <point x="207" y="706"/>
      <point x="192" y="704" type="curve" smooth="yes"/>
      <point x="152" y="698"/>
      <point x="115" y="686"/>
      <point x="88" y="666" type="curve" smooth="yes"/>
      <point x="48" y="636"/>
      <point x="30" y="588"/>
      <point x="23" y="548" type="curve" smooth="yes"/>
      <point x="16" y="510"/>
      <point x="14" y="455"/>
      <point x="13" y="416" type="curve" smooth="yes"/>
      <point x="12" y="397"/>
      <point x="12" y="381"/>
      <point x="12" y="365" type="curve" smooth="yes"/>
      <point x="22" y="192"/>
      <point x="23" y="188"/>
      <point x="23" y="186" type="curve" smooth="yes"/>
      <point x="26" y="159"/>
      <point x="31" y="131"/>
      <point x="35" y="116" type="curve" smooth="yes"/>
      <point x="50" y="61"/>
      <point x="82" y="19"/>
      <point x="138" y="-6" type="curve"/>
      <point x="164" y="-16"/>
      <point x="195" y="-21"/>
      <point x="225" y="-21" type="curve" smooth="yes"/>
      <point x="272" y="-21"/>
      <point x="320" y="-11"/>
      <point x="360" y="1" type="curve"/>
      <point x="415" y="21"/>
      <point x="457" y="62"/>
      <point x="466" y="124" type="curve" smooth="yes"/>
      <point x="471" y="155"/>
      <point x="474" y="193"/>
      <point x="474" y="225" type="curve" smooth="yes"/>
      <point x="474" y="263"/>
      <point x="469" y="311"/>
      <point x="465" y="356" type="curve"/>
      <point x="448" y="357" type="line"/>
      <point x="442" y="357"/>
      <point x="429" y="358"/>
      <point x="416" y="359" type="curve" smooth="yes"/>
      <point x="389" y="361"/>
      <point x="352" y="363"/>
      <point x="319" y="363" type="curve" smooth="yes"/>
      <point x="279" y="363"/>
      <point x="248" y="352"/>
    </contour>
  </outline>
</glyph>
<glyph name="H" format="1">
  <advance width="499"/>
  <unicode hex="0048"/>
  <outline>
    <contour>
      <point x="457" y="710" type="line"/>
      <point x="437" y="712"/>
      <point x="425" y="712"/>
      <point x="410" y="712" type="curve" smooth="yes"/>
      <point x="370" y="712"/>
      <point x="322" y="707"/>
      <point x="290" y="697" type="curve"/>
      <point x="292" y="657"/>
      <point x="293" y="620"/>
      <point x="293" y="585" type="curve" smooth="yes"/>
      <point x="293" y="533"/>
      <point x="291" y="492"/>
      <point x="286" y="438" type="curve"/>
      <point x="291" y="438"/>
      <point x="287" y="438"/>
      <point x="284" y="438" type="curve" smooth="yes"/>
      <point x="266" y="436"/>
      <point x="263" y="433"/>
      <point x="246" y="433" type="curve" smooth="yes"/>
      <point x="208" y="437" type="line"/>
      <point x="197" y="489"/>
      <point x="195" y="527"/>
      <point x="193" y="575" type="curve" smooth="yes"/>
      <point x="193" y="583"/>
      <point x="192" y="591"/>
      <point x="192" y="599" type="curve" smooth="yes"/>
      <point x="191" y="633"/>
      <point x="189" y="666"/>
      <point x="185" y="698" type="curve"/>
      <point x="167" y="704"/>
      <point x="152" y="705"/>
      <point x="138" y="705" type="curve" smooth="yes"/>
      <point x="25" y="703" type="line"/>
      <point x="24" y="671"/>
      <point x="24" y="630"/>
      <point x="24" y="591" type="curve" smooth="yes"/>
      <point x="24" y="382"/>
      <point x="38" y="93"/>
      <point x="45" y="-2" type="curve"/>
      <point x="78" y="1"/>
      <point x="85" y="0"/>
      <point x="101" y="-2" type="curve" smooth="yes"/>
      <point x="104" y="-2"/>
      <point x="107" y="-3"/>
      <point x="110" y="-3" type="curve" smooth="yes"/>
      <point x="122" y="-4"/>
      <point x="139" y="-5"/>
      <point x="150" y="-5" type="curve" smooth="yes"/>
      <point x="169" y="-5"/>
      <point x="188" y="-2"/>
      <point x="206" y="8" type="curve"/>
      <point x="210" y="33"/>
      <point x="211" y="65"/>
      <point x="211" y="99" type="curve" smooth="yes"/>
      <point x="211" y="107"/>
      <point x="210" y="116"/>
      <point x="210" y="125" type="curve"/>
      <point x="210" y="151" type="line"/>
      <point x="209" y="173"/>
      <point x="209" y="195"/>
      <point x="209" y="218" type="curve" smooth="yes"/>
      <point x="209" y="234"/>
      <point x="209" y="244"/>
      <point x="212" y="273" type="curve"/>
      <point x="220" y="275"/>
      <point x="240" y="277"/>
      <point x="258" y="277" type="curve" smooth="yes"/>
      <point x="296" y="275" type="line"/>
      <point x="303" y="229"/>
      <point x="304" y="186"/>
      <point x="305" y="146" type="curve" smooth="yes"/>
      <point x="306" y="109"/>
      <point x="308" y="37"/>
      <point x="314" y="-6" type="curve"/>
      <point x="328" y="-5"/>
      <point x="358" y="-4"/>
      <point x="376" y="-4" type="curve" smooth="yes"/>
      <point x="408" y="-4"/>
      <point x="443" y="-4"/>
      <point x="484" y="3" type="curve"/>
    </contour>
  </outline>
</glyph>
<glyph name="J" format="1">
  <advance width="463"/>
  <unicode hex="004A"/>
  <outline>
    <contour>
      <point x="264" y="715" type="line"/>
      <point x="264" y="703" type="line"/>
      <point x="262" y="641"/>
      <point x="261" y="580"/>
      <point x="261" y="519" type="curve" smooth="yes"/>
      <point x="261" y="433"/>
      <point x="263" y="320"/>
      <point x="265" y="236" type="curve"/>
      <point x="262" y="201"/>
      <point x="249" y="165"/>
      <point x="222" y="171" type="curve"/>
      <point x="185" y="174"/>
      <point x="177" y="241"/>
      <point x="174" y="280" type="curve"/>
      <point x="174" y="288" type="line"/>
      <point x="139" y="295"/>
      <point x="100" y="298"/>
      <point x="67" y="298" type="curve" smooth="yes"/>
      <point x="41" y="298"/>
      <point x="14" y="297"/>
      <point x="-11" y="290" type="curve"/>
      <point x="-11" y="273" type="line"/>
      <point x="-11" y="269"/>
      <point x="-12" y="264"/>
      <point x="-12" y="258" type="curve" smooth="yes"/>
      <point x="-12" y="158"/>
      <point x="14" y="27"/>
      <point x="122" y="-5" type="curve"/>
      <point x="146" y="-10"/>
      <point x="172" y="-13"/>
      <point x="200" y="-13" type="curve" smooth="yes"/>
      <point x="241" y="-13"/>
      <point x="284" y="-6"/>
      <point x="319" y="12" type="curve"/>
      <point x="319" y="11" type="line"/>
      <point x="437" y="54"/>
      <point x="440" y="183"/>
      <point x="443" y="288" type="curve" smooth="yes"/>
      <point x="443" y="302"/>
      <point x="443" y="316"/>
      <point x="444" y="329" type="curve" smooth="yes"/>
      <point x="445" y="348"/>
      <point x="445" y="367"/>
      <point x="445" y="386" type="curve" smooth="yes"/>
      <point x="445" y="414"/>
      <point x="444" y="454"/>
      <point x="443" y="484" type="curve" smooth="yes"/>
      <point x="443" y="497"/>
      <point x="442" y="511"/>
      <point x="442" y="523" type="curve" smooth="yes"/>
      <point x="441" y="570"/>
      <point x="440" y="616"/>
      <point x="440" y="662" type="curve"/>
      <point x="440" y="717" type="line"/>
    </contour>
  </outline>
</glyph>
<glyph name="M" format="1">
  <advance width="501"/>
  <unicode hex="004D"/>
  <outline>
    <contour>
      <point x="475" y="702" type="line"/>
      <point x="457" y="702"/>
      <point x="416" y="701"/>
      <point x="391" y="700" type="curve" smooth="yes"/>
      <point x="372" y="699"/>
      <point x="353" y="698"/>
      <point x="337" y="698" type="curve" smooth="yes"/>
      <point x="326" y="698"/>
      <point x="316" y="698"/>
      <point x="303" y="701" type="curve"/>
      <point x="254" y="582"/>
      <point x="253" y="572"/>
      <point x="250" y="564" type="curve"/>
      <point x="218" y="648"/>
      <point x="208" y="675"/>
      <point x="190" y="696" type="curve"/>
      <point x="179" y="695"/>
      <point x="168" y="695"/>
      <point x="157" y="695" type="curve" smooth="yes"/>
      <point x="74" y="697"/>
      <point x="52" y="695"/>
      <point x="29" y="687" type="curve"/>
      <point x="27" y="431"/>
      <point x="26" y="267"/>
      <point x="26" y="165" type="curve" smooth="yes"/>
      <point x="26" y="51"/>
      <point x="27" y="28"/>
      <point x="28" y="9" type="curve"/>
      <point x="32" y="-9"/>
      <point x="22" y="-3"/>
      <point x="48" y="-5" type="curve"/>
      <point x="116" y="-7" type="line"/>
      <point x="142" y="-7"/>
      <point x="172" y="-5"/>
      <point x="203" y="0" type="curve"/>
      <point x="198" y="76"/>
      <point x="194" y="157"/>
      <point x="194" y="234" type="curve" smooth="yes"/>
      <point x="194" y="258"/>
      <point x="193" y="287"/>
      <point x="194" y="310" type="curve"/>
      <point x="209" y="275"/>
      <point x="228" y="239"/>
      <point x="246" y="238" type="curve"/>
      <point x="265" y="238"/>
      <point x="277" y="269"/>
      <point x="300" y="310" type="curve"/>
      <point x="306" y="120"/>
      <point x="307" y="105"/>
      <point x="307" y="90" type="curve" smooth="yes"/>
      <point x="307" y="58"/>
      <point x="308" y="22"/>
      <point x="309" y="-5" type="curve"/>
      <point x="385" y="-4"/>
      <point x="394" y="-3"/>
      <point x="402" y="-3" type="curve" smooth="yes"/>
      <point x="421" y="-3"/>
      <point x="445" y="-4"/>
      <point x="471" y="-8" type="curve"/>
    </contour>
  </outline>
</glyph>
<glyph name="N" format="1">
  <advance width="498"/>
  <unicode hex="004E"/>
  <outline>
    <contour>
      <point x="424" y="-10" type="curve"/>
      <point x="444" y="-10"/>
      <point x="454" y="-8"/>
      <point x="459" y="-6" type="curve" smooth="yes"/>
      <point x="462" y="-5"/>
      <point x="465" y="-3"/>
      <point x="471" y="-3" type="curve"/>
      <point x="471" y="706" type="line"/>
      <point x="443" y="712"/>
      <point x="416" y="715"/>
      <point x="390" y="715" type="curve" smooth="yes"/>
      <point x="362" y="715"/>
      <point x="334" y="713"/>
      <point x="303" y="707" type="curve"/>
      <point x="301" y="632"/>
      <point x="302" y="493"/>
      <point x="304" y="436" type="curve"/>
      <point x="273" y="503"/>
      <point x="225" y="631"/>
      <point x="190" y="693" type="curve"/>
      <point x="172" y="705"/>
      <point x="113" y="709"/>
      <point x="93" y="709" type="curve" smooth="yes"/>
      <point x="75" y="709"/>
      <point x="56" y="708"/>
      <point x="33" y="702" type="curve"/>
      <point x="26" y="617"/>
      <point x="24" y="525"/>
      <point x="24" y="432" type="curve" smooth="yes"/>
      <point x="24" y="370"/>
      <point x="24" y="312"/>
      <point x="25" y="253" type="curve" smooth="yes"/>
      <point x="26" y="194"/>
      <point x="27" y="135"/>
      <point x="27" y="71" type="curve"/>
      <point x="27" y="-4" type="line"/>
      <point x="38" y="-4"/>
      <point x="61" y="-5"/>
      <point x="76" y="-6" type="curve" smooth="yes"/>
      <point x="97" y="-6"/>
      <point x="118" y="-10"/>
      <point x="138" y="-10" type="curve" smooth="yes"/>
      <point x="156" y="-10"/>
      <point x="173" y="-9"/>
      <point x="197" y="-2" type="curve"/>
      <point x="196" y="21"/>
      <point x="196" y="52"/>
      <point x="196" y="83" type="curve" smooth="yes"/>
      <point x="196" y="275" type="line"/>
      <point x="215" y="224"/>
      <point x="246" y="156"/>
      <point x="279" y="84" type="curve" smooth="yes"/>
      <point x="292" y="56"/>
      <point x="306" y="24"/>
      <point x="319" y="-5" type="curve"/>
      <point x="328" y="-3"/>
      <point x="414" y="-12"/>
    </contour>
  </outline>
</glyph>
<glyph name="S" format="1">
  <advance width="485"/>
  <unicode hex="0053"/>
  <outline>
    <contour>
      <point x="477" y="469" type="line"/>
      <point x="481" y="490"/>
      <point x="483" y="507"/>
      <point x="483" y="521" type="curve" smooth="yes"/>
      <point x="483" y="594"/>
      <point x="442" y="646"/>
      <point x="383" y="676" type="curve"/>
      <point x="343" y="694"/>
      <point x="294" y="704"/>
      <point x="246" y="704" type="curve" smooth="yes"/>
      <point x="211" y="704"/>
      <point x="176" y="699"/>
      <point x="149" y="688" type="curve" smooth="yes"/>
      <point x="65" y="653"/>
      <point x="7" y="569"/>
      <point x="7" y="482" type="curve" smooth="yes"/>
      <point x="7" y="430"/>
      <point x="29" y="375"/>
      <point x="79" y="327" type="curve"/>
      <point x="97" y="312"/>
      <point x="123" y="298"/>
      <point x="154" y="292" type="curve"/>
      <point x="169" y="289" type="line"/>
      <point x="217" y="280"/>
      <point x="278" y="268"/>
      <point x="285" y="212" type="curve"/>
      <point x="292" y="169"/>
      <point x="267" y="148"/>
      <point x="239" y="148" type="curve" smooth="yes"/>
      <point x="211" y="148"/>
      <point x="182" y="170"/>
      <point x="180" y="212" type="curve"/>
      <point x="164" y="212"/>
      <point x="131" y="212"/>
      <point x="112" y="213" type="curve"/>
      <point x="55" y="215"/>
      <point x="33" y="215"/>
      <point x="-3" y="209" type="curve"/>
      <point x="-3" y="200" type="line"/>
      <point x="-11" y="71"/>
      <point x="125" y="-7"/>
      <point x="248" y="-10" type="curve"/>
      <point x="334" y="-13"/>
      <point x="419" y="29"/>
      <point x="455" y="108" type="curve" smooth="yes"/>
      <point x="470" y="140"/>
      <point x="478" y="175"/>
      <point x="478" y="209" type="curve" smooth="yes"/>
      <point x="478" y="248"/>
      <point x="463" y="293"/>
      <point x="437" y="328" type="curve" smooth="yes"/>
      <point x="397" y="379"/>
      <point x="323" y="426"/>
      <point x="254" y="435" type="curve" smooth="yes"/>
      <point x="233" y="438"/>
      <point x="212" y="444"/>
      <point x="201" y="475" type="curve"/>
      <point x="202" y="477"/>
      <point x="201" y="476"/>
      <point x="201" y="477" type="curve" smooth="yes"/>
      <point x="200" y="483"/>
      <point x="199" y="491"/>
      <point x="203" y="502" type="curve"/>
      <point x="206" y="529"/>
      <point x="224" y="540"/>
      <point x="243" y="540" type="curve" smooth="yes"/>
      <point x="273" y="540"/>
      <point x="305" y="514"/>
      <point x="296" y="473" type="curve"/>
      <point x="326" y="464"/>
      <point x="355" y="462"/>
      <point x="382" y="462" type="curve" smooth="yes"/>
      <point x="412" y="462"/>
      <point x="441" y="465"/>
      <point x="465" y="469" type="curve"/>
    </contour>
  </outline>
</glyph>
<glyph name="T" format="1">
  <advance width="443"/>
  <unicode hex="0054"/>
  <outline>
    <contour>
      <point x="434" y="700" type="line"/>
      <point x="357" y="709"/>
      <point x="273" y="711"/>
      <point x="191" y="711" type="curve" smooth="yes"/>
      <point x="172" y="711"/>
      <point x="152" y="710"/>
      <point x="133" y="710" type="curve"/>
      <point x="77" y="710" type="line"/>
      <point x="65" y="710"/>
      <point x="52" y="709"/>
      <point x="38" y="709" type="curve"/>
      <point x="-5" y="709" type="line"/>
      <point x="-6" y="687"/>
      <point x="-6" y="659"/>
      <point x="-6" y="637" type="curve" smooth="yes"/>
      <point x="-6" y="592"/>
      <point x="-3" y="551"/>
      <point x="1" y="543" type="curve"/>
      <point x="16" y="538"/>
      <point x="31" y="538"/>
      <point x="50" y="538" type="curve" smooth="yes"/>
      <point x="76" y="538"/>
      <point x="103" y="543"/>
      <point x="121" y="534" type="curve"/>
      <point x="128" y="383"/>
      <point x="129" y="262"/>
      <point x="129" y="179" type="curve" smooth="yes"/>
      <point x="129" y="148"/>
      <point x="128" y="116"/>
      <point x="128" y="89" type="curve"/>
      <point x="128" y="40" type="line"/>
      <point x="127" y="23"/>
      <point x="129" y="-2"/>
      <point x="133" y="-9" type="curve"/>
      <point x="175" y="-2"/>
      <point x="200" y="-2"/>
      <point x="225" y="-2" type="curve"/>
      <point x="254" y="-2" type="line"/>
      <point x="274" y="-2"/>
      <point x="293" y="-2"/>
      <point x="322" y="3" type="curve"/>
      <point x="317" y="279"/>
      <point x="315" y="413"/>
      <point x="315" y="477" type="curve" smooth="yes"/>
      <point x="315" y="514"/>
      <point x="316" y="529"/>
      <point x="317" y="536" type="curve"/>
      <point x="318" y="542"/>
      <point x="380" y="538"/>
      <point x="390" y="538" type="curve" smooth="yes"/>
      <point x="402" y="538"/>
      <point x="420" y="536"/>
      <point x="442" y="532" type="curve"/>
      <point x="447" y="565"/>
      <point x="449" y="603"/>
      <point x="449" y="636" type="curve" smooth="yes"/>
      <point x="449" y="657"/>
      <point x="448" y="683"/>
      <point x="447" y="700" type="curve"/>
    </contour>
  </outline>
</glyph>
<glyph name="W" format="1">
  <advance width="465"/>
  <unicode hex="0057"/>
  <outline>
    <contour>
      <point x="454" y="701" type="line"/>
      <point x="426" y="704"/>
      <point x="399" y="705"/>
      <point x="378" y="705" type="curve" smooth="yes"/>
      <point x="353" y="705"/>
      <point x="326" y="704"/>
      <point x="292" y="696" type="curve"/>
      <point x="287" y="637"/>
      <point x="285" y="557"/>
      <point x="283" y="480" type="curve" smooth="yes"/>
      <point x="282" y="434"/>
      <point x="280" y="345"/>
      <point x="280" y="347" type="curve" smooth="yes"/>
      <point x="272" y="396"/>
      <point x="258" y="457"/>
      <point x="231" y="475" type="curve"/>
      <point x="202" y="441"/>
      <point x="204" y="389"/>
      <point x="191" y="347" type="curve"/>
      <point x="185" y="400"/>
      <point x="185" y="463"/>
      <point x="185" y="522" type="curve"/>
      <point x="185" y="541" type="line"/>
      <point x="185" y="601"/>
      <point x="185" y="658"/>
      <point x="181" y="703" type="curve"/>
      <point x="139" y="704"/>
      <point x="115" y="706"/>
      <point x="88" y="706" type="curve" smooth="yes"/>
      <point x="64" y="706"/>
      <point x="36" y="704"/>
      <point x="8" y="699" type="curve"/>
      <point x="16" y="487"/>
      <point x="41" y="250"/>
      <point x="75" y="46" type="curve" smooth="yes"/>
      <point x="77" y="32"/>
      <point x="79" y="15"/>
      <point x="81" y="1" type="curve"/>
      <point x="123" y="-5"/>
      <point x="159" y="-4"/>
      <point x="196" y="3" type="curve"/>
      <point x="225" y="99"/>
      <point x="231" y="124"/>
      <point x="237" y="145" type="curve"/>
      <point x="253" y="104"/>
      <point x="259" y="32"/>
      <point x="287" y="-2" type="curve"/>
      <point x="367" y="-2"/>
      <point x="377" y="-2"/>
      <point x="395" y="3" type="curve"/>
      <point x="411" y="194"/>
      <point x="452" y="571"/>
      <point x="461" y="696" type="curve"/>
    </contour>
  </outline>
</glyph>
<glyph name="bracketright" format="1">
  <advance width="321"/>
  <unicode hex="005D"/>
  <outline>
    <contour>
      <point x="124" y="-5" type="line"/>
      <point x="146" y="-5" type="line"/>
      <point x="188" y="-5"/>
      <point x="257" y="-5"/>
      <point x="293" y="-8" type="curve"/>
      <point x="293" y="2" type="line"/>
      <point x="292" y="44"/>
      <point x="292" y="86"/>
      <point x="292" y="129" type="curve"/>
      <point x="292" y="368" type="line"/>
      <point x="292" y="482"/>
      <point x="291" y="597"/>
      <point x="283" y="706" type="curve"/>
      <point x="252" y="713"/>
      <point x="229" y="714"/>
      <point x="209" y="714" type="curve" smooth="yes"/>
      <point x="194" y="714"/>
      <point x="174" y="713"/>
      <point x="160" y="712" type="curve" smooth="yes"/>
      <point x="152" y="712"/>
      <point x="144" y="711"/>
      <point x="136" y="711" type="curve" smooth="yes"/>
      <point x="114" y="710"/>
      <point x="92" y="709"/>
      <point x="71" y="709" type="curve" smooth="yes"/>
      <point x="56" y="709"/>
      <point x="41" y="709"/>
      <point x="9" y="713" type="curve"/>
      <point x="9" y="684" type="line"/>
      <point x="9" y="640"/>
      <point x="9" y="607"/>
      <point x="17" y="582" type="curve"/>
      <point x="31" y="583"/>
      <point x="45" y="583"/>
      <point x="54" y="583" type="curve" smooth="yes"/>
      <point x="65" y="583"/>
      <point x="74" y="583"/>
      <point x="83" y="582" type="curve" smooth="yes"/>
      <point x="96" y="581"/>
      <point x="111" y="580"/>
      <point x="125" y="580" type="curve"/>
      <point x="130" y="542"/>
      <point x="130" y="499"/>
      <point x="130" y="458" type="curve" smooth="yes"/>
      <point x="130" y="405"/>
      <point x="128" y="342"/>
      <point x="126" y="289" type="curve" smooth="yes"/>
      <point x="124" y="237"/>
      <point x="122" y="182"/>
      <point x="122" y="138" type="curve"/>
      <point x="109" y="142"/>
      <point x="84" y="140"/>
      <point x="62" y="139" type="curve" smooth="yes"/>
      <point x="57" y="139"/>
      <point x="49" y="138"/>
      <point x="42" y="138" type="curve" smooth="yes"/>
      <point x="33" y="137"/>
      <point x="21" y="136"/>
      <point x="15" y="135" type="curve"/>
      <point x="13" y="105"/>
      <point x="11" y="70"/>
      <point x="11" y="39" type="curve" smooth="yes"/>
      <point x="11" y="26"/>
      <point x="11" y="9"/>
      <point x="12" y="-4" type="curve"/>
    </contour>
  </outline>
</glyph>
<glyph name="asciicircum" format="1">
  <advance width="440"/>
  <unicode hex="005E"/>
  <outline>
    <contour>
      <point x="220" y="704" type="line"/>
      <point x="217" y="701"/>
      <point x="209" y="694"/>
      <point x="205" y="690" type="curve"/>
      <point x="206" y="690" type="line"/>
      <point x="191" y="676"/>
      <point x="174" y="659"/>
      <point x="160" y="647" type="curve" smooth="yes"/>
      <point x="151" y="639"/>
      <point x="141" y="631"/>
      <point x="133" y="623" type="curve"/>
      <point x="134" y="623" type="line"/>
      <point x="85" y="578"/>
      <point x="37" y="533"/>
      <point x="-6" y="473" type="curve"/>
      <point x="37" y="471"/>
      <point x="81" y="469"/>
      <point x="100" y="468" type="curve" smooth="yes"/>
      <point x="119" y="466"/>
      <point x="133" y="466"/>
      <point x="151" y="468" type="curve" smooth="yes"/>
      <point x="165" y="470"/>
      <point x="179" y="485"/>
      <point x="192" y="499" type="curve"/>
      <point x="200" y="507" type="line"/>
      <point x="208" y="516"/>
      <point x="213" y="522"/>
      <point x="216" y="525" type="curve"/>
      <point x="220" y="523"/>
      <point x="220" y="521"/>
      <point x="223" y="517" type="curve" smooth="yes"/>
      <point x="226" y="513"/>
      <point x="230" y="508"/>
      <point x="235" y="502" type="curve" smooth="yes"/>
      <point x="248" y="487"/>
      <point x="265" y="470"/>
      <point x="281" y="468" type="curve" smooth="yes"/>
      <point x="296" y="466"/>
      <point x="318" y="465"/>
      <point x="334" y="465" type="curve" smooth="yes"/>
      <point x="372" y="465"/>
      <point x="399" y="469"/>
      <point x="416" y="472" type="curve" smooth="yes"/>
      <point x="419" y="473"/>
      <point x="423" y="474"/>
      <point x="424" y="474" type="curve"/>
      <point x="450" y="474" type="line"/>
    </contour>
  </outline>
</glyph>
<glyph name="grave" format="1">
  <advance width="255"/>
  <unicode hex="0060"/>
  <outline>
    <contour>
      <point x="-2" y="620" type="line"/>
      <point x="4" y="614"/>
      <point x="19" y="600"/>
      <point x="36" y="586" type="curve"/>
      <point x="35" y="586" type="line"/>
      <point x="37" y="584"/>
      <point x="40" y="582"/>
      <point x="42" y="580" type="curve" smooth="yes"/>
      <point x="66" y="558"/>
      <point x="92" y="534"/>
      <point x="103" y="519" type="curve"/>
      <point x="124" y="516"/>
      <point x="143" y="516"/>
      <point x="163" y="516" type="curve" smooth="yes"/>
      <point x="201" y="516"/>
      <point x="245" y="520"/>
      <point x="265" y="525" type="curve"/>
      <point x="255" y="534"/>
      <point x="233" y="558"/>
      <point x="218" y="573" type="curve"/>
      <point x="198" y="593" type="line"/>
      <point x="198" y="592" type="line"/>
      <point x="164" y="627"/>
      <point x="122" y="671"/>
      <point x="80" y="703" type="curve"/>
    </contour>
  </outline>
</glyph>
<glyph name="b" format="1">
  <advance width="464"/>
  <unicode hex="0062"/>
  <outline>
    <contour>
      <point x="182" y="703" type="line"/>
      <point x="182" y="707"/>
      <point x="142" y="713"/>
      <point x="99" y="713" type="curve" smooth="yes"/>
      <point x="80" y="713"/>
      <point x="54" y="712"/>
      <point x="26" y="706" type="curve"/>
      <point x="26" y="638" type="line"/>
      <point x="26" y="554"/>
      <point x="24" y="446"/>
      <point x="22" y="362" type="curve" smooth="yes"/>
      <point x="20" y="279"/>
      <point x="19" y="199"/>
      <point x="19" y="122" type="curve" smooth="yes"/>
      <point x="19" y="81"/>
      <point x="19" y="35"/>
      <point x="20" y="-4" type="curve"/>
      <point x="48" y="-4" type="line"/>
      <point x="119" y="-6" type="line"/>
      <point x="140" y="-6"/>
      <point x="161" y="-5"/>
      <point x="181" y="-2" type="curve"/>
      <point x="186" y="3"/>
      <point x="186" y="5"/>
      <point x="186" y="9" type="curve"/>
      <point x="186" y="24" type="line"/>
      <point x="186" y="34" type="line"/>
      <point x="209" y="4"/>
      <point x="239" y="-6"/>
      <point x="277" y="-2" type="curve"/>
      <point x="276" y="-2" type="line"/>
      <point x="437" y="14"/>
      <point x="453" y="151"/>
      <point x="458" y="285" type="curve"/>
      <point x="458" y="378"/>
      <point x="431" y="468"/>
      <point x="367" y="493" type="curve" smooth="yes"/>
      <point x="340" y="503"/>
      <point x="306" y="507"/>
      <point x="272" y="507" type="curve" smooth="yes"/>
      <point x="238" y="507"/>
      <point x="206" y="502"/>
      <point x="185" y="496" type="curve"/>
      <point x="185" y="525"/>
      <point x="186" y="539"/>
      <point x="186" y="555" type="curve" smooth="yes"/>
      <point x="186" y="598"/>
      <point x="184" y="681"/>
      <point x="182" y="692" type="curve"/>
    </contour>
    <contour>
      <point x="313" y="310" type="line"/>
      <point x="308" y="313" type="line"/>
      <point x="314" y="297"/>
      <point x="314" y="276"/>
      <point x="314" y="257" type="curve" smooth="yes"/>
      <point x="314" y="193"/>
      <point x="286" y="131"/>
      <point x="238" y="131" type="curve" smooth="yes"/>
      <point x="184" y="131"/>
      <point x="181" y="190"/>
      <point x="181" y="271" type="curve" smooth="yes"/>
      <point x="181" y="370"/>
      <point x="184" y="381"/>
      <point x="227" y="381" type="curve" smooth="yes"/>
      <point x="272" y="381"/>
      <point x="300" y="358"/>
      <point x="307" y="314" type="curve"/>
    </contour>
  </outline>
</glyph>
<glyph name="d" format="1">
  <advance width="463"/>
  <unicode hex="0064"/>
  <outline>
    <contour>
      <point x="282" y="692" type="line"/>
      <point x="278" y="632"/>
      <point x="277" y="619"/>
      <point x="277" y="597" type="curve" smooth="yes"/>
      <point x="277" y="584"/>
      <point x="277" y="558"/>
      <point x="278" y="533" type="curve" smooth="yes"/>
      <point x="278" y="522"/>
      <point x="279" y="511"/>
      <point x="279" y="498" type="curve"/>
      <point x="258" y="504"/>
      <point x="226" y="507"/>
      <point x="192" y="507" type="curve" smooth="yes"/>
      <point x="158" y="507"/>
      <point x="124" y="503"/>
      <point x="97" y="493" type="curve" smooth="yes"/>
      <point x="33" y="468"/>
      <point x="6" y="378"/>
      <point x="6" y="285" type="curve"/>
      <point x="9" y="151"/>
      <point x="31" y="12"/>
      <point x="188" y="-2" type="curve"/>
      <point x="187" y="-2" type="line"/>
      <point x="225" y="-6"/>
      <point x="252" y="-1"/>
      <point x="275" y="29" type="curve"/>
      <point x="277" y="32" type="line"/>
      <point x="278" y="9" type="line"/>
      <point x="278" y="5"/>
      <point x="278" y="3"/>
      <point x="283" y="-2" type="curve"/>
      <point x="374" y="-6"/>
      <point x="382" y="-5"/>
      <point x="390" y="-5" type="curve" smooth="yes"/>
      <point x="397" y="-5"/>
      <point x="407" y="-4"/>
      <point x="416" y="-4" type="curve"/>
      <point x="444" y="-4" type="line"/>
      <point x="445" y="35"/>
      <point x="445" y="81"/>
      <point x="445" y="122" type="curve" smooth="yes"/>
      <point x="445" y="191"/>
      <point x="444" y="286"/>
      <point x="442" y="361" type="curve" smooth="yes"/>
      <point x="440" y="452"/>
      <point x="438" y="545"/>
      <point x="438" y="638" type="curve"/>
      <point x="438" y="706" type="line"/>
      <point x="410" y="712"/>
      <point x="384" y="713"/>
      <point x="365" y="713" type="curve" smooth="yes"/>
      <point x="322" y="713"/>
      <point x="282" y="707"/>
      <point x="282" y="703" type="curve"/>
    </contour>
    <contour>
      <point x="156" y="310" type="line"/>
      <point x="163" y="357"/>
      <point x="192" y="381"/>
      <point x="237" y="381" type="curve" smooth="yes"/>
      <point x="280" y="381"/>
      <point x="283" y="370"/>
      <point x="283" y="271" type="curve" smooth="yes"/>
      <point x="283" y="190"/>
      <point x="280" y="131"/>
      <point x="226" y="131" type="curve" smooth="yes"/>
      <point x="178" y="131"/>
      <point x="150" y="193"/>
      <point x="150" y="257" type="curve" smooth="yes"/>
      <point x="150" y="276"/>
      <point x="150" y="297"/>
      <point x="156" y="313" type="curve"/>
    </contour>
  </outline>
</glyph>
<glyph name="e" format="1">
  <advance width="444"/>
  <unicode hex="0065"/>
  <outline>
    <contour>
      <point x="171" y="243" type="line"/>
      <point x="202" y="243" type="line"/>
      <point x="225" y="243" type="line"/>
      <point x="303" y="243"/>
      <point x="414" y="250"/>
      <point x="439" y="257" type="curve"/>
      <point x="440" y="273"/>
      <point x="441" y="289"/>
      <point x="441" y="302" type="curve" smooth="yes"/>
      <point x="441" y="399"/>
      <point x="403" y="490"/>
      <point x="293" y="512" type="curve"/>
      <point x="272" y="517"/>
      <point x="247" y="520"/>
      <point x="223" y="520" type="curve" smooth="yes"/>
      <point x="139" y="520"/>
      <point x="57" y="488"/>
      <point x="29" y="425" type="curve"/>
      <point x="-13" y="301"/>
      <point x="-5" y="90"/>
      <point x="99" y="7" type="curve"/>
      <point x="118" y="-4"/>
      <point x="139" y="-12"/>
      <point x="161" y="-15" type="curve"/>
      <point x="175" y="-15"/>
      <point x="192" y="-15"/>
      <point x="208" y="-16" type="curve" smooth="yes"/>
      <point x="225" y="-17"/>
      <point x="243" y="-18"/>
      <point x="261" y="-18" type="curve" smooth="yes"/>
      <point x="319" y="-18"/>
      <point x="377" y="-9"/>
      <point x="406" y="31" type="curve"/>
      <point x="433" y="68"/>
      <point x="437" y="151"/>
      <point x="437" y="192" type="curve"/>
      <point x="343" y="197" type="line"/>
      <point x="326" y="196"/>
      <point x="303" y="196"/>
      <point x="281" y="199" type="curve"/>
      <point x="284" y="136"/>
      <point x="261" y="110"/>
      <point x="236" y="110" type="curve" smooth="yes"/>
      <point x="217" y="110"/>
      <point x="199" y="121"/>
      <point x="188" y="141" type="curve"/>
      <point x="172" y="166"/>
      <point x="172" y="187"/>
      <point x="171" y="222" type="curve"/>
    </contour>
    <contour>
      <point x="273" y="401" type="line"/>
      <point x="291" y="392"/>
      <point x="301" y="369"/>
      <point x="301" y="341" type="curve"/>
      <point x="301" y="337" type="line"/>
      <point x="301" y="332"/>
      <point x="301" y="332"/>
      <point x="296" y="333" type="curve"/>
      <point x="283" y="333" type="line"/>
      <point x="275" y="333"/>
      <point x="265" y="334"/>
      <point x="253" y="334" type="curve"/>
      <point x="209" y="334" type="line"/>
      <point x="170" y="333"/>
      <point x="171" y="333"/>
      <point x="174" y="350" type="curve"/>
      <point x="178" y="384"/>
      <point x="191" y="411"/>
      <point x="242" y="411" type="curve" smooth="yes"/>
      <point x="252" y="411"/>
      <point x="259" y="408"/>
      <point x="269" y="402" type="curve"/>
    </contour>
  </outline>
</glyph>
<glyph name="i" format="1">
  <advance width="207"/>
  <unicode hex="0069"/>
  <outline>
    <contour>
      <point x="159" y="508" type="line"/>
      <point x="115" y="507"/>
      <point x="84" y="509"/>
      <point x="62" y="510" type="curve"/>
      <point x="50" y="512"/>
      <point x="36" y="511"/>
      <point x="24" y="509" type="curve"/>
      <point x="20" y="463"/>
      <point x="18" y="416"/>
      <point x="18" y="366" type="curve" smooth="yes"/>
      <point x="18" y="333"/>
      <point x="19" y="282"/>
      <point x="20" y="248" type="curve" smooth="yes"/>
      <point x="21" y="207"/>
      <point x="22" y="166"/>
      <point x="22" y="124" type="curve" smooth="yes"/>
      <point x="22" y="82"/>
      <point x="20" y="29"/>
      <point x="17" y="-11" type="curve"/>
      <point x="40" y="-4"/>
      <point x="64" y="-4"/>
      <point x="83" y="-5" type="curve" smooth="yes"/>
      <point x="95" y="-6"/>
      <point x="113" y="-6"/>
      <point x="126" y="-6" type="curve" smooth="yes"/>
      <point x="156" y="-6"/>
      <point x="181" y="-5"/>
      <point x="189" y="6" type="curve"/>
      <point x="186" y="55"/>
      <point x="185" y="106"/>
      <point x="185" y="157" type="curve" smooth="yes"/>
      <point x="185" y="200"/>
      <point x="186" y="249"/>
      <point x="187" y="295" type="curve" smooth="yes"/>
      <point x="187" y="310"/>
      <point x="188" y="337"/>
      <point x="188" y="351" type="curve" smooth="yes"/>
      <point x="189" y="401"/>
      <point x="190" y="454"/>
      <point x="190" y="503" type="curve"/>
    </contour>
    <contour>
      <point x="20" y="726" type="line"/>
      <point x="19" y="697"/>
      <point x="20" y="668"/>
      <point x="21" y="648" type="curve" smooth="yes"/>
      <point x="21" y="643"/>
      <point x="22" y="637"/>
      <point x="22" y="632" type="curve" smooth="yes"/>
      <point x="23" y="615"/>
      <point x="24" y="593"/>
      <point x="24" y="577" type="curve"/>
      <point x="38" y="578"/>
      <point x="54" y="578"/>
      <point x="64" y="578" type="curve" smooth="yes"/>
      <point x="77" y="578"/>
      <point x="88" y="578"/>
      <point x="98" y="577" type="curve" smooth="yes"/>
      <point x="111" y="576"/>
      <point x="125" y="575"/>
      <point x="136" y="575" type="curve" smooth="yes"/>
      <point x="162" y="575"/>
      <point x="183" y="567"/>
      <point x="191" y="578" type="curve"/>
      <point x="191" y="602"/>
      <point x="188" y="650"/>
      <point x="187" y="678" type="curve" smooth="yes"/>
      <point x="186" y="696"/>
      <point x="186" y="716"/>
      <point x="186" y="723" type="curve"/>
    </contour>
  </outline>
</glyph>
<glyph name="j" format="1">
  <advance width="204"/>
  <unicode hex="006A"/>
  <outline>
    <contour>
      <point x="23" y="363" type="line"/>
      <point x="20" y="304"/>
      <point x="20" y="228"/>
      <point x="20" y="153" type="curve" smooth="yes"/>
      <point x="20" y="95"/>
      <point x="20" y="39"/>
      <point x="19" y="-10" type="curve"/>
      <point x="-5" y="-42"/>
      <point x="-89" y="-49"/>
      <point x="-135" y="-46" type="curve"/>
      <point x="-135" y="-47"/>
      <point x="-136" y="-54"/>
      <point x="-136" y="-55" type="curve"/>
      <point x="-136" y="-58" type="line"/>
      <point x="-139" y="-79"/>
      <point x="-142" y="-108"/>
      <point x="-142" y="-133" type="curve" smooth="yes"/>
      <point x="-142" y="-151"/>
      <point x="-141" y="-168"/>
      <point x="-133" y="-191" type="curve"/>
      <point x="-120" y="-192"/>
      <point x="-94" y="-193"/>
      <point x="-80" y="-193" type="curve" smooth="yes"/>
      <point x="24" y="-193"/>
      <point x="138" y="-174"/>
      <point x="170" y="-98" type="curve"/>
      <point x="182" y="-24"/>
      <point x="184" y="48"/>
      <point x="184" y="124" type="curve"/>
      <point x="184" y="264" type="line"/>
      <point x="183" y="273"/>
      <point x="183" y="285"/>
      <point x="183" y="298" type="curve" smooth="yes"/>
      <point x="183" y="317"/>
      <point x="183" y="338"/>
      <point x="184" y="361" type="curve"/>
      <point x="184" y="394" type="line"/>
      <point x="184" y="405"/>
      <point x="185" y="417"/>
      <point x="185" y="428" type="curve" smooth="yes"/>
      <point x="185" y="457"/>
      <point x="184" y="484"/>
      <point x="182" y="504" type="curve"/>
      <point x="171" y="505"/>
      <point x="160" y="506"/>
      <point x="144" y="506" type="curve" smooth="yes"/>
      <point x="132" y="506"/>
      <point x="118" y="505"/>
      <point x="106" y="504" type="curve" smooth="yes"/>
      <point x="102" y="504"/>
      <point x="98" y="503"/>
      <point x="94" y="503" type="curve" smooth="yes"/>
      <point x="83" y="502"/>
      <point x="72" y="501"/>
      <point x="59" y="501" type="curve" smooth="yes"/>
      <point x="50" y="501"/>
      <point x="39" y="501"/>
      <point x="23" y="504" type="curve"/>
    </contour>
    <contour>
      <point x="17" y="726" type="line"/>
      <point x="16" y="697"/>
      <point x="17" y="668"/>
      <point x="18" y="648" type="curve" smooth="yes"/>
      <point x="18" y="643"/>
      <point x="19" y="637"/>
      <point x="19" y="632" type="curve" smooth="yes"/>
      <point x="20" y="615"/>
      <point x="21" y="593"/>
      <point x="21" y="577" type="curve"/>
      <point x="33" y="578"/>
      <point x="47" y="578"/>
      <point x="59" y="578" type="curve" smooth="yes"/>
      <point x="72" y="578"/>
      <point x="84" y="578"/>
      <point x="93" y="577" type="curve" smooth="yes"/>
      <point x="105" y="576"/>
      <point x="121" y="575"/>
      <point x="132" y="575" type="curve" smooth="yes"/>
      <point x="157" y="575"/>
      <point x="175" y="580"/>
      <point x="183" y="591" type="curve"/>
      <point x="183" y="615"/>
      <point x="182" y="650"/>
      <point x="181" y="678" type="curve" smooth="yes"/>
      <point x="180" y="696"/>
      <point x="180" y="716"/>
      <point x="180" y="723" type="curve"/>
    </contour>
  </outline>
</glyph>
<glyph name="m" format="1">
  <advance width="684"/>
  <unicode hex="006D"/>
  <outline>
    <contour>
      <point x="183" y="465" type="line"/>
      <point x="183" y="473"/>
      <point x="183" y="488"/>
      <point x="181" y="500" type="curve"/>
      <point x="178" y="510"/>
      <point x="146" y="508"/>
      <point x="121" y="505" type="curve" smooth="yes"/>
      <point x="114" y="504"/>
      <point x="107" y="503"/>
      <point x="104" y="503" type="curve" smooth="yes"/>
      <point x="88" y="501"/>
      <point x="79" y="501"/>
      <point x="71" y="501" type="curve" smooth="yes"/>
      <point x="62" y="501"/>
      <point x="53" y="501"/>
      <point x="21" y="505" type="curve"/>
      <point x="20" y="460"/>
      <point x="19" y="409"/>
      <point x="19" y="366" type="curve" smooth="yes"/>
      <point x="19" y="299"/>
      <point x="20" y="234"/>
      <point x="21" y="169" type="curve" smooth="yes"/>
      <point x="22" y="111"/>
      <point x="22" y="48"/>
      <point x="22" y="-9" type="curve"/>
      <point x="44" y="-7"/>
      <point x="55" y="-7"/>
      <point x="67" y="-7" type="curve" smooth="yes"/>
      <point x="77" y="-7"/>
      <point x="87" y="-7"/>
      <point x="96" y="-8" type="curve" smooth="yes"/>
      <point x="119" y="-9"/>
      <point x="137" y="-9"/>
      <point x="176" y="1" type="curve"/>
      <point x="179" y="27"/>
      <point x="180" y="55"/>
      <point x="180" y="81" type="curve" smooth="yes"/>
      <point x="180" y="106"/>
      <point x="179" y="131"/>
      <point x="178" y="156" type="curve" smooth="yes"/>
      <point x="177" y="180"/>
      <point x="176" y="204"/>
      <point x="176" y="229" type="curve" smooth="yes"/>
      <point x="176" y="244"/>
      <point x="176" y="260"/>
      <point x="177" y="275" type="curve" smooth="yes"/>
      <point x="179" y="319"/>
      <point x="204" y="331"/>
      <point x="224" y="331" type="curve" smooth="yes"/>
      <point x="234" y="331"/>
      <point x="242" y="329"/>
      <point x="247" y="326" type="curve"/>
      <point x="265" y="314"/>
      <point x="268" y="275"/>
      <point x="270" y="243" type="curve"/>
      <point x="270" y="234"/>
      <point x="271" y="232"/>
      <point x="271" y="230" type="curve" smooth="yes"/>
      <point x="273" y="208"/>
      <point x="273" y="184"/>
      <point x="273" y="159" type="curve"/>
      <point x="273" y="109" type="line"/>
      <point x="273" y="68"/>
      <point x="273" y="23"/>
      <point x="275" y="-7" type="curve"/>
      <point x="322" y="-7" type="line"/>
      <point x="347" y="-8"/>
      <point x="389" y="-7"/>
      <point x="430" y="-1" type="curve"/>
      <point x="429" y="18"/>
      <point x="428" y="44"/>
      <point x="428" y="68" type="curve" smooth="yes"/>
      <point x="428" y="98"/>
      <point x="429" y="130"/>
      <point x="430" y="163" type="curve" smooth="yes"/>
      <point x="431" y="207"/>
      <point x="432" y="251"/>
      <point x="432" y="293" type="curve"/>
      <point x="438" y="327"/>
      <point x="450" y="331"/>
      <point x="460" y="331" type="curve" smooth="yes"/>
      <point x="490" y="331"/>
      <point x="498" y="310"/>
      <point x="505" y="243" type="curve"/>
      <point x="508" y="215"/>
      <point x="508" y="190"/>
      <point x="508" y="159" type="curve"/>
      <point x="508" y="109" type="line"/>
      <point x="508" y="68"/>
      <point x="508" y="23"/>
      <point x="510" y="-7" type="curve"/>
      <point x="557" y="-7" type="line"/>
      <point x="582" y="-8"/>
      <point x="624" y="-7"/>
      <point x="665" y="-1" type="curve"/>
      <point x="664" y="20"/>
      <point x="663" y="48"/>
      <point x="663" y="75" type="curve" smooth="yes"/>
      <point x="663" y="107"/>
      <point x="664" y="142"/>
      <point x="665" y="178" type="curve" smooth="yes"/>
      <point x="666" y="220"/>
      <point x="667" y="263"/>
      <point x="667" y="303" type="curve" smooth="yes"/>
      <point x="667" y="383"/>
      <point x="661" y="448"/>
      <point x="639" y="468" type="curve" smooth="yes"/>
      <point x="613" y="491"/>
      <point x="576" y="500"/>
      <point x="537" y="500" type="curve" smooth="yes"/>
      <point x="493" y="500"/>
      <point x="450" y="486"/>
      <point x="419" y="465" type="curve" smooth="yes"/>
      <point x="415" y="462"/>
      <point x="412" y="460"/>
      <point x="410" y="459" type="curve"/>
      <point x="409" y="461"/>
      <point x="411" y="460"/>
      <point x="410" y="461" type="curve" smooth="yes"/>
      <point x="407" y="464"/>
      <point x="404" y="467"/>
      <point x="404" y="468" type="curve"/>
      <point x="378" y="491"/>
      <point x="341" y="500"/>
      <point x="302" y="500" type="curve" smooth="yes"/>
      <point x="260" y="500"/>
      <point x="215" y="486"/>
      <point x="184" y="465" type="curve"/>
      <point x="183" y="465"/>
      <point x="184" y="464"/>
      <point x="183" y="464" type="curve"/>
    </contour>
  </outline>
</glyph>
<glyph name="o" format="1">
  <advance width="448"/>
  <unicode hex="006F"/>
  <outline>
    <contour>
      <point x="35" y="461" type="curve"/>
      <point x="21" y="452"/>
      <point x="5" y="360"/>
      <point x="9" y="325" type="curve"/>
      <point x="10" y="211" type="line"/>
      <point x="10" y="147"/>
      <point x="19" y="77"/>
      <point x="65" y="33" type="curve"/>
      <point x="88" y="13"/>
      <point x="121" y="-5"/>
      <point x="158" y="-12" type="curve"/>
      <point x="173" y="-12"/>
      <point x="191" y="-13"/>
      <point x="207" y="-14" type="curve" smooth="yes"/>
      <point x="224" y="-15"/>
      <point x="243" y="-16"/>
      <point x="260" y="-16" type="curve" smooth="yes"/>
      <point x="318" y="-16"/>
      <point x="376" y="-7"/>
      <point x="405" y="34" type="curve"/>
      <point x="431" y="64"/>
      <point x="436" y="177"/>
      <point x="439" y="255" type="curve" smooth="yes"/>
      <point x="439" y="314"/>
      <point x="444" y="433"/>
      <point x="392" y="474" type="curve"/>
      <point x="365" y="501"/>
      <point x="319" y="515"/>
      <point x="275" y="518" type="curve"/>
      <point x="264" y="520"/>
      <point x="244" y="519"/>
      <point x="233" y="518" type="curve" smooth="yes"/>
      <point x="225" y="518"/>
      <point x="202" y="518"/>
      <point x="197" y="519" type="curve"/>
      <point x="126" y="519"/>
      <point x="51" y="501"/>
    </contour>
    <contour>
      <point x="180" y="333" type="curve"/>
      <point x="184" y="346"/>
      <point x="200" y="352"/>
      <point x="209" y="355" type="curve"/>
      <point x="247" y="364"/>
      <point x="274" y="342"/>
      <point x="281" y="301" type="curve" smooth="yes"/>
      <point x="284" y="287"/>
      <point x="285" y="272"/>
      <point x="285" y="258" type="curve" smooth="yes"/>
      <point x="285" y="235"/>
      <point x="282" y="210"/>
      <point x="279" y="185" type="curve" smooth="yes"/>
      <point x="279" y="183"/>
      <point x="278" y="181"/>
      <point x="278" y="180" type="curve" smooth="yes"/>
      <point x="273" y="164"/>
      <point x="267" y="149"/>
      <point x="263" y="147" type="curve" smooth="yes"/>
      <point x="252" y="142"/>
      <point x="237" y="138"/>
      <point x="223" y="138" type="curve" smooth="yes"/>
      <point x="197" y="138"/>
      <point x="172" y="157"/>
      <point x="170" y="188" type="curve"/>
      <point x="171" y="203"/>
      <point x="172" y="229"/>
      <point x="172" y="243" type="curve" smooth="yes"/>
      <point x="172" y="248"/>
      <point x="173" y="258"/>
      <point x="173" y="263" type="curve" smooth="yes"/>
      <point x="174" y="280"/>
      <point x="174" y="302"/>
      <point x="176" y="317" type="curve" smooth="yes"/>
      <point x="178" y="326"/>
      <point x="180" y="334"/>
    </contour>
  </outline>
</glyph>
<glyph name="p" format="1">
  <advance width="464"/>
  <unicode hex="0070"/>
  <outline>
    <contour>
      <point x="182" y="-203" type="curve"/>
      <point x="183" y="-171"/>
      <point x="184" y="-159"/>
      <point x="185" y="-149" type="curve"/>
      <point x="187" y="-109"/>
      <point x="188" y="-81"/>
      <point x="186" y="-33" type="curve" smooth="yes"/>
      <point x="186" y="-22"/>
      <point x="185" y="-11"/>
      <point x="185" y="2" type="curve"/>
      <point x="206" y="-4"/>
      <point x="238" y="-7"/>
      <point x="272" y="-7" type="curve" smooth="yes"/>
      <point x="306" y="-7"/>
      <point x="340" y="-3"/>
      <point x="367" y="7" type="curve" smooth="yes"/>
      <point x="431" y="32"/>
      <point x="458" y="122"/>
      <point x="458" y="215" type="curve"/>
      <point x="453" y="349"/>
      <point x="437" y="486"/>
      <point x="276" y="502" type="curve"/>
      <point x="239" y="506"/>
      <point x="210" y="512"/>
      <point x="186" y="481" type="curve"/>
      <point x="186" y="493"/>
      <point x="186" y="502"/>
      <point x="185" y="503" type="curve"/>
      <point x="74" y="505" type="line"/>
      <point x="67" y="505"/>
      <point x="57" y="504"/>
      <point x="48" y="504" type="curve"/>
      <point x="20" y="504" type="line"/>
      <point x="19" y="465"/>
      <point x="19" y="419"/>
      <point x="19" y="378" type="curve" smooth="yes"/>
      <point x="19" y="309"/>
      <point x="20" y="214"/>
      <point x="22" y="138" type="curve" smooth="yes"/>
      <point x="24" y="47"/>
      <point x="26" y="-45"/>
      <point x="26" y="-138" type="curve"/>
      <point x="26" y="-207" type="line"/>
      <point x="60" y="-218"/>
      <point x="168" y="-213"/>
    </contour>
    <contour>
      <point x="308" y="187" type="curve" smooth="yes"/>
      <point x="301" y="143"/>
      <point x="272" y="119"/>
      <point x="227" y="119" type="curve" smooth="yes"/>
      <point x="184" y="119"/>
      <point x="181" y="130"/>
      <point x="181" y="229" type="curve" smooth="yes"/>
      <point x="181" y="310"/>
      <point x="184" y="369"/>
      <point x="238" y="369" type="curve" smooth="yes"/>
      <point x="286" y="369"/>
      <point x="314" y="307"/>
      <point x="314" y="243" type="curve" smooth="yes"/>
      <point x="314" y="224"/>
      <point x="313" y="219"/>
    </contour>
  </outline>
</glyph>
<glyph name="q" format="1">
  <advance width="463"/>
  <unicode hex="0071"/>
  <outline>
    <contour>
      <point x="282" y="-203" type="line"/>
      <point x="282" y="-207"/>
      <point x="322" y="-213"/>
      <point x="365" y="-213" type="curve" smooth="yes"/>
      <point x="386" y="-213"/>
      <point x="412" y="-212"/>
      <point x="438" y="-207" type="curve"/>
      <point x="438" y="-138" type="line"/>
      <point x="438" y="-54"/>
      <point x="440" y="54"/>
      <point x="442" y="138" type="curve" smooth="yes"/>
      <point x="444" y="221"/>
      <point x="445" y="301"/>
      <point x="445" y="378" type="curve" smooth="yes"/>
      <point x="445" y="419"/>
      <point x="445" y="465"/>
      <point x="444" y="504" type="curve"/>
      <point x="416" y="504" type="line"/>
      <point x="339" y="507"/>
      <point x="311" y="506"/>
      <point x="283" y="502" type="curve"/>
      <point x="278" y="497"/>
      <point x="278" y="493"/>
      <point x="278" y="491" type="curve"/>
      <point x="278" y="476" type="line"/>
      <point x="255" y="495"/>
      <point x="225" y="506"/>
      <point x="187" y="502" type="curve"/>
      <point x="31" y="488"/>
      <point x="9" y="349"/>
      <point x="6" y="215" type="curve"/>
      <point x="6" y="122"/>
      <point x="33" y="32"/>
      <point x="97" y="7" type="curve" smooth="yes"/>
      <point x="124" y="-3"/>
      <point x="158" y="-7"/>
      <point x="192" y="-7" type="curve" smooth="yes"/>
      <point x="225" y="-7"/>
      <point x="258" y="-3"/>
      <point x="279" y="3" type="curve"/>
      <point x="279" y="-26"/>
      <point x="278" y="-39"/>
      <point x="278" y="-55" type="curve" smooth="yes"/>
      <point x="278" y="-108"/>
      <point x="277" y="-144"/>
      <point x="282" y="-192" type="curve"/>
    </contour>
    <contour>
      <point x="156" y="187" type="curve" smooth="yes"/>
      <point x="150" y="203"/>
      <point x="150" y="224"/>
      <point x="150" y="243" type="curve" smooth="yes"/>
      <point x="150" y="307"/>
      <point x="178" y="369"/>
      <point x="226" y="369" type="curve" smooth="yes"/>
      <point x="280" y="369"/>
      <point x="283" y="310"/>
      <point x="283" y="229" type="curve" smooth="yes"/>
      <point x="283" y="130"/>
      <point x="280" y="119"/>
      <point x="237" y="119" type="curve" smooth="yes"/>
      <point x="192" y="119"/>
      <point x="167" y="157"/>
    </contour>
  </outline>
</glyph>
<glyph name="r" format="1">
  <advance width="368"/>
  <unicode hex="0072"/>
  <outline>
    <contour>
      <point x="188" y="480" type="line"/>
      <point x="188" y="487"/>
      <point x="187" y="496"/>
      <point x="187" y="504" type="curve" smooth="yes"/>
      <point x="187" y="509"/>
      <point x="151" y="507"/>
      <point x="123" y="504" type="curve" smooth="yes"/>
      <point x="106" y="502"/>
      <point x="83" y="501"/>
      <point x="72" y="501" type="curve" smooth="yes"/>
      <point x="63" y="501"/>
      <point x="54" y="501"/>
      <point x="22" y="505" type="curve"/>
      <point x="21" y="460"/>
      <point x="20" y="409"/>
      <point x="20" y="366" type="curve" smooth="yes"/>
      <point x="20" y="299"/>
      <point x="21" y="234"/>
      <point x="22" y="169" type="curve" smooth="yes"/>
      <point x="23" y="111"/>
      <point x="23" y="48"/>
      <point x="23" y="-9" type="curve"/>
      <point x="45" y="-7"/>
      <point x="58" y="-7"/>
      <point x="69" y="-7" type="curve" smooth="yes"/>
      <point x="81" y="-7"/>
      <point x="91" y="-7"/>
      <point x="101" y="-8" type="curve" smooth="yes"/>
      <point x="128" y="-9"/>
      <point x="148" y="-10"/>
      <point x="187" y="1" type="curve"/>
      <point x="187" y="102"/>
      <point x="186" y="177"/>
      <point x="183" y="269" type="curve" smooth="yes"/>
      <point x="181" y="322"/>
      <point x="207" y="336"/>
      <point x="245" y="336" type="curve" smooth="yes"/>
      <point x="257" y="336"/>
      <point x="272" y="335"/>
      <point x="288" y="333" type="curve"/>
      <point x="342" y="320"/>
      <point x="344" y="319"/>
      <point x="346" y="319" type="curve"/>
      <point x="373" y="310" type="line"/>
      <point x="372" y="445" type="line"/>
      <point x="372" y="460"/>
      <point x="373" y="478"/>
      <point x="373" y="497" type="curve" smooth="yes"/>
      <point x="373" y="503"/>
      <point x="274" y="507"/>
      <point x="215" y="489" type="curve" smooth="yes"/>
      <point x="205" y="486"/>
      <point x="197" y="481"/>
      <point x="188" y="479" type="curve"/>
    </contour>
  </outline>
</glyph>
<glyph name="s" format="1">
  <advance width="450"/>
  <unicode hex="0073"/>
  <outline>
    <contour>
      <point x="451" y="341" type="line"/>
      <point x="451" y="416"/>
      <point x="425" y="482"/>
      <point x="358" y="510" type="curve"/>
      <point x="316" y="520"/>
      <point x="268" y="524"/>
      <point x="226" y="524" type="curve" smooth="yes"/>
      <point x="185" y="524"/>
      <point x="146" y="521"/>
      <point x="121" y="514" type="curve" smooth="yes"/>
      <point x="49" y="493"/>
      <point x="6" y="433"/>
      <point x="6" y="373" type="curve" smooth="yes"/>
      <point x="6" y="318"/>
      <point x="46" y="259"/>
      <point x="122" y="230" type="curve" smooth="yes"/>
      <point x="139" y="223"/>
      <point x="162" y="217"/>
      <point x="184" y="212" type="curve"/>
      <point x="199" y="209" type="line"/>
      <point x="237" y="201"/>
      <point x="276" y="193"/>
      <point x="272" y="154" type="curve"/>
      <point x="274" y="125"/>
      <point x="253" y="108"/>
      <point x="233" y="108" type="curve" smooth="yes"/>
      <point x="206" y="108"/>
      <point x="176" y="129"/>
      <point x="174" y="163" type="curve"/>
      <point x="61" y="166"/>
      <point x="35" y="165"/>
      <point x="-4" y="160" type="curve"/>
      <point x="-4" y="40"/>
      <point x="93" y="-26"/>
      <point x="236" y="-21" type="curve"/>
      <point x="320" y="-22"/>
      <point x="397" y="5"/>
      <point x="429" y="72" type="curve"/>
      <point x="440" y="103"/>
      <point x="445" y="129"/>
      <point x="445" y="150" type="curve" smooth="yes"/>
      <point x="445" y="183"/>
      <point x="435" y="210"/>
      <point x="418" y="238" type="curve"/>
      <point x="382" y="284"/>
      <point x="307" y="298"/>
      <point x="227" y="310" type="curve"/>
      <point x="228" y="310" type="line"/>
      <point x="205" y="319"/>
      <point x="193" y="340"/>
      <point x="193" y="361" type="curve" smooth="yes"/>
      <point x="193" y="380"/>
      <point x="207" y="397"/>
      <point x="227" y="403" type="curve"/>
      <point x="269" y="406"/>
      <point x="283" y="373"/>
      <point x="277" y="343" type="curve"/>
      <point x="332" y="332"/>
      <point x="383" y="328"/>
      <point x="435" y="336" type="curve"/>
    </contour>
  </outline>
</glyph>
<glyph name="t" format="1">
  <advance width="387"/>
  <unicode hex="0074"/>
  <outline>
    <contour>
      <point x="230" y="691" type="line"/>
      <point x="210" y="688"/>
      <point x="200" y="688"/>
      <point x="191" y="688" type="curve" smooth="yes"/>
      <point x="177" y="688"/>
      <point x="166" y="689"/>
      <point x="154" y="690" type="curve" smooth="yes"/>
      <point x="152" y="690"/>
      <point x="149" y="691"/>
      <point x="147" y="691" type="curve" smooth="yes"/>
      <point x="136" y="692"/>
      <point x="121" y="693"/>
      <point x="109" y="693" type="curve" smooth="yes"/>
      <point x="93" y="693"/>
      <point x="82" y="692"/>
      <point x="71" y="691" type="curve"/>
      <point x="70" y="500" type="line"/>
      <point x="49" y="500"/>
      <point x="26" y="500"/>
      <point x="-1" y="501" type="curve"/>
      <point x="-4" y="369" type="line"/>
      <point x="26" y="369" type="line"/>
      <point x="42" y="369"/>
      <point x="55" y="368"/>
      <point x="68" y="369" type="curve"/>
      <point x="68" y="319" type="line"/>
      <point x="68" y="240"/>
      <point x="70" y="167"/>
      <point x="83" y="89" type="curve"/>
      <point x="115" y="13"/>
      <point x="229" y="-6"/>
      <point x="333" y="-6" type="curve" smooth="yes"/>
      <point x="347" y="-6"/>
      <point x="373" y="-5"/>
      <point x="386" y="-4" type="curve"/>
      <point x="394" y="19"/>
      <point x="395" y="36"/>
      <point x="395" y="54" type="curve" smooth="yes"/>
      <point x="395" y="80"/>
      <point x="392" y="108"/>
      <point x="389" y="129" type="curve"/>
      <point x="389" y="128" type="line"/>
      <point x="389" y="129"/>
      <point x="388" y="130"/>
      <point x="388" y="132" type="curve"/>
      <point x="388" y="141" type="line"/>
      <point x="342" y="138"/>
      <point x="258" y="145"/>
      <point x="232" y="177" type="curve"/>
      <point x="233" y="213"/>
      <point x="233" y="327"/>
      <point x="233" y="372" type="curve"/>
      <point x="389" y="372" type="line"/>
      <point x="386" y="387"/>
      <point x="387" y="402"/>
      <point x="388" y="417" type="curve" smooth="yes"/>
      <point x="388" y="420"/>
      <point x="389" y="425"/>
      <point x="389" y="428" type="curve" smooth="yes"/>
      <point x="392" y="460"/>
      <point x="391" y="472"/>
      <point x="387" y="505" type="curve"/>
      <point x="378" y="504"/>
      <point x="349" y="506"/>
      <point x="337" y="505" type="curve" smooth="yes"/>
      <point x="332" y="505"/>
      <point x="327" y="504"/>
      <point x="323" y="504" type="curve" smooth="yes"/>
      <point x="285" y="501"/>
      <point x="259" y="500"/>
      <point x="231" y="499" type="curve"/>
      <point x="231" y="504"/>
      <point x="230" y="504"/>
      <point x="230" y="509" type="curve"/>
      <point x="230" y="524" type="line"/>
    </contour>
  </outline>
</glyph>
<glyph name="v" format="1">
  <advance width="429"/>
  <unicode hex="0076"/>
  <outline>
    <contour>
      <point x="164" y="502" type="curve"/>
      <point x="95" y="509"/>
      <point x="52" y="497"/>
      <point x="-7" y="508" type="curve"/>
      <point x="39" y="337"/>
      <point x="74" y="157"/>
      <point x="101" y="-8" type="curve"/>
      <point x="231" y="-10" type="line"/>
      <point x="258" y="-10"/>
      <point x="288" y="-9"/>
      <point x="317" y="-4" type="curve"/>
      <point x="360" y="158"/>
      <point x="388" y="348"/>
      <point x="444" y="502" type="curve"/>
      <point x="382" y="508"/>
      <point x="331" y="501"/>
      <point x="281" y="501" type="curve"/>
      <point x="264" y="457"/>
      <point x="248" y="380"/>
      <point x="237" y="318" type="curve" smooth="yes"/>
      <point x="231" y="281"/>
      <point x="223" y="237"/>
      <point x="216" y="205" type="curve"/>
      <point x="195" y="293"/>
      <point x="182" y="409"/>
    </contour>
  </outline>
</glyph>
<glyph name="x" format="1">
  <advance width="413"/>
  <unicode hex="0078"/>
  <outline>
    <contour>
      <point x="436" y="508" type="curve"/>
      <point x="362" y="506"/>
      <point x="271" y="506"/>
      <point x="239" y="502" type="curve"/>
      <point x="224" y="456"/>
      <point x="218" y="413"/>
      <point x="205" y="373" type="curve"/>
      <point x="191" y="416"/>
      <point x="182" y="457"/>
      <point x="173" y="497" type="curve"/>
      <point x="165" y="505"/>
      <point x="101" y="505"/>
      <point x="72" y="505" type="curve" smooth="yes"/>
      <point x="55" y="505"/>
      <point x="16" y="503"/>
      <point x="-14" y="501" type="curve"/>
      <point x="15" y="427"/>
      <point x="52" y="328"/>
      <point x="71" y="247" type="curve"/>
      <point x="13" y="65"/>
      <point x="3" y="35"/>
      <point x="-6" y="3" type="curve"/>
      <point x="39" y="-11"/>
      <point x="79" y="-6"/>
      <point x="119" y="-6" type="curve"/>
      <point x="167" y="-6" type="line"/>
      <point x="197" y="86"/>
      <point x="202" y="106"/>
      <point x="207" y="124" type="curve"/>
      <point x="218" y="82"/>
      <point x="220" y="38"/>
      <point x="241" y="1" type="curve"/>
      <point x="383" y="-4" type="line"/>
      <point x="387" y="-4"/>
      <point x="390" y="-4"/>
      <point x="418" y="-8" type="curve"/>
      <point x="410" y="20"/>
      <point x="396" y="69"/>
      <point x="384" y="105" type="curve" smooth="yes"/>
      <point x="370" y="147"/>
      <point x="354" y="201"/>
      <point x="345" y="246" type="curve"/>
      <point x="361" y="337"/>
      <point x="409" y="423"/>
    </contour>
  </outline>
</glyph>
<glyph name="z" format="1">
  <advance width="456"/>
  <unicode hex="007A"/>
  <outline>
    <contour>
      <point x="440" y="502" type="line"/>
      <point x="81" y="503"/>
      <point x="44" y="502"/>
      <point x="13" y="502" type="curve"/>
      <point x="14" y="462"/>
      <point x="11" y="424"/>
      <point x="11" y="387" type="curve" smooth="yes"/>
      <point x="11" y="377"/>
      <point x="12" y="364"/>
      <point x="13" y="349" type="curve"/>
      <point x="13" y="339" type="line"/>
      <point x="81" y="349"/>
      <point x="170" y="355"/>
      <point x="232" y="358" type="curve"/>
      <point x="167" y="286"/>
      <point x="58" y="194"/>
      <point x="7" y="128" type="curve"/>
      <point x="3" y="92"/>
      <point x="16" y="14"/>
      <point x="9" y="-4" type="curve"/>
      <point x="136" y="-4"/>
      <point x="323" y="-1"/>
      <point x="446" y="2" type="curve"/>
      <point x="446" y="21"/>
      <point x="446" y="58"/>
      <point x="445" y="80" type="curve" smooth="yes"/>
      <point x="444" y="153" type="line"/>
      <point x="232" y="147" type="line"/>
      <point x="298" y="220"/>
      <point x="382" y="292"/>
      <point x="449" y="364" type="curve"/>
      <point x="447" y="401"/>
      <point x="449" y="484"/>
      <point x="449" y="502" type="curve"/>
    </contour>
  </outline>
</glyph>
<glyph name="bar" format="1">
  <advance width="201"/>
  <unicode hex="007C"/>
  <outline>
    <contour>
      <point x="172" y="-33" type="line"/>
      <point x="172" y="-3" type="line"/>
      <point x="172" y="55"/>
      <point x="171" y="202"/>
      <point x="171" y="350" type="curve" smooth="yes"/>
      <point x="170" y="533"/>
      <point x="170" y="724"/>
      <point x="170" y="735" type="curve"/>
      <point x="57" y="730"/>
      <point x="40" y="731"/>
      <point x="30" y="731" type="curve"/>
      <point x="30" y="-30" type="line"/>
      <point x="41" y="-30" type="line"/>
      <point x="73" y="-31"/>
      <point x="116" y="-33"/>
      <point x="148" y="-33" type="curve"/>
    </contour>
  </outline>
</glyph>
<glyph name="braceright" format="1">
  <advance width="318"/>
  <unicode hex="007D"/>
  <outline>
    <contour>
      <point x="25" y="-4" type="line"/>
      <point x="34" y="-5"/>
      <point x="47" y="-6"/>
      <point x="56" y="-6" type="curve" smooth="yes"/>
      <point x="156" y="-6"/>
      <point x="213" y="52"/>
      <point x="210" y="108" type="curve"/>
      <point x="208" y="123"/>
      <point x="206" y="140"/>
      <point x="206" y="157" type="curve" smooth="yes"/>
      <point x="206" y="222"/>
      <point x="225" y="293"/>
      <point x="297" y="289" type="curve" smooth="yes"/>
      <point x="307" y="289"/>
      <point x="314" y="289"/>
      <point x="320" y="295" type="curve"/>
      <point x="323" y="307"/>
      <point x="324" y="321"/>
      <point x="324" y="333" type="curve" smooth="yes"/>
      <point x="324" y="354"/>
      <point x="320" y="378"/>
      <point x="317" y="400" type="curve"/>
      <point x="229" y="391"/>
      <point x="205" y="457"/>
      <point x="205" y="525" type="curve" smooth="yes"/>
      <point x="205" y="536"/>
      <point x="206" y="551"/>
      <point x="207" y="562" type="curve"/>
      <point x="207" y="561" type="line"/>
      <point x="218" y="616"/>
      <point x="186" y="672"/>
      <point x="130" y="681" type="curve" smooth="yes"/>
      <point x="127" y="681"/>
      <point x="121" y="682"/>
      <point x="117" y="682" type="curve" smooth="yes"/>
      <point x="101" y="684"/>
      <point x="83" y="685"/>
      <point x="65" y="685" type="curve" smooth="yes"/>
      <point x="57" y="685"/>
      <point x="39" y="684"/>
      <point x="28" y="683" type="curve" smooth="yes"/>
      <point x="25" y="683"/>
      <point x="18" y="682"/>
      <point x="15" y="682" type="curve"/>
      <point x="11" y="661"/>
      <point x="10" y="644"/>
      <point x="10" y="630" type="curve" smooth="yes"/>
      <point x="10" y="612"/>
      <point x="11" y="597"/>
      <point x="13" y="583" type="curve"/>
      <point x="33" y="576"/>
      <point x="60" y="566"/>
      <point x="65" y="544" type="curve"/>
      <point x="68" y="523"/>
      <point x="68" y="497"/>
      <point x="67" y="476" type="curve" smooth="yes"/>
      <point x="67" y="470"/>
      <point x="66" y="464"/>
      <point x="66" y="459" type="curve"/>
      <point x="66" y="444" type="line"/>
      <point x="66" y="400"/>
      <point x="73" y="362"/>
      <point x="120" y="341" type="curve"/>
      <point x="75" y="312"/>
      <point x="64" y="266"/>
      <point x="67" y="213" type="curve" smooth="yes"/>
      <point x="70" y="170"/>
      <point x="66" y="112"/>
      <point x="10" y="107" type="curve"/>
      <point x="10" y="21"/>
      <point x="10" y="7"/>
      <point x="11" y="-4" type="curve"/>
    </contour>
  </outline>
</glyph>
<glyph name="exclamdown" format="1">
  <advance width="216"/>
  <unicode hex="00A1"/>
  <outline>
    <contour>
      <point x="91" y="635" type="line"/>
      <point x="71" y="635" type="line"/>
      <point x="62" y="635" type="line"/>
      <point x="59" y="635"/>
      <point x="55" y="636"/>
      <point x="51" y="636" type="curve"/>
      <point x="29" y="636" type="line"/>
      <point x="29" y="609"/>
      <point x="28" y="573"/>
      <point x="27" y="545" type="curve" smooth="yes"/>
      <point x="27" y="539"/>
      <point x="26" y="533"/>
      <point x="26" y="527" type="curve"/>
      <point x="26" y="506" type="line"/>
      <point x="38" y="506"/>
      <point x="66" y="505"/>
      <point x="79" y="504" type="curve" smooth="yes"/>
      <point x="93" y="503"/>
      <point x="108" y="502"/>
      <point x="122" y="502" type="curve" smooth="yes"/>
      <point x="141" y="502"/>
      <point x="159" y="503"/>
      <point x="178" y="511" type="curve"/>
      <point x="178" y="527"/>
      <point x="179" y="547"/>
      <point x="181" y="566" type="curve" smooth="yes"/>
      <point x="182" y="579"/>
      <point x="183" y="593"/>
      <point x="183" y="604" type="curve" smooth="yes"/>
      <point x="183" y="623"/>
      <point x="180" y="636"/>
      <point x="166" y="636" type="curve"/>
    </contour>
    <contour>
      <point x="184" y="-75" type="line"/>
      <point x="186" y="286"/>
      <point x="186" y="321"/>
      <point x="186" y="356" type="curve" smooth="yes"/>
      <point x="186" y="391"/>
      <point x="186" y="432"/>
      <point x="187" y="467" type="curve"/>
      <point x="182" y="467"/>
      <point x="169" y="466"/>
      <point x="162" y="466" type="curve"/>
      <point x="142" y="466" type="line"/>
      <point x="135" y="466"/>
      <point x="129" y="465"/>
      <point x="122" y="465" type="curve" smooth="yes"/>
      <point x="95" y="464"/>
      <point x="64" y="464"/>
      <point x="27" y="461" type="curve"/>
      <point x="31" y="384"/>
      <point x="32" y="299"/>
      <point x="32" y="219" type="curve" smooth="yes"/>
      <point x="32" y="126"/>
      <point x="31" y="34"/>
      <point x="28" y="-56" type="curve"/>
      <point x="28" y="-74" type="line"/>
      <point x="50" y="-81"/>
      <point x="68" y="-82"/>
      <point x="86" y="-82" type="curve" smooth="yes"/>
      <point x="97" y="-83"/>
      <point x="156" y="-75"/>
      <point x="168" y="-75" type="curve"/>
    </contour>
  </outline>
</glyph>
<glyph name="cent" format="1">
  <advance width="350"/>
  <unicode hex="00A2"/>
  <outline>
    <contour>
      <point x="194" y="224" type="curve"/>
      <point x="179" y="348"/>
      <point x="199" y="348"/>
      <point x="190" y="449" type="curve"/>
      <point x="190" y="460" type="line"/>
      <point x="208" y="460"/>
      <point x="203" y="400"/>
      <point x="206" y="385" type="curve"/>
      <point x="237" y="379"/>
      <point x="261" y="376"/>
      <point x="278" y="376" type="curve" smooth="yes"/>
      <point x="295" y="376"/>
      <point x="313" y="377"/>
      <point x="333" y="380" type="curve"/>
      <point x="340" y="399"/>
      <point x="342" y="416"/>
      <point x="342" y="430" type="curve" smooth="yes"/>
      <point x="342" y="506"/>
      <point x="290" y="587"/>
      <point x="211" y="588" type="curve"/>
      <point x="211" y="638"/>
      <point x="212" y="644"/>
      <point x="212" y="648" type="curve"/>
      <point x="191" y="664"/>
      <point x="154" y="657"/>
      <point x="147" y="645" type="curve"/>
      <point x="147" y="595" type="line"/>
      <point x="62" y="604"/>
      <point x="11" y="515"/>
      <point x="16" y="442" type="curve"/>
      <point x="16" y="412"/>
      <point x="16" y="386"/>
      <point x="15" y="360" type="curve" smooth="yes"/>
      <point x="15" y="347"/>
      <point x="14" y="335"/>
      <point x="14" y="323" type="curve" smooth="yes"/>
      <point x="14" y="288" type="line" smooth="yes"/>
      <point x="14" y="252"/>
      <point x="15" y="216"/>
      <point x="20" y="175" type="curve" smooth="yes"/>
      <point x="27" y="117"/>
      <point x="91" y="86"/>
      <point x="146" y="86" type="curve"/>
      <point x="146" y="66" type="line" smooth="yes"/>
      <point x="146" y="51"/>
      <point x="146" y="38"/>
      <point x="147" y="32" type="curve"/>
      <point x="171" y="23"/>
      <point x="191" y="20"/>
      <point x="208" y="25" type="curve"/>
      <point x="213" y="37"/>
      <point x="213" y="50"/>
      <point x="212" y="62" type="curve" smooth="yes"/>
      <point x="211" y="71"/>
      <point x="212" y="76"/>
      <point x="213" y="90" type="curve"/>
      <point x="249" y="101"/>
      <point x="329" y="145"/>
      <point x="338" y="205" type="curve"/>
      <point x="339" y="219"/>
      <point x="338" y="239"/>
      <point x="336" y="252" type="curve"/>
      <point x="336" y="251" type="line"/>
      <point x="335" y="262"/>
      <point x="334" y="277"/>
      <point x="334" y="290" type="curve"/>
      <point x="311" y="299"/>
      <point x="286" y="299"/>
      <point x="263" y="298" type="curve" smooth="yes"/>
      <point x="250" y="298"/>
      <point x="214" y="299"/>
      <point x="214" y="299" type="curve"/>
      <point x="212" y="288"/>
      <point x="214" y="268"/>
      <point x="214" y="245" type="curve" smooth="yes"/>
      <point x="214" y="229"/>
      <point x="206" y="222"/>
    </contour>
    <contour>
      <point x="141" y="398" type="qcurve"/>
      <point x="142" y="408"/>
      <point x="142" y="430"/>
      <point x="144" y="450"/>
      <point x="150" y="465"/>
      <point x="156" y="465" type="qcurve"/>
      <point x="157" y="407"/>
      <point x="157" y="284"/>
      <point x="156" y="226" type="qcurve"/>
      <point x="148" y="233"/>
      <point x="142" y="264"/>
      <point x="142" y="279" type="qcurve"/>
      <point x="140" y="309"/>
      <point x="140" y="368"/>
    </contour>
  </outline>
</glyph>
<glyph name="sterling" format="1">
  <advance width="486"/>
  <unicode hex="00A3"/>
  <outline>
    <contour>
      <point x="131" y="373" type="line"/>
      <point x="63" y="376"/>
      <point x="36" y="373"/>
      <point x="7" y="371" type="curve"/>
      <point x="4" y="366"/>
      <point x="4" y="346"/>
      <point x="4" y="339" type="curve" smooth="yes"/>
      <point x="5" y="322"/>
      <point x="6" y="288"/>
      <point x="6" y="234" type="curve"/>
      <point x="18" y="228"/>
      <point x="24" y="231"/>
      <point x="78" y="231" type="curve"/>
      <point x="95" y="231"/>
      <point x="103" y="233"/>
      <point x="133" y="232" type="curve"/>
      <point x="135" y="195"/>
      <point x="137" y="137"/>
      <point x="137" y="86" type="curve" smooth="yes"/>
      <point x="137" y="60"/>
      <point x="137" y="35"/>
      <point x="135" y="12" type="curve"/>
      <point x="154" y="-3"/>
      <point x="225" y="-3"/>
      <point x="378" y="-3" type="curve"/>
      <point x="475" y="-3" type="line"/>
      <point x="475" y="4"/>
      <point x="476" y="17"/>
      <point x="476" y="22" type="curve" smooth="yes"/>
      <point x="476" y="25"/>
      <point x="477" y="33"/>
      <point x="477" y="38" type="curve" smooth="yes"/>
      <point x="478" y="62"/>
      <point x="479" y="103"/>
      <point x="483" y="160" type="curve"/>
      <point x="473" y="162"/>
      <point x="424" y="165"/>
      <point x="375" y="168" type="curve" smooth="yes"/>
      <point x="343" y="170"/>
      <point x="311" y="172"/>
      <point x="293" y="173" type="curve"/>
      <point x="293" y="180"/>
      <point x="287" y="228"/>
      <point x="290" y="227" type="curve"/>
      <point x="335" y="228" type="line"/>
      <point x="352" y="228"/>
      <point x="388" y="229"/>
      <point x="418" y="228" type="curve"/>
      <point x="419" y="284"/>
      <point x="425" y="317"/>
      <point x="421" y="370" type="curve"/>
      <point x="341" y="369"/>
      <point x="343" y="370"/>
      <point x="294" y="370" type="curve" smooth="yes"/>
      <point x="293" y="370"/>
      <point x="290" y="481"/>
      <point x="290" y="520" type="curve" smooth="yes"/>
      <point x="290" y="570"/>
      <point x="289" y="628"/>
      <point x="288" y="682" type="curve"/>
      <point x="243" y="674"/>
      <point x="190" y="674"/>
      <point x="167" y="674" type="curve"/>
      <point x="161" y="674" type="line"/>
      <point x="142" y="674" type="line"/>
      <point x="138" y="662"/>
      <point x="135" y="581"/>
      <point x="135" y="493" type="curve" smooth="yes"/>
      <point x="135" y="451"/>
      <point x="136" y="411"/>
      <point x="138" y="373" type="curve"/>
    </contour>
  </outline>
</glyph>
<glyph name="logicalnot" format="1">
  <advance width="471"/>
  <unicode hex="00AC"/>
  <outline>
    <contour>
      <point x="446" y="246" type="line"/>
      <point x="446" y="277" type="line"/>
      <point x="447" y="330"/>
      <point x="449" y="447"/>
      <point x="449" y="466" type="curve"/>
      <point x="432" y="475"/>
      <point x="363" y="476"/>
      <point x="284" y="476" type="curve"/>
      <point x="227" y="476" type="line"/>
      <point x="146" y="476"/>
      <point x="59" y="477"/>
      <point x="25" y="477" type="curve"/>
      <point x="5" y="477" type="line"/>
      <point x="5" y="451" type="line"/>
      <point x="5" y="442"/>
      <point x="6" y="434"/>
      <point x="6" y="427" type="curve"/>
      <point x="6" y="418" type="line"/>
      <point x="9" y="413"/>
      <point x="239" y="408"/>
      <point x="360" y="407" type="curve"/>
      <point x="360" y="383"/>
      <point x="361" y="359"/>
      <point x="361" y="332" type="curve"/>
      <point x="361" y="272" type="line"/>
      <point x="361" y="246" type="line"/>
    </contour>
  </outline>
</glyph>
<glyph name="threesuperior" format="1">
  <advance width="254"/>
  <unicode hex="00B3"/>
  <outline>
    <contour>
      <point x="38" y="346" type="curve"/>
      <point x="53" y="336"/>
      <point x="74" y="330"/>
      <point x="91" y="328" type="curve" smooth="yes"/>
      <point x="116" y="325"/>
      <point x="151" y="326"/>
      <point x="173" y="332" type="curve" smooth="yes"/>
      <point x="200" y="341"/>
      <point x="218" y="358"/>
      <point x="227" y="376" type="curve" smooth="yes"/>
      <point x="234" y="393"/>
      <point x="233" y="412"/>
      <point x="236" y="431" type="curve"/>
      <point x="236" y="476"/>
      <point x="243" y="587"/>
      <point x="228" y="617" type="curve"/>
      <point x="213" y="643"/>
      <point x="171" y="658"/>
      <point x="128" y="658" type="curve" smooth="yes"/>
      <point x="65" y="658"/>
      <point x="16" y="632"/>
      <point x="13" y="562" type="curve"/>
      <point x="13" y="548" type="line"/>
      <point x="43" y="547" type="line"/>
      <point x="52" y="547"/>
      <point x="67" y="548"/>
      <point x="79" y="548" type="curve"/>
      <point x="101" y="548" type="line"/>
      <point x="106" y="563"/>
      <point x="100" y="578"/>
      <point x="130" y="576" type="curve" smooth="yes"/>
      <point x="135" y="576"/>
      <point x="139" y="570"/>
      <point x="139" y="556" type="curve" smooth="yes"/>
      <point x="139" y="535"/>
      <point x="128" y="527"/>
      <point x="117" y="527" type="curve" smooth="yes"/>
      <point x="106" y="527"/>
      <point x="94" y="528"/>
      <point x="74" y="527" type="curve"/>
      <point x="79" y="498"/>
      <point x="73" y="493"/>
      <point x="77" y="459" type="curve"/>
      <point x="94" y="464"/>
      <point x="125" y="461"/>
      <point x="134" y="452" type="curve"/>
      <point x="143" y="446"/>
      <point x="143" y="430"/>
      <point x="137" y="419" type="curve"/>
      <point x="128" y="407"/>
      <point x="99" y="414"/>
      <point x="102" y="438" type="curve"/>
      <point x="47" y="435"/>
      <point x="32" y="436"/>
      <point x="14" y="436" type="curve"/>
      <point x="16" y="404"/>
      <point x="13" y="367"/>
    </contour>
  </outline>
</glyph>
<glyph name="mu" format="1">
  <advance width="458"/>
  <unicode hex="00B5"/>
  <outline>
    <contour>
      <point x="192" y="0" type="line"/>
      <point x="226" y="4"/>
      <point x="248" y="6"/>
      <point x="276" y="24" type="curve"/>
      <point x="276" y="17"/>
      <point x="277" y="5"/>
      <point x="278" y="-2" type="curve" smooth="yes"/>
      <point x="279" y="-6"/>
      <point x="298" y="-9"/>
      <point x="323" y="-9" type="curve" smooth="yes"/>
      <point x="345" y="-9"/>
      <point x="375" y="-7"/>
      <point x="397" y="-5" type="curve" smooth="yes"/>
      <point x="408" y="-4"/>
      <point x="419" y="-3"/>
      <point x="438" y="-3" type="curve"/>
      <point x="439" y="42"/>
      <point x="440" y="91"/>
      <point x="440" y="134" type="curve" smooth="yes"/>
      <point x="440" y="201"/>
      <point x="439" y="266"/>
      <point x="438" y="331" type="curve" smooth="yes"/>
      <point x="437" y="389"/>
      <point x="437" y="452"/>
      <point x="437" y="509" type="curve"/>
      <point x="407" y="506"/>
      <point x="375" y="505"/>
      <point x="361" y="505" type="curve" smooth="yes"/>
      <point x="346" y="506"/>
      <point x="318" y="505"/>
      <point x="281" y="501" type="curve"/>
      <point x="278" y="478"/>
      <point x="277" y="454"/>
      <point x="277" y="429" type="curve" smooth="yes"/>
      <point x="277" y="404"/>
      <point x="278" y="370"/>
      <point x="280" y="344" type="curve" smooth="yes"/>
      <point x="280" y="335"/>
      <point x="281" y="325"/>
      <point x="281" y="316" type="curve" smooth="yes"/>
      <point x="282" y="297"/>
      <point x="283" y="279"/>
      <point x="283" y="260" type="curve" smooth="yes"/>
      <point x="283" y="248"/>
      <point x="283" y="237"/>
      <point x="282" y="225" type="curve" smooth="yes"/>
      <point x="279" y="181"/>
      <point x="255" y="169"/>
      <point x="235" y="169" type="curve" smooth="yes"/>
      <point x="225" y="169"/>
      <point x="217" y="171"/>
      <point x="213" y="173" type="curve"/>
      <point x="196" y="188"/>
      <point x="191" y="226"/>
      <point x="189" y="257" type="curve" smooth="yes"/>
      <point x="189" y="259"/>
      <point x="188" y="261"/>
      <point x="188" y="263" type="curve"/>
      <point x="188" y="270" type="line"/>
      <point x="186" y="292"/>
      <point x="186" y="316"/>
      <point x="186" y="341" type="curve"/>
      <point x="186" y="391" type="line"/>
      <point x="186" y="432"/>
      <point x="186" y="477"/>
      <point x="184" y="507" type="curve"/>
      <point x="137" y="507" type="line"/>
      <point x="110" y="508"/>
      <point x="69" y="507"/>
      <point x="29" y="501" type="curve"/>
      <point x="30" y="487"/>
      <point x="30" y="469"/>
      <point x="30" y="453" type="curve" smooth="yes"/>
      <point x="30" y="419"/>
      <point x="29" y="381"/>
      <point x="28" y="341" type="curve"/>
      <point x="28" y="335" type="line"/>
      <point x="27" y="308"/>
      <point x="26" y="240"/>
      <point x="26" y="207" type="curve"/>
      <point x="24" y="183"/>
      <point x="24" y="118"/>
      <point x="24" y="49" type="curve" smooth="yes"/>
      <point x="24" y="-5"/>
      <point x="24" y="-90"/>
      <point x="25" y="-134" type="curve"/>
      <point x="25" y="-175" type="line"/>
      <point x="48" y="-168"/>
      <point x="72" y="-168"/>
      <point x="90" y="-169" type="curve" smooth="yes"/>
      <point x="102" y="-170"/>
      <point x="120" y="-170"/>
      <point x="133" y="-170" type="curve" smooth="yes"/>
      <point x="163" y="-170"/>
      <point x="188" y="-169"/>
      <point x="196" y="-158" type="curve"/>
      <point x="196" y="-143"/>
      <point x="196" y="-134"/>
      <point x="195" y="-129" type="curve"/>
      <point x="195" y="-130" type="line"/>
    </contour>
  </outline>
</glyph>
<glyph name="onesuperior" format="1">
  <advance width="187"/>
  <unicode hex="00B9"/>
  <outline>
    <contour>
      <point x="155" y="335" type="curve" smooth="yes"/>
      <point x="155" y="345"/>
      <point x="155" y="356"/>
      <point x="155" y="366" type="curve" smooth="yes"/>
      <point x="155" y="400"/>
      <point x="156" y="434"/>
      <point x="157" y="468" type="curve" smooth="yes"/>
      <point x="158" y="502"/>
      <point x="160" y="535"/>
      <point x="160" y="570" type="curve" smooth="yes"/>
      <point x="160" y="594"/>
      <point x="159" y="621"/>
      <point x="157" y="646" type="curve"/>
      <point x="138" y="648"/>
      <point x="120" y="649"/>
      <point x="104" y="649" type="curve" smooth="yes"/>
      <point x="93" y="649"/>
      <point x="76" y="648"/>
      <point x="65" y="648" type="curve" smooth="yes"/>
      <point x="60" y="648" type="line"/>
      <point x="55" y="644"/>
      <point x="4" y="565"/>
      <point x="2" y="546" type="curve"/>
      <point x="2" y="539"/>
      <point x="57" y="527"/>
      <point x="63" y="527" type="curve" smooth="yes"/>
      <point x="69" y="527"/>
      <point x="73" y="530"/>
      <point x="76" y="534" type="curve"/>
      <point x="76" y="506"/>
      <point x="74" y="487"/>
      <point x="74" y="460" type="curve"/>
      <point x="72" y="431"/>
      <point x="70" y="402"/>
      <point x="70" y="373" type="curve" smooth="yes"/>
      <point x="70" y="329" type="line"/>
      <point x="85" y="326"/>
      <point x="106" y="324"/>
      <point x="121" y="324" type="curve" smooth="yes"/>
      <point x="135" y="324"/>
      <point x="155" y="326"/>
    </contour>
  </outline>
</glyph>
<glyph name="guillemotright" format="1">
  <advance width="583"/>
  <unicode hex="00BB"/>
  <outline>
    <contour>
      <point x="220" y="85" type="line"/>
      <point x="312" y="170" type="line"/>
      <point x="352" y="210"/>
      <point x="379" y="236"/>
      <point x="406" y="260" type="curve"/>
      <point x="354" y="324"/>
      <point x="278" y="392"/>
      <point x="230" y="451" type="curve"/>
      <point x="242" y="459"/>
      <point x="255" y="473"/>
      <point x="269" y="488" type="curve"/>
      <point x="281" y="499"/>
      <point x="292" y="511"/>
      <point x="325" y="530" type="curve"/>
      <point x="507" y="343"/>
      <point x="549" y="300"/>
      <point x="579" y="262" type="curve"/>
      <point x="533" y="198"/>
      <point x="479" y="150"/>
      <point x="426" y="102" type="curve" smooth="yes"/>
      <point x="383" y="63"/>
      <point x="349" y="32"/>
      <point x="316" y="-1" type="curve"/>
      <point x="235" y="71" type="line"/>
    </contour>
    <contour>
      <point x="-1" y="85" type="line"/>
      <point x="131" y="210"/>
      <point x="158" y="236"/>
      <point x="185" y="260" type="curve"/>
      <point x="133" y="324"/>
      <point x="57" y="392"/>
      <point x="9" y="451" type="curve"/>
      <point x="21" y="459"/>
      <point x="34" y="473"/>
      <point x="48" y="488" type="curve"/>
      <point x="60" y="499"/>
      <point x="71" y="511"/>
      <point x="104" y="530" type="curve"/>
      <point x="286" y="343"/>
      <point x="328" y="300"/>
      <point x="358" y="262" type="curve"/>
      <point x="307" y="187"/>
      <point x="240" y="139"/>
      <point x="181" y="80" type="curve"/>
      <point x="154" y="56"/>
      <point x="123" y="27"/>
      <point x="95" y="-1" type="curve"/>
    </contour>
  </outline>
</glyph>
<glyph name="questiondown" format="1">
  <advance width="450"/>
  <unicode hex="00BF"/>
  <outline>
    <contour>
      <point x="322" y="414" type="line"/>
      <point x="322" y="424"/>
      <point x="322" y="432"/>
      <point x="313" y="441" type="curve"/>
      <point x="247" y="441" type="line"/>
      <point x="227" y="442"/>
      <point x="188" y="441"/>
      <point x="162" y="437" type="curve"/>
      <point x="167" y="422"/>
      <point x="164" y="412"/>
      <point x="161" y="403" type="curve"/>
      <point x="161" y="402"/>
      <point x="160" y="401"/>
      <point x="160" y="400" type="curve" smooth="yes"/>
      <point x="150" y="354"/>
      <point x="138" y="314"/>
      <point x="114" y="280" type="curve" smooth="yes"/>
      <point x="104" y="267"/>
      <point x="95" y="257"/>
      <point x="86" y="248" type="curve" smooth="yes"/>
      <point x="75" y="236"/>
      <point x="60" y="218"/>
      <point x="54" y="211" type="curve" smooth="yes"/>
      <point x="29" y="180"/>
      <point x="9" y="144"/>
      <point x="4" y="103" type="curve" smooth="yes"/>
      <point x="-10" y="-18"/>
      <point x="107" y="-108"/>
      <point x="237" y="-99" type="curve"/>
      <point x="354" y="-89"/>
      <point x="443" y="15"/>
      <point x="448" y="117" type="curve"/>
      <point x="442" y="118"/>
      <point x="430" y="119"/>
      <point x="421" y="120" type="curve" smooth="yes"/>
      <point x="415" y="121"/>
      <point x="403" y="122"/>
      <point x="397" y="122" type="curve" smooth="yes"/>
      <point x="382" y="123"/>
      <point x="366" y="124"/>
      <point x="350" y="124" type="curve" smooth="yes"/>
      <point x="337" y="124"/>
      <point x="316" y="123"/>
      <point x="303" y="122" type="curve"/>
      <point x="287" y="117"/>
      <point x="280" y="104"/>
      <point x="272" y="93" type="curve" smooth="yes"/>
      <point x="259" y="74"/>
      <point x="249" y="57"/>
      <point x="222" y="67" type="curve" smooth="yes"/>
      <point x="201" y="75"/>
      <point x="193" y="89"/>
      <point x="193" y="106" type="curve" smooth="yes"/>
      <point x="193" y="138"/>
      <point x="220" y="173"/>
      <point x="245" y="206" type="curve" smooth="yes"/>
      <point x="247" y="209"/>
      <point x="250" y="212"/>
      <point x="252" y="215" type="curve" smooth="yes"/>
      <point x="266" y="233"/>
      <point x="278" y="251"/>
      <point x="280" y="255" type="curve" smooth="yes"/>
      <point x="279" y="254" type="line" smooth="yes"/>
      <point x="306" y="297"/>
      <point x="313" y="334"/>
      <point x="320" y="375" type="curve"/>
    </contour>
    <contour>
      <point x="176" y="618" type="line"/>
      <point x="175" y="608"/>
      <point x="172" y="571"/>
      <point x="170" y="543" type="curve" smooth="yes"/>
      <point x="169" y="531"/>
      <point x="169" y="520"/>
      <point x="168" y="511" type="curve" smooth="yes"/>
      <point x="167" y="500"/>
      <point x="171" y="490"/>
      <point x="171" y="490" type="curve"/>
      <point x="181" y="485"/>
      <point x="209" y="483"/>
      <point x="239" y="483" type="curve" smooth="yes"/>
      <point x="269" y="483"/>
      <point x="302" y="486"/>
      <point x="322" y="495" type="curve"/>
      <point x="322" y="505" type="line" smooth="yes"/>
      <point x="322" y="508"/>
      <point x="323" y="512"/>
      <point x="323" y="517" type="curve" smooth="yes"/>
      <point x="323" y="537" type="line" smooth="yes"/>
      <point x="323" y="545"/>
      <point x="324" y="553"/>
      <point x="324" y="561" type="curve" smooth="yes"/>
      <point x="324" y="579"/>
      <point x="323" y="599"/>
      <point x="320" y="617" type="curve"/>
    </contour>
  </outline>
</glyph>
<glyph name="Acircumflex" format="1">
  <advance width="434"/>
  <unicode hex="00C2"/>
  <outline>
    <contour>
      <point x="221" y="932" type="line"/>
      <point x="159" y="871"/>
      <point x="95" y="822"/>
      <point x="42" y="751" type="curve"/>
      <point x="57" y="750"/>
      <point x="82" y="748"/>
      <point x="95" y="747" type="curve" smooth="yes"/>
      <point x="120" y="742"/>
      <point x="150" y="743"/>
      <point x="174" y="747" type="curve"/>
      <point x="191" y="755"/>
      <point x="206" y="772"/>
      <point x="219" y="785" type="curve"/>
      <point x="232" y="769"/>
      <point x="244" y="748"/>
      <point x="266" y="746" type="curve"/>
      <point x="278" y="744"/>
      <point x="295" y="744"/>
      <point x="305" y="744" type="curve" smooth="yes"/>
      <point x="332" y="744"/>
      <point x="370" y="742"/>
      <point x="387" y="759" type="curve"/>
    </contour>
    <contour>
      <point x="387" y="352" type="line"/>
      <point x="370" y="418"/>
      <point x="327" y="616"/>
      <point x="304" y="711" type="curve"/>
      <point x="242" y="706"/>
      <point x="198" y="706"/>
      <point x="177" y="706" type="curve" smooth="yes"/>
      <point x="171" y="706" type="line" smooth="yes"/>
      <point x="157" y="706"/>
      <point x="147" y="706"/>
      <point x="133" y="704" type="curve"/>
      <point x="58" y="456"/>
      <point x="33" y="247"/>
      <point x="0" y="65" type="curve" smooth="yes"/>
      <point x="-7" y="28"/>
      <point x="-8" y="0"/>
      <point x="-8" y="0" type="curve"/>
      <point x="93" y="-1"/>
      <point x="117" y="-11"/>
      <point x="158" y="-4" type="curve"/>
      <point x="190" y="44"/>
      <point x="189" y="114"/>
      <point x="205" y="163" type="curve"/>
      <point x="226" y="165"/>
      <point x="222" y="164"/>
      <point x="242" y="163" type="curve"/>
      <point x="257" y="127"/>
      <point x="272" y="45"/>
      <point x="288" y="1" type="curve"/>
      <point x="345" y="-11"/>
      <point x="397" y="-15"/>
      <point x="453" y="-3" type="curve"/>
    </contour>
    <contour>
      <point x="202" y="291" type="line"/>
      <point x="205" y="314"/>
      <point x="208" y="335"/>
      <point x="211" y="358" type="curve" smooth="yes"/>
      <point x="222" y="439"/>
      <point x="219" y="501"/>
      <point x="222" y="501" type="curve"/>
      <point x="223" y="491" type="line"/>
      <point x="222" y="491"/>
      <point x="228" y="434"/>
      <point x="244" y="291" type="curve"/>
    </contour>
  </outline>
</glyph>
<glyph name="Atilde" format="1">
  <advance width="434"/>
  <unicode hex="00C3"/>
  <outline>
    <contour>
      <point x="151" y="751" type="curve"/>
      <point x="128" y="795"/>
      <point x="181" y="847"/>
      <point x="210" y="797" type="curve"/>
      <point x="228" y="755"/>
      <point x="281" y="739"/>
      <point x="328" y="746" type="curve"/>
      <point x="402" y="761"/>
      <point x="442" y="848"/>
      <point x="433" y="918" type="curve"/>
      <point x="428" y="918"/>
      <point x="416" y="917"/>
      <point x="409" y="917" type="curve"/>
      <point x="370" y="917"/>
      <point x="350" y="917"/>
      <point x="323" y="914" type="curve"/>
      <point x="316" y="894"/>
      <point x="294" y="840"/>
      <point x="270" y="860" type="curve"/>
      <point x="250" y="875"/>
      <point x="240" y="896"/>
      <point x="220" y="909" type="curve" smooth="yes"/>
      <point x="203" y="920"/>
      <point x="180" y="926"/>
      <point x="159" y="926" type="curve" smooth="yes"/>
      <point x="124" y="926"/>
      <point x="89" y="912"/>
      <point x="66" y="889" type="curve"/>
      <point x="37" y="857"/>
      <point x="9" y="781"/>
      <point x="0" y="751" type="curve"/>
      <point x="17" y="752"/>
      <point x="51" y="753"/>
      <point x="66" y="753" type="curve" smooth="yes"/>
      <point x="91" y="753"/>
      <point x="118" y="752"/>
    </contour>
    <contour>
      <point x="387" y="352" type="line"/>
      <point x="370" y="418"/>
      <point x="327" y="616"/>
      <point x="304" y="711" type="curve"/>
      <point x="242" y="706"/>
      <point x="198" y="706"/>
      <point x="177" y="706" type="curve" smooth="yes"/>
      <point x="171" y="706" type="line" smooth="yes"/>
      <point x="157" y="706"/>
      <point x="147" y="706"/>
      <point x="133" y="704" type="curve"/>
      <point x="58" y="456"/>
      <point x="33" y="247"/>
      <point x="0" y="65" type="curve" smooth="yes"/>
      <point x="-7" y="28"/>
      <point x="-8" y="0"/>
      <point x="-8" y="0" type="curve"/>
      <point x="93" y="-1"/>
      <point x="117" y="-11"/>
      <point x="158" y="-4" type="curve"/>
      <point x="190" y="44"/>
      <point x="189" y="114"/>
      <point x="205" y="163" type="curve"/>
      <point x="226" y="165"/>
      <point x="222" y="164"/>
      <point x="242" y="163" type="curve"/>
      <point x="257" y="127"/>
      <point x="272" y="45"/>
      <point x="288" y="1" type="curve"/>
      <point x="345" y="-11"/>
      <point x="397" y="-15"/>
      <point x="453" y="-3" type="curve"/>
    </contour>
    <contour>
      <point x="202" y="291" type="line"/>
      <point x="205" y="314"/>
      <point x="208" y="335"/>
      <point x="211" y="358" type="curve" smooth="yes"/>
      <point x="222" y="439"/>
      <point x="219" y="501"/>
      <point x="222" y="501" type="curve"/>
      <point x="223" y="491" type="line"/>
      <point x="222" y="491"/>
      <point x="228" y="434"/>
      <point x="244" y="291" type="curve"/>
    </contour>
  </outline>
</glyph>
<glyph name="Adieresis" format="1">
  <advance width="434"/>
  <unicode hex="00C4"/>
  <outline>
    <contour>
      <point x="184" y="753" type="line"/>
      <point x="185" y="762"/>
      <point x="187" y="793"/>
      <point x="189" y="816" type="curve" smooth="yes"/>
      <point x="190" y="828"/>
      <point x="190" y="838"/>
      <point x="191" y="846" type="curve" smooth="yes"/>
      <point x="192" y="852"/>
      <point x="192" y="860"/>
      <point x="192" y="862" type="curve"/>
      <point x="177" y="869"/>
      <point x="152" y="872"/>
      <point x="129" y="872" type="curve" smooth="yes"/>
      <point x="103" y="872"/>
      <point x="71" y="868"/>
      <point x="53" y="862" type="curve"/>
      <point x="53" y="852" type="line"/>
      <point x="53" y="849"/>
      <point x="52" y="846"/>
      <point x="52" y="841" type="curve"/>
      <point x="52" y="824" type="line"/>
      <point x="52" y="817"/>
      <point x="51" y="810"/>
      <point x="51" y="803" type="curve" smooth="yes"/>
      <point x="51" y="787"/>
      <point x="52" y="769"/>
      <point x="55" y="754" type="curve"/>
    </contour>
    <contour>
      <point x="358" y="753" type="line"/>
      <point x="359" y="762"/>
      <point x="361" y="793"/>
      <point x="363" y="816" type="curve" smooth="yes"/>
      <point x="364" y="828"/>
      <point x="364" y="838"/>
      <point x="365" y="846" type="curve" smooth="yes"/>
      <point x="366" y="852"/>
      <point x="366" y="860"/>
      <point x="366" y="862" type="curve"/>
      <point x="351" y="869"/>
      <point x="326" y="872"/>
      <point x="303" y="872" type="curve" smooth="yes"/>
      <point x="277" y="872"/>
      <point x="245" y="868"/>
      <point x="227" y="862" type="curve"/>
      <point x="227" y="852" type="line"/>
      <point x="227" y="849"/>
      <point x="226" y="846"/>
      <point x="226" y="841" type="curve"/>
      <point x="226" y="824" type="line"/>
      <point x="226" y="817"/>
      <point x="225" y="810"/>
      <point x="225" y="803" type="curve" smooth="yes"/>
      <point x="225" y="787"/>
      <point x="226" y="769"/>
      <point x="229" y="754" type="curve"/>
    </contour>
    <contour>
      <point x="387" y="352" type="line"/>
      <point x="370" y="418"/>
      <point x="327" y="616"/>
      <point x="304" y="711" type="curve"/>
      <point x="242" y="706"/>
      <point x="198" y="706"/>
      <point x="177" y="706" type="curve" smooth="yes"/>
      <point x="171" y="706" type="line" smooth="yes"/>
      <point x="157" y="706"/>
      <point x="147" y="706"/>
      <point x="133" y="704" type="curve"/>
      <point x="58" y="456"/>
      <point x="33" y="247"/>
      <point x="0" y="65" type="curve" smooth="yes"/>
      <point x="-7" y="28"/>
      <point x="-8" y="0"/>
      <point x="-8" y="0" type="curve"/>
      <point x="93" y="-1"/>
      <point x="117" y="-11"/>
      <point x="158" y="-4" type="curve"/>
      <point x="190" y="44"/>
      <point x="189" y="114"/>
      <point x="205" y="163" type="curve"/>
      <point x="226" y="165"/>
      <point x="222" y="164"/>
      <point x="242" y="163" type="curve"/>
      <point x="257" y="127"/>
      <point x="272" y="45"/>
      <point x="288" y="1" type="curve"/>
      <point x="345" y="-11"/>
      <point x="397" y="-15"/>
      <point x="453" y="-3" type="curve"/>
    </contour>
    <contour>
      <point x="202" y="291" type="line"/>
      <point x="205" y="314"/>
      <point x="208" y="335"/>
      <point x="211" y="358" type="curve" smooth="yes"/>
      <point x="222" y="439"/>
      <point x="219" y="501"/>
      <point x="222" y="501" type="curve"/>
      <point x="223" y="491" type="line"/>
      <point x="222" y="491"/>
      <point x="228" y="434"/>
      <point x="244" y="291" type="curve"/>
    </contour>
  </outline>
</glyph>
<glyph name="Egrave" format="1">
  <advance width="481"/>
  <unicode hex="00C8"/>
  <outline>
    <contour>
      <point x="96" y="847" type="line"/>
      <point x="102" y="841"/>
      <point x="117" y="827"/>
      <point x="134" y="813" type="curve"/>
      <point x="133" y="813" type="line"/>
      <point x="135" y="811"/>
      <point x="138" y="809"/>
      <point x="140" y="807" type="curve" smooth="yes"/>
      <point x="164" y="785"/>
      <point x="190" y="761"/>
      <point x="201" y="746" type="curve"/>
      <point x="222" y="743"/>
      <point x="241" y="743"/>
      <point x="261" y="743" type="curve" smooth="yes"/>
      <point x="299" y="743"/>
      <point x="343" y="747"/>
      <point x="363" y="752" type="curve"/>
      <point x="353" y="761"/>
      <point x="331" y="785"/>
      <point x="316" y="800" type="curve"/>
      <point x="296" y="820" type="line"/>
      <point x="296" y="819" type="line"/>
      <point x="262" y="854"/>
      <point x="220" y="898"/>
      <point x="178" y="930" type="curve"/>
    </contour>
    <contour>
      <point x="478" y="142" type="curve"/>
      <point x="462" y="141"/>
      <point x="432" y="140"/>
      <point x="417" y="140" type="curve" smooth="yes"/>
      <point x="349" y="140"/>
      <point x="283" y="146"/>
      <point x="215" y="146" type="curve"/>
      <point x="212" y="166"/>
      <point x="211" y="190"/>
      <point x="211" y="214" type="curve"/>
      <point x="215" y="266" type="line"/>
      <point x="221" y="270"/>
      <point x="231" y="267"/>
      <point x="250" y="267" type="curve" smooth="yes"/>
      <point x="274" y="267"/>
      <point x="304" y="267"/>
      <point x="336" y="276" type="curve"/>
      <point x="339" y="372"/>
      <point x="338" y="392"/>
      <point x="333" y="421" type="curve"/>
      <point x="331" y="421"/>
      <point x="323" y="422"/>
      <point x="320" y="422" type="curve" smooth="yes"/>
      <point x="306" y="423"/>
      <point x="289" y="424"/>
      <point x="278" y="424" type="curve"/>
      <point x="212" y="416" type="line"/>
      <point x="207" y="431"/>
      <point x="206" y="445"/>
      <point x="206" y="458" type="curve" smooth="yes"/>
      <point x="206" y="479"/>
      <point x="209" y="517"/>
      <point x="211" y="536" type="curve"/>
      <point x="341" y="537" type="line" smooth="yes"/>
      <point x="381" y="537"/>
      <point x="424" y="539"/>
      <point x="475" y="550" type="curve"/>
      <point x="475" y="600"/>
      <point x="484" y="650"/>
      <point x="475" y="698" type="curve"/>
      <point x="354" y="709"/>
      <point x="172" y="698"/>
      <point x="31" y="694" type="curve"/>
      <point x="26" y="610"/>
      <point x="24" y="522"/>
      <point x="24" y="439" type="curve" smooth="yes"/>
      <point x="24" y="373"/>
      <point x="31" y="52"/>
      <point x="30" y="1" type="curve"/>
      <point x="175" y="-10"/>
      <point x="323" y="-2"/>
      <point x="469" y="-2" type="curve"/>
      <point x="477" y="27"/>
      <point x="480" y="59"/>
      <point x="480" y="89" type="curve" smooth="yes"/>
      <point x="480" y="104"/>
      <point x="479" y="119"/>
    </contour>
  </outline>
</glyph>
<glyph name="Iacute" format="1">
  <advance width="259"/>
  <unicode hex="00CD"/>
  <outline>
    <contour>
      <point x="227" y="930" type="line"/>
      <point x="189" y="899"/>
      <point x="147" y="857"/>
      <point x="110" y="819" type="curve" smooth="yes"/>
      <point x="92" y="800"/>
      <point x="64" y="771"/>
      <point x="43" y="753" type="curve"/>
      <point x="63" y="747"/>
      <point x="109" y="743"/>
      <point x="145" y="743" type="curve" smooth="yes"/>
      <point x="165" y="743"/>
      <point x="186" y="743"/>
      <point x="207" y="746" type="curve"/>
      <point x="217" y="766"/>
      <point x="249" y="794"/>
      <point x="274" y="815" type="curve" smooth="yes"/>
      <point x="290" y="829"/>
      <point x="305" y="842"/>
      <point x="308" y="845" type="curve"/>
    </contour>
    <contour>
      <point x="198" y="708" type="line"/>
      <point x="158" y="707"/>
      <point x="134" y="709"/>
      <point x="115" y="710" type="curve"/>
      <point x="71" y="709"/>
      <point x="73" y="716"/>
      <point x="32" y="710" type="curve"/>
      <point x="26" y="646"/>
      <point x="23" y="582"/>
      <point x="23" y="515" type="curve" smooth="yes"/>
      <point x="23" y="464"/>
      <point x="25" y="396"/>
      <point x="27" y="343" type="curve"/>
      <point x="27" y="324"/>
      <point x="28" y="304"/>
      <point x="28" y="285" type="curve" smooth="yes"/>
      <point x="29" y="247"/>
      <point x="30" y="209"/>
      <point x="30" y="170" type="curve" smooth="yes"/>
      <point x="30" y="112"/>
      <point x="28" y="43"/>
      <point x="24" y="-15" type="curve"/>
      <point x="57" y="-6"/>
      <point x="74" y="-7"/>
      <point x="93" y="-8" type="curve" smooth="yes"/>
      <point x="96" y="-8"/>
      <point x="102" y="-9"/>
      <point x="105" y="-9" type="curve" smooth="yes"/>
      <point x="122" y="-10"/>
      <point x="141" y="-10"/>
      <point x="158" y="-10" type="curve" smooth="yes"/>
      <point x="193" y="-10"/>
      <point x="224" y="-7"/>
      <point x="236" y="5" type="curve"/>
      <point x="232" y="74"/>
      <point x="230" y="144"/>
      <point x="230" y="214" type="curve" smooth="yes"/>
      <point x="230" y="293"/>
      <point x="232" y="384"/>
      <point x="234" y="463" type="curve" smooth="yes"/>
      <point x="236" y="542"/>
      <point x="237" y="621"/>
      <point x="237" y="699" type="curve" smooth="yes"/>
      <point x="237" y="708" type="line"/>
    </contour>
  </outline>
</glyph>
<glyph name="Ntilde" format="1">
  <advance width="516"/>
  <unicode hex="00D1"/>
  <outline>
    <contour>
      <point x="191" y="751" type="curve"/>
      <point x="168" y="795"/>
      <point x="221" y="847"/>
      <point x="250" y="797" type="curve"/>
      <point x="268" y="755"/>
      <point x="321" y="739"/>
      <point x="368" y="746" type="curve"/>
      <point x="442" y="761"/>
      <point x="482" y="848"/>
      <point x="473" y="918" type="curve"/>
      <point x="468" y="918"/>
      <point x="456" y="917"/>
      <point x="449" y="917" type="curve" smooth="yes"/>
      <point x="410" y="917"/>
      <point x="390" y="917"/>
      <point x="363" y="914" type="curve"/>
      <point x="356" y="894"/>
      <point x="334" y="840"/>
      <point x="310" y="860" type="curve"/>
      <point x="290" y="875"/>
      <point x="280" y="896"/>
      <point x="260" y="909" type="curve" smooth="yes"/>
      <point x="243" y="920"/>
      <point x="220" y="926"/>
      <point x="199" y="926" type="curve" smooth="yes"/>
      <point x="164" y="926"/>
      <point x="129" y="912"/>
      <point x="106" y="889" type="curve"/>
      <point x="77" y="857"/>
      <point x="49" y="781"/>
      <point x="40" y="751" type="curve"/>
      <point x="57" y="752"/>
      <point x="91" y="753"/>
      <point x="106" y="753" type="curve" smooth="yes"/>
      <point x="131" y="753"/>
      <point x="158" y="752"/>
    </contour>
    <contour>
      <point x="424" y="-10" type="curve"/>
      <point x="444" y="-10"/>
      <point x="454" y="-8"/>
      <point x="459" y="-6" type="curve" smooth="yes"/>
      <point x="462" y="-5"/>
      <point x="465" y="-3"/>
      <point x="471" y="-3" type="curve"/>
      <point x="471" y="706" type="line"/>
      <point x="443" y="712"/>
      <point x="416" y="715"/>
      <point x="390" y="715" type="curve" smooth="yes"/>
      <point x="362" y="715"/>
      <point x="334" y="713"/>
      <point x="303" y="707" type="curve"/>
      <point x="301" y="632"/>
      <point x="302" y="493"/>
      <point x="304" y="436" type="curve"/>
      <point x="273" y="503"/>
      <point x="225" y="631"/>
      <point x="190" y="693" type="curve"/>
      <point x="172" y="705"/>
      <point x="113" y="709"/>
      <point x="93" y="709" type="curve" smooth="yes"/>
      <point x="75" y="709"/>
      <point x="56" y="708"/>
      <point x="33" y="702" type="curve"/>
      <point x="26" y="617"/>
      <point x="24" y="525"/>
      <point x="24" y="432" type="curve" smooth="yes"/>
      <point x="24" y="370"/>
      <point x="24" y="312"/>
      <point x="25" y="253" type="curve" smooth="yes"/>
      <point x="26" y="194"/>
      <point x="27" y="135"/>
      <point x="27" y="71" type="curve" smooth="yes"/>
      <point x="27" y="-4" type="line"/>
      <point x="38" y="-4"/>
      <point x="61" y="-5"/>
      <point x="76" y="-6" type="curve"/>
      <point x="97" y="-6"/>
      <point x="118" y="-10"/>
      <point x="138" y="-10" type="curve" smooth="yes"/>
      <point x="156" y="-10"/>
      <point x="173" y="-9"/>
      <point x="197" y="-2" type="curve"/>
      <point x="196" y="21"/>
      <point x="196" y="52"/>
      <point x="196" y="83" type="curve" smooth="yes"/>
      <point x="196" y="275" type="line"/>
      <point x="215" y="224"/>
      <point x="246" y="156"/>
      <point x="279" y="84" type="curve" smooth="yes"/>
      <point x="292" y="56"/>
      <point x="306" y="24"/>
      <point x="319" y="-5" type="curve"/>
      <point x="328" y="-3"/>
      <point x="414" y="-12"/>
    </contour>
  </outline>
</glyph>
<glyph name="Oacute" format="1">
  <advance width="485"/>
  <unicode hex="00D3"/>
  <outline>
    <contour>
      <point x="334" y="930" type="line"/>
      <point x="296" y="899"/>
      <point x="254" y="857"/>
      <point x="217" y="819" type="curve" smooth="yes"/>
      <point x="199" y="800"/>
      <point x="171" y="771"/>
      <point x="150" y="753" type="curve"/>
      <point x="170" y="747"/>
      <point x="216" y="743"/>
      <point x="252" y="743" type="curve" smooth="yes"/>
      <point x="272" y="743"/>
      <point x="293" y="743"/>
      <point x="314" y="746" type="curve"/>
      <point x="324" y="766"/>
      <point x="356" y="794"/>
      <point x="381" y="815" type="curve" smooth="yes"/>
      <point x="397" y="829"/>
      <point x="412" y="842"/>
      <point x="415" y="845" type="curve"/>
    </contour>
    <contour>
      <point x="451" y="594" type="curve" smooth="yes"/>
      <point x="444" y="614"/>
      <point x="428" y="636"/>
      <point x="405" y="657" type="curve"/>
      <point x="362" y="690"/>
      <point x="302" y="706"/>
      <point x="240" y="706" type="curve" smooth="yes"/>
      <point x="190" y="706"/>
      <point x="141" y="695"/>
      <point x="100" y="675" type="curve" smooth="yes"/>
      <point x="81" y="665"/>
      <point x="79" y="664"/>
      <point x="78" y="663" type="curve" smooth="yes"/>
      <point x="34" y="611"/>
      <point x="19" y="539"/>
      <point x="16" y="482" type="curve" smooth="yes"/>
      <point x="14" y="451"/>
      <point x="13" y="421"/>
      <point x="13" y="390" type="curve" smooth="yes"/>
      <point x="13" y="342"/>
      <point x="15" y="282"/>
      <point x="18" y="233" type="curve" smooth="yes"/>
      <point x="18" y="227"/>
      <point x="18" y="208"/>
      <point x="19" y="200" type="curve" smooth="yes"/>
      <point x="19" y="193"/>
      <point x="20" y="177"/>
      <point x="21" y="168" type="curve"/>
      <point x="22" y="134"/>
      <point x="29" y="89"/>
      <point x="47" y="55" type="curve" smooth="yes"/>
      <point x="73" y="6"/>
      <point x="134" y="-13"/>
      <point x="191" y="-18" type="curve" smooth="yes"/>
      <point x="200" y="-19"/>
      <point x="214" y="-19"/>
      <point x="223" y="-19" type="curve" smooth="yes"/>
      <point x="254" y="-19"/>
      <point x="283" y="-16"/>
      <point x="310" y="-8" type="curve" smooth="yes"/>
      <point x="353" y="4"/>
      <point x="400" y="25"/>
      <point x="421" y="55" type="curve"/>
      <point x="448" y="98"/>
      <point x="459" y="147"/>
      <point x="462" y="193" type="curve" smooth="yes"/>
      <point x="465" y="226" type="line" smooth="yes"/>
      <point x="468" y="263"/>
      <point x="468" y="298"/>
      <point x="468" y="334" type="curve" smooth="yes"/>
      <point x="468" y="366"/>
      <point x="468" y="398"/>
      <point x="470" y="431" type="curve"/>
      <point x="470" y="449" type="line" smooth="yes"/>
      <point x="470" y="455"/>
      <point x="471" y="461"/>
      <point x="471" y="467" type="curve" smooth="yes"/>
      <point x="471" y="488"/>
      <point x="470" y="509"/>
      <point x="468" y="530" type="curve" smooth="yes"/>
      <point x="465" y="551"/>
      <point x="460" y="571"/>
    </contour>
    <contour>
      <point x="315" y="348" type="line"/>
      <point x="315" y="300" type="line" smooth="yes"/>
      <point x="315" y="294"/>
      <point x="314" y="288"/>
      <point x="314" y="281" type="curve" smooth="yes"/>
      <point x="314" y="267" type="line" smooth="yes"/>
      <point x="314" y="261"/>
      <point x="313" y="255"/>
      <point x="313" y="248" type="curve" smooth="yes"/>
      <point x="313" y="244"/>
      <point x="312" y="238"/>
      <point x="312" y="235" type="curve" smooth="yes"/>
      <point x="311" y="227"/>
      <point x="311" y="215"/>
      <point x="311" y="210" type="curve" smooth="yes"/>
      <point x="311" y="187"/>
      <point x="310" y="178"/>
      <point x="296" y="160" type="curve"/>
      <point x="279" y="141"/>
      <point x="256" y="131"/>
      <point x="235" y="131" type="curve" smooth="yes"/>
      <point x="210" y="131"/>
      <point x="184" y="145"/>
      <point x="171" y="172" type="curve"/>
      <point x="171" y="171" type="line"/>
      <point x="164" y="195"/>
      <point x="162" y="220"/>
      <point x="160" y="245" type="curve" smooth="yes"/>
      <point x="160" y="250"/>
      <point x="159" y="254"/>
      <point x="159" y="259" type="curve" smooth="yes"/>
      <point x="158" y="275"/>
      <point x="156" y="297"/>
      <point x="153" y="312" type="curve"/>
      <point x="153" y="311" type="line"/>
      <point x="152" y="328"/>
      <point x="152" y="345"/>
      <point x="152" y="362" type="curve" smooth="yes"/>
      <point x="152" y="400"/>
      <point x="154" y="439"/>
      <point x="162" y="474" type="curve"/>
      <point x="170" y="500"/>
      <point x="187" y="527"/>
      <point x="203" y="540" type="curve"/>
      <point x="221" y="552"/>
      <point x="247" y="561"/>
      <point x="266" y="553" type="curve" smooth="yes"/>
      <point x="291" y="541"/>
      <point x="306" y="510"/>
      <point x="309" y="473" type="curve" smooth="yes"/>
      <point x="310" y="457"/>
      <point x="312" y="433"/>
      <point x="313" y="421" type="curve" smooth="yes"/>
      <point x="313" y="416" type="line"/>
    </contour>
  </outline>
</glyph>
<glyph name="multiply" format="1">
  <advance width="735"/>
  <unicode hex="00D7"/>
  <outline>
    <contour>
      <point x="26" y="731" type="line"/>
      <point x="25" y="570"/>
      <point x="36" y="339"/>
      <point x="36" y="198" type="curve" smooth="yes"/>
      <point x="36" y="135"/>
      <point x="34" y="65"/>
      <point x="31" y="-3" type="curve"/>
      <point x="266" y="-10"/>
      <point x="430" y="-12"/>
      <point x="525" y="-12" type="curve" smooth="yes"/>
      <point x="705" y="-12"/>
      <point x="705" y="-2"/>
      <point x="707" y="8" type="curve"/>
      <point x="707" y="9"/>
      <point x="707" y="12"/>
      <point x="708" y="13" type="curve"/>
      <point x="704" y="115"/>
      <point x="703" y="274"/>
      <point x="703" y="425" type="curve"/>
      <point x="703" y="729" type="line"/>
    </contour>
    <contour>
      <point x="246" y="367" type="line"/>
      <point x="241" y="374" type="line"/>
      <point x="227" y="341"/>
      <point x="220" y="322"/>
      <point x="215" y="307" type="curve" smooth="yes"/>
      <point x="204" y="274"/>
      <point x="190" y="233"/>
      <point x="160" y="165" type="curve"/>
      <point x="160" y="230" type="line"/>
      <point x="160" y="345"/>
      <point x="159" y="476"/>
      <point x="161" y="590" type="curve"/>
      <point x="197" y="515"/>
      <point x="213" y="463"/>
      <point x="227" y="416" type="curve" smooth="yes"/>
      <point x="231" y="401"/>
      <point x="235" y="387"/>
      <point x="240" y="371" type="curve"/>
    </contour>
    <contour>
      <point x="480" y="369" type="line"/>
      <point x="487" y="417"/>
      <point x="523" y="485"/>
      <point x="553" y="544" type="curve" smooth="yes"/>
      <point x="558" y="554"/>
      <point x="565" y="565"/>
      <point x="570" y="575" type="curve"/>
      <point x="571" y="385" type="line"/>
      <point x="571" y="352"/>
      <point x="572" y="320"/>
      <point x="572" y="288" type="curve" smooth="yes"/>
      <point x="572" y="249"/>
      <point x="573" y="207"/>
      <point x="572" y="171" type="curve"/>
      <point x="536" y="228"/>
      <point x="491" y="313"/>
      <point x="480" y="371" type="curve"/>
    </contour>
    <contour>
      <point x="358" y="445" type="move"/>
    </contour>
    <contour>
      <point x="349" y="465" type="line"/>
      <point x="330" y="510"/>
      <point x="302" y="576"/>
      <point x="283" y="635" type="curve"/>
      <point x="442" y="636" type="line"/>
      <point x="414" y="559"/>
      <point x="384" y="502"/>
      <point x="357" y="443" type="curve"/>
      <point x="354" y="450"/>
      <point x="351" y="457"/>
      <point x="349" y="464" type="curve"/>
    </contour>
    <contour>
      <point x="450" y="98" type="line"/>
      <point x="443" y="104"/>
      <point x="376" y="100"/>
      <point x="318" y="100" type="curve" smooth="yes"/>
      <point x="273" y="98" type="line"/>
      <point x="287" y="145"/>
      <point x="314" y="199"/>
      <point x="337" y="249" type="curve" smooth="yes"/>
      <point x="345" y="266"/>
      <point x="351" y="281"/>
      <point x="357" y="295" type="curve"/>
      <point x="356" y="295" type="line"/>
      <point x="356" y="296" type="line"/>
    </contour>
  </outline>
</glyph>
<glyph name="Oslash" format="1">
  <advance width="479"/>
  <unicode hex="00D8"/>
  <outline>
    <contour>
      <point x="468" y="487" type="line"/>
      <point x="468" y="542"/>
      <point x="457" y="601"/>
      <point x="419" y="647" type="curve"/>
      <point x="419" y="658"/>
      <point x="424" y="669"/>
      <point x="428" y="679" type="curve" smooth="yes"/>
      <point x="433" y="690"/>
      <point x="439" y="704"/>
      <point x="439" y="715" type="curve"/>
      <point x="421" y="725"/>
      <point x="399" y="729"/>
      <point x="377" y="729" type="curve" smooth="yes"/>
      <point x="359" y="729"/>
      <point x="266" y="735"/>
      <point x="266" y="724" type="curve" smooth="yes"/>
      <point x="266" y="708" type="line"/>
      <point x="250" y="710"/>
      <point x="240" y="709"/>
      <point x="220" y="709" type="curve" smooth="yes"/>
      <point x="139" y="709"/>
      <point x="83" y="686"/>
      <point x="42" y="611" type="curve" smooth="yes"/>
      <point x="25" y="578"/>
      <point x="21" y="537"/>
      <point x="20" y="505" type="curve" smooth="yes"/>
      <point x="20" y="450"/>
      <point x="14" y="395"/>
      <point x="14" y="340" type="curve" smooth="yes"/>
      <point x="14" y="251"/>
      <point x="27" y="164"/>
      <point x="48" y="75" type="curve"/>
      <point x="23" y="59"/>
      <point x="19" y="-7"/>
      <point x="22" y="-27" type="curve"/>
      <point x="52" y="-23"/>
      <point x="161" y="-27"/>
      <point x="175" y="-22" type="curve"/>
      <point x="183" y="-15"/>
      <point x="188" y="-10"/>
      <point x="190" y="-6" type="curve"/>
      <point x="205" y="-4"/>
      <point x="219" y="-4"/>
      <point x="233" y="-4" type="curve" smooth="yes"/>
      <point x="251" y="-4"/>
      <point x="275" y="-4"/>
      <point x="292" y="-2" type="curve" smooth="yes"/>
      <point x="370" y="7"/>
      <point x="433" y="59"/>
      <point x="449" y="130" type="curve"/>
      <point x="465" y="215"/>
      <point x="466" y="300"/>
      <point x="466" y="387" type="curve" smooth="yes"/>
    </contour>
    <contour>
      <point x="167" y="446" type="line"/>
      <point x="168" y="466"/>
      <point x="169" y="487"/>
      <point x="173" y="509" type="curve"/>
      <point x="173" y="508" type="line"/>
      <point x="181" y="530"/>
      <point x="199" y="548"/>
      <point x="216" y="555" type="curve"/>
      <point x="200" y="500"/>
      <point x="176" y="427"/>
      <point x="158" y="374" type="curve"/>
    </contour>
    <contour>
      <point x="314" y="284" type="curve" smooth="yes"/>
      <point x="314" y="256"/>
      <point x="311" y="223"/>
      <point x="303" y="188" type="curve"/>
      <point x="295" y="164"/>
      <point x="270" y="148"/>
      <point x="249" y="140" type="curve"/>
      <point x="255" y="162"/>
      <point x="260" y="177"/>
      <point x="267" y="199" type="curve" smooth="yes"/>
      <point x="274" y="218"/>
      <point x="280" y="237"/>
      <point x="287" y="256" type="curve" smooth="yes"/>
      <point x="295" y="281"/>
      <point x="304" y="307"/>
      <point x="312" y="330" type="curve"/>
      <point x="314" y="309"/>
      <point x="314" y="309"/>
    </contour>
  </outline>
</glyph>
<glyph name="Ugrave" format="1">
  <advance width="505"/>
  <unicode hex="00D9"/>
  <outline>
    <contour>
      <point x="80" y="847" type="line"/>
      <point x="86" y="841"/>
      <point x="101" y="827"/>
      <point x="118" y="813" type="curve"/>
      <point x="117" y="813" type="line"/>
      <point x="119" y="811"/>
      <point x="122" y="809"/>
      <point x="124" y="807" type="curve" smooth="yes"/>
      <point x="148" y="785"/>
      <point x="174" y="761"/>
      <point x="185" y="746" type="curve"/>
      <point x="206" y="743"/>
      <point x="225" y="743"/>
      <point x="245" y="743" type="curve" smooth="yes"/>
      <point x="283" y="743"/>
      <point x="327" y="747"/>
      <point x="347" y="752" type="curve"/>
      <point x="337" y="761"/>
      <point x="315" y="785"/>
      <point x="300" y="800" type="curve"/>
      <point x="280" y="820" type="line"/>
      <point x="280" y="819" type="line"/>
      <point x="246" y="854"/>
      <point x="204" y="898"/>
      <point x="162" y="930" type="curve"/>
    </contour>
    <contour>
      <point x="476" y="674" type="line"/>
      <point x="462" y="682"/>
      <point x="440" y="684"/>
      <point x="416" y="684" type="curve"/>
      <point x="403" y="685"/>
      <point x="344" y="678"/>
      <point x="329" y="678" type="curve"/>
      <point x="321" y="677"/>
      <point x="308" y="675"/>
      <point x="308" y="675" type="curve"/>
      <point x="307" y="633"/>
      <point x="306" y="587"/>
      <point x="306" y="543" type="curve" smooth="yes"/>
      <point x="306" y="522"/>
      <point x="305" y="501"/>
      <point x="305" y="479" type="curve" smooth="yes"/>
      <point x="304" y="384"/>
      <point x="303" y="282"/>
      <point x="299" y="188" type="curve"/>
      <point x="299" y="189" type="line"/>
      <point x="292" y="161"/>
      <point x="270" y="143"/>
      <point x="250" y="143" type="curve" smooth="yes"/>
      <point x="232" y="143"/>
      <point x="214" y="157"/>
      <point x="206" y="184" type="curve"/>
      <point x="206" y="183" type="line"/>
      <point x="198" y="291"/>
      <point x="193" y="398"/>
      <point x="193" y="504" type="curve" smooth="yes"/>
      <point x="193" y="561"/>
      <point x="195" y="620"/>
      <point x="197" y="676" type="curve"/>
      <point x="170" y="684"/>
      <point x="139" y="687"/>
      <point x="111" y="687" type="curve" smooth="yes"/>
      <point x="68" y="686"/>
      <point x="59" y="685"/>
      <point x="51" y="685" type="curve" smooth="yes"/>
      <point x="26" y="685" type="line"/>
      <point x="27" y="654"/>
      <point x="27" y="618"/>
      <point x="27" y="588" type="curve" smooth="yes"/>
      <point x="27" y="540"/>
      <point x="26" y="484"/>
      <point x="25" y="431" type="curve" smooth="yes"/>
      <point x="25" y="414"/>
      <point x="24" y="382"/>
      <point x="24" y="366" type="curve" smooth="yes"/>
      <point x="23" y="293"/>
      <point x="22" y="219"/>
      <point x="22" y="147" type="curve"/>
      <point x="27" y="32"/>
      <point x="149" y="-21"/>
      <point x="262" y="-21" type="curve" smooth="yes"/>
      <point x="274" y="-21"/>
      <point x="286" y="-20"/>
      <point x="295" y="-19" type="curve"/>
      <point x="294" y="-19" type="line"/>
      <point x="397" y="-9"/>
      <point x="461" y="61"/>
      <point x="472" y="150" type="curve"/>
      <point x="484" y="258"/>
      <point x="489" y="367"/>
      <point x="489" y="476" type="curve" smooth="yes"/>
      <point x="489" y="541"/>
      <point x="487" y="610"/>
      <point x="484" y="674" type="curve"/>
    </contour>
  </outline>
</glyph>
<glyph name="Yacute" format="1">
  <advance width="434"/>
  <unicode hex="00DD"/>
  <outline>
    <contour>
      <point x="317" y="930" type="line"/>
      <point x="279" y="899"/>
      <point x="237" y="857"/>
      <point x="200" y="819" type="curve" smooth="yes"/>
      <point x="182" y="800"/>
      <point x="154" y="771"/>
      <point x="133" y="753" type="curve"/>
      <point x="153" y="747"/>
      <point x="199" y="743"/>
      <point x="235" y="743" type="curve" smooth="yes"/>
      <point x="255" y="743"/>
      <point x="276" y="743"/>
      <point x="297" y="746" type="curve"/>
      <point x="307" y="766"/>
      <point x="339" y="794"/>
      <point x="364" y="815" type="curve" smooth="yes"/>
      <point x="380" y="829"/>
      <point x="395" y="842"/>
      <point x="398" y="845" type="curve"/>
    </contour>
    <contour>
      <point x="410" y="696" type="curve" smooth="yes"/>
      <point x="372" y="696"/>
      <point x="323" y="692"/>
      <point x="295" y="689" type="curve"/>
      <point x="290" y="677"/>
      <point x="284" y="662"/>
      <point x="278" y="649" type="curve" smooth="yes"/>
      <point x="262" y="612"/>
      <point x="243" y="569"/>
      <point x="229" y="541" type="curve"/>
      <point x="211" y="584"/>
      <point x="196" y="634"/>
      <point x="183" y="688" type="curve"/>
      <point x="160" y="697"/>
      <point x="137" y="699"/>
      <point x="112" y="699" type="curve" smooth="yes"/>
      <point x="101" y="699"/>
      <point x="85" y="698"/>
      <point x="74" y="697" type="curve"/>
      <point x="62" y="697"/>
      <point x="53" y="695"/>
      <point x="43" y="695" type="curve" smooth="yes"/>
      <point x="30" y="694"/>
      <point x="8" y="693"/>
      <point x="-1" y="693" type="curve"/>
      <point x="13" y="636"/>
      <point x="38" y="575"/>
      <point x="64" y="515" type="curve" smooth="yes"/>
      <point x="87" y="459"/>
      <point x="111" y="405"/>
      <point x="126" y="345" type="curve"/>
      <point x="90" y="250"/>
      <point x="13" y="58"/>
      <point x="-6" y="-7" type="curve"/>
      <point x="17" y="-8"/>
      <point x="61" y="-7"/>
      <point x="86" y="-6" type="curve"/>
      <point x="114" y="-6"/>
      <point x="140" y="-4"/>
      <point x="168" y="-7" type="curve"/>
      <point x="357" y="425"/>
      <point x="422" y="558"/>
      <point x="463" y="691" type="curve"/>
      <point x="443" y="696"/>
      <point x="428" y="696"/>
    </contour>
  </outline>
</glyph>
<glyph name="germandbls" format="1">
  <advance width="470"/>
  <unicode hex="00DF"/>
  <outline>
    <contour>
      <point x="223" y="355" type="line"/>
      <point x="221" y="327"/>
      <point x="233" y="299"/>
      <point x="259" y="272" type="curve"/>
      <point x="273" y="259"/>
      <point x="285" y="227"/>
      <point x="285" y="198" type="curve" smooth="yes"/>
      <point x="285" y="173"/>
      <point x="277" y="151"/>
      <point x="255" y="147" type="curve"/>
      <point x="229" y="146"/>
      <point x="215" y="137"/>
      <point x="211" y="123" type="curve"/>
      <point x="208" y="100"/>
      <point x="207" y="80"/>
      <point x="207" y="61" type="curve" smooth="yes"/>
      <point x="207" y="37"/>
      <point x="209" y="15"/>
      <point x="215" y="-4" type="curve"/>
      <point x="218" y="-4"/>
      <point x="228" y="-5"/>
      <point x="233" y="-5" type="curve" smooth="yes"/>
      <point x="245" y="-6"/>
      <point x="260" y="-7"/>
      <point x="268" y="-7" type="curve" smooth="yes"/>
      <point x="315" y="-7"/>
      <point x="344" y="2"/>
      <point x="378" y="19" type="curve" smooth="yes"/>
      <point x="425" y="43"/>
      <point x="461" y="83"/>
      <point x="472" y="144" type="curve" smooth="yes"/>
      <point x="474" y="157"/>
      <point x="475" y="169"/>
      <point x="475" y="181" type="curve" smooth="yes"/>
      <point x="475" y="245"/>
      <point x="436" y="291"/>
      <point x="396" y="340" type="curve" smooth="yes"/>
      <point x="394" y="342"/>
      <point x="394" y="344"/>
      <point x="397" y="350" type="curve"/>
      <point x="397" y="349" type="line"/>
      <point x="425" y="396"/>
      <point x="448" y="453"/>
      <point x="448" y="508" type="curve" smooth="yes"/>
      <point x="448" y="670"/>
      <point x="323" y="720"/>
      <point x="190" y="720" type="curve" smooth="yes"/>
      <point x="134" y="720"/>
      <point x="74" y="710"/>
      <point x="21" y="695" type="curve"/>
      <point x="21" y="565" type="line"/>
      <point x="21" y="507"/>
      <point x="21" y="450"/>
      <point x="20" y="393" type="curve" smooth="yes"/>
      <point x="20" y="366"/>
      <point x="19" y="340"/>
      <point x="19" y="314" type="curve"/>
      <point x="19" y="235" type="line"/>
      <point x="19" y="158"/>
      <point x="20" y="79"/>
      <point x="23" y="1" type="curve"/>
      <point x="38" y="-4"/>
      <point x="46" y="-4"/>
      <point x="55" y="-4" type="curve"/>
      <point x="60" y="-4" type="line"/>
      <point x="84" y="-5"/>
      <point x="116" y="-5"/>
      <point x="157" y="-5" type="curve"/>
      <point x="175" y="-6"/>
      <point x="183" y="26"/>
      <point x="182" y="94" type="curve" smooth="yes"/>
      <point x="177" y="305"/>
      <point x="178" y="342"/>
      <point x="174" y="407" type="curve" smooth="yes"/>
      <point x="173" y="428"/>
      <point x="173" y="445"/>
      <point x="173" y="461" type="curve" smooth="yes"/>
      <point x="173" y="490"/>
      <point x="174" y="513"/>
      <point x="176" y="537" type="curve" smooth="yes"/>
      <point x="176" y="540" type="line"/>
      <point x="215" y="550"/>
      <point x="269" y="554"/>
      <point x="289" y="508" type="curve"/>
      <point x="293" y="499"/>
      <point x="294" y="487"/>
      <point x="291" y="474" type="curve" smooth="yes"/>
      <point x="288" y="459"/>
      <point x="279" y="444"/>
      <point x="263" y="430" type="curve" smooth="yes"/>
      <point x="242" y="410"/>
      <point x="228" y="385"/>
      <point x="223" y="356" type="curve"/>
    </contour>
  </outline>
</glyph>
